<?xml version="1.0" encoding="UTF-8" standalone="no"?><!DOCTYPE svg PUBLIC "-//W3C//DTD SVG 1.1//EN" "http://www.w3.org/Graphics/SVG/1.1/DTD/svg11.dtd"><svg width="100%" height="100%" viewBox="0 0 1600 1200" version="1.1" xmlns="http://www.w3.org/2000/svg" xmlns:xlink="http://www.w3.org/1999/xlink" xml:space="preserve" xmlns:serif="http://www.serif.com/" style="fill-rule:evenodd;clip-rule:evenodd;stroke-linecap:round;stroke-linejoin:round;stroke-miterlimit:1.41421;"><g id="rdb2rdf-05" serif:id="rdb2rdf 05"><g><g transform="matrix(1,0,0,1,-70.0841,-185.224)"><g transform="matrix(48,0,0,48,115.68,339.351)"><path d="M0.284,-0.293l-0,0.158c-0,0.03 0.005,0.051 0.015,0.063c0.01,0.012 0.032,0.018 0.064,0.018l0.015,-0l0,0.054l-0.358,-0l-0,-0.054l0.011,-0c0.033,-0 0.055,-0.006 0.064,-0.019c0.01,-0.012 0.015,-0.033 0.015,-0.062l0,-0.392c0,-0.03 -0.005,-0.051 -0.015,-0.063c-0.01,-0.012 -0.032,-0.018 -0.064,-0.018l-0.016,0l0,-0.054l0.269,-0.006c0.067,0 0.119,0.002 0.155,0.005c0.037,0.004 0.07,0.014 0.101,0.03c0.031,0.016 0.054,0.038 0.069,0.065c0.016,0.027 0.023,0.056 0.023,0.088c0,0.043 -0.013,0.08 -0.04,0.111c-0.027,0.031 -0.06,0.051 -0.101,0.061c-0.04,0.01 -0.093,0.015 -0.158,0.015l-0.049,0Zm-0,-0.059l0.032,0c0.052,0 0.086,-0.011 0.103,-0.033c0.018,-0.023 0.026,-0.053 0.026,-0.091c0,-0.034 -0.006,-0.061 -0.019,-0.082c-0.012,-0.021 -0.029,-0.035 -0.048,-0.041c-0.02,-0.007 -0.051,-0.01 -0.094,-0.01l-0,0.257Z" style="fill-rule:nonzero;"/></g><g transform="matrix(48,0,0,48,146.172,339.351)"><path d="M0.213,-0.205c0,0.053 0.009,0.093 0.027,0.12c0.019,0.027 0.046,0.04 0.082,0.04c0.038,0 0.074,-0.019 0.106,-0.059l0.045,0.028c-0.018,0.027 -0.045,0.049 -0.08,0.066c-0.034,0.017 -0.073,0.026 -0.115,0.026c-0.064,0 -0.119,-0.019 -0.165,-0.059c-0.046,-0.039 -0.069,-0.092 -0.069,-0.159c-0,-0.066 0.022,-0.119 0.067,-0.157c0.044,-0.038 0.097,-0.057 0.16,-0.057c0.063,-0 0.114,0.017 0.155,0.052c0.04,0.035 0.06,0.088 0.06,0.159l-0.273,0Zm-0,-0.049l0.123,0c-0.002,-0.072 -0.023,-0.108 -0.063,-0.108c-0.02,0 -0.035,0.009 -0.045,0.027c-0.01,0.018 -0.015,0.045 -0.015,0.081Z" style="fill-rule:nonzero;"/></g><g transform="matrix(48,0,0,48,171.18,339.351)"><path d="M0.242,-0.315c0.019,-0.034 0.041,-0.059 0.065,-0.076c0.024,-0.017 0.05,-0.025 0.079,-0.025c0.028,-0 0.049,0.009 0.063,0.026c0.015,0.018 0.022,0.036 0.022,0.057c-0,0.019 -0.006,0.036 -0.017,0.049c-0.012,0.014 -0.028,0.021 -0.048,0.021c-0.011,-0 -0.02,-0.002 -0.028,-0.007c-0.007,-0.004 -0.016,-0.013 -0.028,-0.026c-0.012,-0.013 -0.024,-0.019 -0.038,-0.019c-0.021,-0 -0.037,0.013 -0.048,0.038c-0.01,0.026 -0.015,0.065 -0.015,0.117l-0,0.043c-0,0.024 0.003,0.041 0.011,0.051c0.007,0.009 0.025,0.014 0.052,0.014l0.009,0l0,0.052l-0.296,0l-0,-0.052c0.028,0 0.046,-0.004 0.054,-0.014c0.007,-0.009 0.011,-0.026 0.011,-0.051l-0,-0.139c-0,-0.025 -0.004,-0.042 -0.012,-0.051c-0.007,-0.01 -0.025,-0.014 -0.054,-0.014l-0,-0.052l0.203,-0.043c0.009,0.026 0.014,0.06 0.015,0.101Z" style="fill-rule:nonzero;"/></g><g transform="matrix(48,0,0,48,194.172,339.351)"><path d="M0.049,0.016l-0.003,-0.133l0.048,0c0.025,0.055 0.072,0.083 0.139,0.083c0.029,-0 0.052,-0.005 0.071,-0.015c0.018,-0.01 0.028,-0.021 0.028,-0.033c-0,-0.011 -0.006,-0.019 -0.016,-0.025c-0.01,-0.005 -0.033,-0.012 -0.069,-0.019c-0.056,-0.012 -0.098,-0.023 -0.124,-0.033c-0.027,-0.01 -0.049,-0.026 -0.065,-0.047c-0.016,-0.022 -0.024,-0.046 -0.024,-0.073c-0,-0.041 0.016,-0.074 0.049,-0.099c0.034,-0.025 0.078,-0.038 0.134,-0.038c0.043,-0 0.087,0.008 0.131,0.025c0.008,-0.007 0.014,-0.016 0.019,-0.025l0.04,-0l0.005,0.121l-0.039,0c-0.026,-0.05 -0.075,-0.075 -0.15,-0.075c-0.025,0 -0.045,0.004 -0.06,0.012c-0.016,0.008 -0.024,0.018 -0.024,0.031c0,0.013 0.007,0.022 0.019,0.029c0.013,0.006 0.043,0.014 0.091,0.023c0.05,0.01 0.088,0.02 0.113,0.031c0.025,0.01 0.045,0.025 0.06,0.046c0.014,0.02 0.021,0.043 0.021,0.069c0,0.043 -0.019,0.078 -0.056,0.105c-0.038,0.027 -0.085,0.04 -0.14,0.04c-0.043,0 -0.088,-0.009 -0.134,-0.027c-0.009,0.006 -0.016,0.015 -0.02,0.027l-0.044,0Z" style="fill-rule:nonzero;"/></g><g transform="matrix(48,0,0,48,217.164,339.351)"><path d="M0.037,-0.201c0,-0.067 0.024,-0.12 0.071,-0.158c0.048,-0.038 0.105,-0.057 0.173,-0.057c0.066,-0 0.123,0.018 0.172,0.055c0.048,0.037 0.073,0.091 0.073,0.16c-0,0.066 -0.024,0.119 -0.072,0.158c-0.048,0.04 -0.106,0.059 -0.174,0.059c-0.066,0 -0.123,-0.019 -0.171,-0.056c-0.048,-0.037 -0.072,-0.091 -0.072,-0.161Zm0.168,-0.005c-0,0.062 0.005,0.106 0.017,0.131c0.011,0.025 0.032,0.037 0.06,0.037c0.023,0 0.042,-0.01 0.056,-0.031c0.013,-0.021 0.02,-0.065 0.02,-0.133c0,-0.062 -0.006,-0.104 -0.018,-0.126c-0.013,-0.022 -0.032,-0.033 -0.059,-0.033c-0.021,0 -0.039,0.01 -0.054,0.028c-0.015,0.019 -0.022,0.061 -0.022,0.127Z" style="fill-rule:nonzero;"/></g><g transform="matrix(48,0,0,48,244.164,339.351)"><path d="M0.247,-0.274l0,0.158c0,0.023 0.003,0.039 0.01,0.049c0.007,0.01 0.019,0.015 0.037,0.015l-0,0.052l-0.273,0l-0,-0.052c0.028,0 0.046,-0.004 0.054,-0.013c0.008,-0.009 0.011,-0.026 0.011,-0.051l0,-0.136c0,-0.025 -0.003,-0.042 -0.011,-0.051c-0.008,-0.01 -0.026,-0.014 -0.054,-0.014l-0,-0.052l0.216,-0.036c0.006,0.013 0.009,0.032 0.01,0.059c0.022,-0.024 0.044,-0.041 0.068,-0.053c0.023,-0.011 0.048,-0.017 0.073,-0.017c0.046,-0 0.082,0.013 0.108,0.038c0.026,0.025 0.039,0.06 0.039,0.104l-0,0.158c-0,0.025 0.004,0.041 0.012,0.051c0.008,0.009 0.025,0.013 0.052,0.013l-0,0.052l-0.272,0l-0,-0.052c0.013,-0 0.025,-0.004 0.034,-0.011c0.009,-0.008 0.014,-0.025 0.014,-0.053l0,-0.146c0,-0.027 -0.004,-0.045 -0.011,-0.055c-0.007,-0.01 -0.018,-0.015 -0.031,-0.015c-0.014,0 -0.028,0.005 -0.042,0.015c-0.015,0.009 -0.029,0.023 -0.044,0.043Z" style="fill-rule:nonzero;"/></g><g transform="matrix(48,0,0,48,115.68,459.351)"><path d="M0.026,-0.64l-0,-0.022l0.303,-0l-0,0.022l-0.015,0c-0.032,0 -0.053,0.003 -0.064,0.008c-0.01,0.006 -0.016,0.016 -0.02,0.03c-0.003,0.015 -0.005,0.05 -0.005,0.105l0,0.325c0,0.052 0.001,0.086 0.004,0.102c0.002,0.016 0.009,0.028 0.019,0.036c0.011,0.008 0.031,0.012 0.061,0.012l0.02,-0l-0,0.022l-0.303,-0l-0,-0.022l0.019,-0c0.029,-0 0.048,-0.004 0.059,-0.011c0.011,-0.007 0.018,-0.019 0.021,-0.034c0.003,-0.015 0.004,-0.05 0.004,-0.105l0,-0.325c0,-0.053 -0.001,-0.087 -0.004,-0.102c-0.003,-0.015 -0.009,-0.026 -0.02,-0.032c-0.01,-0.006 -0.031,-0.009 -0.065,-0.009l-0.014,0Z" style="fill-rule:nonzero;"/></g><g transform="matrix(48,0,0,48,132.672,459.351)"><path d="M0.023,-0.657l0.109,-0.005c0.091,-0.005 0.152,-0.007 0.184,-0.007c0.098,0 0.175,0.015 0.23,0.045c0.055,0.03 0.096,0.071 0.123,0.122c0.027,0.051 0.04,0.11 0.04,0.177c-0,0.049 -0.007,0.093 -0.022,0.133c-0.015,0.041 -0.035,0.074 -0.06,0.1c-0.026,0.027 -0.055,0.047 -0.089,0.061c-0.034,0.014 -0.066,0.022 -0.096,0.026c-0.03,0.003 -0.073,0.005 -0.128,0.005l-0.293,-0l-0,-0.022l0.027,-0c0.028,-0 0.048,-0.004 0.059,-0.011c0.011,-0.007 0.018,-0.019 0.021,-0.034c0.003,-0.015 0.004,-0.05 0.004,-0.105l0,-0.32c0,-0.052 -0.001,-0.087 -0.004,-0.102c-0.003,-0.015 -0.01,-0.026 -0.02,-0.032c-0.01,-0.005 -0.032,-0.008 -0.065,-0.008l-0.02,-0l0,-0.023Zm0.205,0.014l-0,0.442c-0,0.066 0.001,0.108 0.003,0.127c0.003,0.019 0.01,0.032 0.022,0.04c0.012,0.007 0.038,0.011 0.078,0.011c0.057,0 0.105,-0.008 0.142,-0.024c0.037,-0.015 0.068,-0.047 0.093,-0.093c0.025,-0.046 0.037,-0.105 0.037,-0.177c0,-0.056 -0.007,-0.106 -0.022,-0.15c-0.014,-0.044 -0.035,-0.08 -0.062,-0.107c-0.027,-0.028 -0.057,-0.047 -0.09,-0.057c-0.033,-0.01 -0.075,-0.015 -0.126,-0.015c-0.025,0 -0.05,0.001 -0.075,0.003Z" style="fill-rule:nonzero;"/></g><rect x="115.68" y="464.156" width="53.484" height="2.391"/><g transform="matrix(48,0,0,48,115.68,531.351)"><path d="M0.343,-0.365c0.027,-0.031 0.055,-0.047 0.084,-0.047c0.015,0 0.028,0.005 0.036,0.013c0.009,0.009 0.013,0.018 0.013,0.028c0,0.021 -0.01,0.032 -0.029,0.032c-0.011,0 -0.02,-0.007 -0.028,-0.02c-0.007,-0.012 -0.015,-0.018 -0.023,-0.018c-0.012,-0 -0.026,0.008 -0.041,0.025c0.017,0.027 0.026,0.055 0.026,0.085c-0,0.039 -0.014,0.073 -0.042,0.103c-0.028,0.031 -0.075,0.047 -0.142,0.049c-0.069,0.003 -0.103,0.017 -0.103,0.042c-0,0.012 0.008,0.021 0.023,0.026c0.015,0.005 0.048,0.009 0.097,0.011c0.054,0.003 0.095,0.008 0.124,0.015c0.029,0.008 0.052,0.022 0.069,0.044c0.017,0.023 0.026,0.049 0.026,0.08c0,0.043 -0.017,0.077 -0.053,0.104c-0.035,0.026 -0.085,0.039 -0.151,0.039c-0.061,0 -0.11,-0.012 -0.146,-0.035c-0.036,-0.024 -0.055,-0.053 -0.055,-0.089c0,-0.02 0.006,-0.036 0.016,-0.049c0.01,-0.012 0.025,-0.019 0.044,-0.019c0.006,0 0.01,0.001 0.015,0.003c-0.021,0.022 -0.031,0.045 -0.031,0.07c0,0.029 0.014,0.052 0.041,0.071c0.026,0.019 0.067,0.028 0.12,0.028c0.047,0 0.084,-0.009 0.111,-0.028c0.027,-0.02 0.04,-0.044 0.04,-0.073c-0,-0.033 -0.012,-0.056 -0.036,-0.069c-0.024,-0.013 -0.066,-0.021 -0.127,-0.024c-0.07,-0.003 -0.115,-0.011 -0.136,-0.026c-0.021,-0.014 -0.031,-0.032 -0.031,-0.054c-0,-0.042 0.029,-0.069 0.089,-0.08c-0.031,-0.019 -0.054,-0.039 -0.07,-0.063c-0.015,-0.023 -0.023,-0.05 -0.023,-0.079c-0,-0.04 0.016,-0.075 0.048,-0.103c0.032,-0.029 0.07,-0.043 0.114,-0.043c0.054,-0 0.098,0.017 0.131,0.051Zm-0.22,0.107c0,0.042 0.009,0.072 0.026,0.092c0.017,0.02 0.039,0.029 0.066,0.029c0.025,0 0.046,-0.009 0.064,-0.029c0.017,-0.019 0.026,-0.053 0.026,-0.101c0,-0.048 -0.009,-0.081 -0.028,-0.099c-0.019,-0.018 -0.04,-0.028 -0.064,-0.028c-0.03,0 -0.053,0.012 -0.067,0.034c-0.015,0.023 -0.023,0.056 -0.023,0.102Z" style="fill-rule:nonzero;"/></g><g transform="matrix(48,0,0,48,138.18,531.351)"><path d="M0.067,-0.62c-0,-0.014 0.005,-0.026 0.015,-0.036c0.01,-0.01 0.022,-0.015 0.036,-0.015c0.014,-0 0.026,0.005 0.035,0.015c0.01,0.01 0.015,0.022 0.015,0.036c-0,0.014 -0.005,0.026 -0.015,0.037c-0.009,0.01 -0.021,0.015 -0.035,0.015c-0.014,-0 -0.026,-0.005 -0.036,-0.015c-0.01,-0.011 -0.015,-0.023 -0.015,-0.037Zm0.094,0.204l0,0.279c0,0.042 0.001,0.069 0.002,0.08c0.001,0.011 0.006,0.02 0.014,0.026c0.008,0.006 0.023,0.009 0.044,0.009l0.01,-0l-0,0.022l-0.215,-0l-0,-0.022l0.016,-0c0.023,-0 0.038,-0.004 0.045,-0.01c0.007,-0.007 0.011,-0.015 0.013,-0.024c0.001,-0.01 0.001,-0.037 0.001,-0.081l0,-0.121c0,-0.047 -0.002,-0.076 -0.006,-0.086c-0.005,-0.011 -0.011,-0.017 -0.018,-0.02c-0.007,-0.002 -0.02,-0.004 -0.038,-0.004l-0.013,0l-0,-0.022c0.058,-0.006 0.102,-0.015 0.134,-0.026l0.011,-0Z" style="fill-rule:nonzero;"/></g><g transform="matrix(48,0,0,48,150.18,531.351)"><path d="M0.243,0.016l-0.029,0l-0.142,-0.321c-0.014,-0.031 -0.025,-0.05 -0.033,-0.059c-0.008,-0.008 -0.021,-0.013 -0.04,-0.013l0,-0.023l0.181,0l-0,0.023c-0.02,-0 -0.034,0.001 -0.041,0.004c-0.007,0.004 -0.011,0.01 -0.011,0.019c-0,0.007 0.006,0.025 0.019,0.052l0.108,0.243l0.098,-0.216c0.015,-0.035 0.022,-0.057 0.022,-0.068c0,-0.022 -0.016,-0.033 -0.048,-0.034l-0,-0.023l0.134,0l0,0.023c-0.016,0.001 -0.03,0.007 -0.041,0.02c-0.012,0.013 -0.027,0.042 -0.047,0.087l-0.13,0.286Z" style="fill-rule:nonzero;"/></g><g transform="matrix(48,0,0,48,171.274,531.351)"><path d="M0.399,-0.265l-0.278,0c-0.002,0.02 -0.002,0.034 -0.002,0.043c-0,0.071 0.011,0.123 0.033,0.159c0.022,0.035 0.054,0.053 0.098,0.053c0.059,-0 0.101,-0.027 0.126,-0.08l0.023,0c-0.01,0.033 -0.031,0.059 -0.062,0.078c-0.031,0.019 -0.064,0.028 -0.101,0.028c-0.034,0 -0.066,-0.008 -0.096,-0.026c-0.03,-0.017 -0.054,-0.041 -0.074,-0.072c-0.019,-0.031 -0.028,-0.069 -0.028,-0.114c-0,-0.063 0.018,-0.115 0.055,-0.157c0.037,-0.042 0.084,-0.063 0.139,-0.063c0.053,-0 0.093,0.016 0.122,0.048c0.029,0.032 0.044,0.066 0.045,0.103Zm-0.085,-0.019c0.001,-0.008 0.001,-0.014 0.001,-0.02c0,-0.029 -0.008,-0.051 -0.025,-0.067c-0.016,-0.016 -0.037,-0.024 -0.061,-0.024c-0.06,0 -0.095,0.037 -0.106,0.111l0.191,-0Z" style="fill-rule:nonzero;"/></g><g transform="matrix(48,0,0,48,192.274,531.351)"><path d="M0.138,-0.416l0.013,-0c0.007,0.02 0.012,0.048 0.013,0.083c0.023,-0.028 0.048,-0.049 0.073,-0.063c0.026,-0.013 0.053,-0.02 0.081,-0.02c0.032,-0 0.058,0.007 0.078,0.02c0.021,0.013 0.034,0.03 0.04,0.049c0.005,0.019 0.008,0.048 0.008,0.085l0,0.125c0,0.046 0.001,0.074 0.003,0.084c0.001,0.01 0.007,0.018 0.015,0.023c0.009,0.005 0.025,0.008 0.048,0.008l-0,0.022l-0.205,0l0,-0.022l0.009,-0c0.024,-0 0.039,-0.004 0.046,-0.011c0.008,-0.007 0.012,-0.015 0.013,-0.024c0.001,-0.009 0.001,-0.036 0.001,-0.08l0,-0.129c0,-0.032 -0.002,-0.054 -0.005,-0.068c-0.003,-0.013 -0.011,-0.025 -0.025,-0.036c-0.013,-0.01 -0.03,-0.015 -0.051,-0.015c-0.024,-0 -0.046,0.007 -0.068,0.021c-0.022,0.014 -0.042,0.035 -0.061,0.064l-0,0.163c-0,0.046 0,0.074 0.002,0.084c0.002,0.01 0.007,0.018 0.016,0.023c0.009,0.005 0.025,0.008 0.048,0.008l-0,0.022l-0.202,-0l-0,-0.022c0.022,-0 0.038,-0.003 0.047,-0.007c0.008,-0.005 0.014,-0.012 0.016,-0.021c0.002,-0.009 0.003,-0.038 0.003,-0.087l0,-0.119c0,-0.047 -0.001,-0.075 -0.002,-0.085c-0.002,-0.01 -0.007,-0.017 -0.016,-0.023c-0.009,-0.005 -0.025,-0.007 -0.048,-0.007l-0,-0.023c0.036,-0.003 0.072,-0.011 0.11,-0.022Z" style="fill-rule:nonzero;"/></g><g transform="matrix(48,0,0,48,217.774,531.351)"><path d="M0.616,0.015l-0.469,-0.62l0,0.459c0,0.038 0.002,0.063 0.006,0.075c0.004,0.012 0.014,0.023 0.032,0.033c0.018,0.01 0.044,0.016 0.079,0.016l0,0.022l-0.247,-0l0,-0.022c0.032,-0.003 0.056,-0.009 0.072,-0.018c0.017,-0.009 0.027,-0.019 0.03,-0.03c0.003,-0.011 0.005,-0.036 0.005,-0.076l-0,-0.351c-0,-0.051 -0.003,-0.085 -0.008,-0.102c-0.004,-0.017 -0.012,-0.028 -0.022,-0.033c-0.01,-0.005 -0.033,-0.008 -0.069,-0.008l0,-0.022l0.196,-0l0.392,0.518l-0,-0.396c-0,-0.029 -0.003,-0.05 -0.009,-0.062c-0.006,-0.011 -0.019,-0.021 -0.037,-0.027c-0.019,-0.007 -0.041,-0.011 -0.067,-0.011l0,-0.022l0.24,-0l0,0.022c-0.028,0.003 -0.05,0.008 -0.066,0.016c-0.016,0.009 -0.026,0.019 -0.031,0.031c-0.004,0.012 -0.006,0.032 -0.006,0.06l-0,0.548l-0.021,0Z" style="fill-rule:nonzero;"/></g><g transform="matrix(48,0,0,48,253.774,531.351)"><path d="M0.44,-0.073l0.018,-0c-0.002,0.055 -0.03,0.083 -0.082,0.083c-0.022,0 -0.039,-0.006 -0.052,-0.017c-0.013,-0.012 -0.021,-0.029 -0.025,-0.053c-0.033,0.024 -0.062,0.041 -0.089,0.053c-0.027,0.011 -0.051,0.017 -0.072,0.017c-0.027,0 -0.051,-0.008 -0.07,-0.023c-0.02,-0.016 -0.029,-0.036 -0.029,-0.062c-0,-0.034 0.016,-0.063 0.049,-0.088c0.032,-0.025 0.078,-0.05 0.135,-0.073l0.076,-0.031l-0,-0.02c-0,-0.027 -0.002,-0.047 -0.006,-0.06c-0.003,-0.012 -0.012,-0.023 -0.027,-0.033c-0.015,-0.01 -0.035,-0.015 -0.059,-0.015c-0.049,0 -0.076,0.017 -0.082,0.049c-0.005,0.034 -0.019,0.05 -0.041,0.05c-0.02,0 -0.03,-0.009 -0.03,-0.028c0,-0.019 0.013,-0.039 0.04,-0.06c0.026,-0.021 0.067,-0.032 0.123,-0.032c0.041,-0 0.073,0.006 0.096,0.02c0.023,0.013 0.038,0.027 0.045,0.044c0.007,0.017 0.011,0.042 0.011,0.076l0,0.162c0,0.038 0.002,0.062 0.006,0.072c0.004,0.011 0.012,0.017 0.025,0.017c0.022,-0 0.035,-0.016 0.04,-0.048Zm-0.141,-0.171l-0.053,0.021c-0.084,0.035 -0.126,0.077 -0.126,0.129c-0,0.021 0.005,0.037 0.016,0.05c0.01,0.012 0.024,0.019 0.042,0.019c0.015,-0 0.033,-0.005 0.053,-0.016c0.02,-0.01 0.043,-0.025 0.068,-0.045l-0,-0.158Z" style="fill-rule:nonzero;"/></g><g transform="matrix(48,0,0,48,276.274,531.351)"><path d="M0.14,-0.416l0.005,-0c0.009,0.022 0.014,0.05 0.014,0.084c0.022,-0.028 0.046,-0.049 0.071,-0.063c0.025,-0.014 0.052,-0.021 0.081,-0.021c0.033,-0 0.06,0.007 0.08,0.022c0.021,0.015 0.035,0.038 0.043,0.068c0.025,-0.03 0.05,-0.053 0.076,-0.068c0.026,-0.015 0.053,-0.022 0.08,-0.022c0.031,-0 0.057,0.007 0.078,0.021c0.022,0.015 0.035,0.031 0.04,0.049c0.004,0.019 0.006,0.048 0.006,0.089l0,0.12c0,0.046 0.001,0.075 0.003,0.085c0.002,0.01 0.007,0.017 0.016,0.022c0.008,0.005 0.024,0.008 0.048,0.008l-0,0.022l-0.2,0l0,-0.022c0.021,-0 0.036,-0.003 0.045,-0.008c0.008,-0.004 0.014,-0.011 0.016,-0.021c0.002,-0.01 0.003,-0.038 0.003,-0.086l-0,-0.134c-0,-0.027 -0.002,-0.047 -0.005,-0.061c-0.003,-0.013 -0.011,-0.025 -0.024,-0.035c-0.013,-0.009 -0.03,-0.014 -0.051,-0.014c-0.021,-0 -0.042,0.007 -0.064,0.021c-0.021,0.014 -0.043,0.036 -0.064,0.065l0,0.158c0,0.042 0.001,0.069 0.002,0.08c0.001,0.011 0.005,0.019 0.013,0.026c0.008,0.006 0.023,0.009 0.043,0.009l0,0.022l-0.193,-0l-0,-0.022c0.022,-0 0.037,-0.003 0.045,-0.007c0.009,-0.005 0.014,-0.012 0.017,-0.021c0.002,-0.01 0.003,-0.039 0.003,-0.087l-0,-0.111c-0,-0.035 -0.002,-0.061 -0.004,-0.076c-0.003,-0.016 -0.012,-0.03 -0.026,-0.041c-0.014,-0.011 -0.031,-0.017 -0.052,-0.017c-0.02,0 -0.041,0.007 -0.062,0.02c-0.021,0.013 -0.042,0.032 -0.064,0.058l0,0.167c0,0.044 0.001,0.071 0.002,0.082c0.001,0.011 0.006,0.019 0.015,0.024c0.008,0.006 0.023,0.009 0.045,0.009l0,0.022l-0.196,-0l0,-0.022c0.022,-0 0.037,-0.003 0.046,-0.008c0.008,-0.004 0.013,-0.011 0.015,-0.021c0.002,-0.009 0.003,-0.038 0.003,-0.086l0,-0.12c0,-0.045 -0,-0.073 -0.002,-0.084c-0.001,-0.01 -0.006,-0.018 -0.015,-0.023c-0.009,-0.005 -0.024,-0.008 -0.047,-0.008l0,-0.022c0.047,-0.005 0.085,-0.012 0.115,-0.022Z" style="fill-rule:nonzero;"/></g><g transform="matrix(48,0,0,48,314.781,531.351)"><path d="M0.399,-0.265l-0.278,0c-0.002,0.02 -0.002,0.034 -0.002,0.043c-0,0.071 0.011,0.123 0.033,0.159c0.022,0.035 0.054,0.053 0.098,0.053c0.059,-0 0.101,-0.027 0.126,-0.08l0.023,0c-0.01,0.033 -0.031,0.059 -0.062,0.078c-0.031,0.019 -0.064,0.028 -0.101,0.028c-0.034,0 -0.066,-0.008 -0.096,-0.026c-0.03,-0.017 -0.054,-0.041 -0.074,-0.072c-0.019,-0.031 -0.028,-0.069 -0.028,-0.114c-0,-0.063 0.018,-0.115 0.055,-0.157c0.037,-0.042 0.084,-0.063 0.139,-0.063c0.053,-0 0.093,0.016 0.122,0.048c0.029,0.032 0.044,0.066 0.045,0.103Zm-0.085,-0.019c0.001,-0.008 0.001,-0.014 0.001,-0.02c0,-0.029 -0.008,-0.051 -0.025,-0.067c-0.016,-0.016 -0.037,-0.024 -0.061,-0.024c-0.06,0 -0.095,0.037 -0.106,0.111l0.191,-0Z" style="fill-rule:nonzero;"/></g><rect x="115.68" y="536.156" width="220.102" height="2.391"/><g transform="matrix(48,0,0,48,115.68,603.351)"><path d="M0.243,-0.4l0,0.023l-0.083,-0l-0,0.24c-0,0.042 0,0.069 0.001,0.08c0.002,0.011 0.006,0.02 0.014,0.026c0.008,0.006 0.023,0.009 0.044,0.009l0.021,-0l-0,0.022l-0.217,0l0,-0.022c0.023,-0 0.038,-0.003 0.047,-0.007c0.009,-0.005 0.014,-0.012 0.016,-0.021c0.002,-0.009 0.003,-0.038 0.003,-0.087l0,-0.24l-0.074,-0l-0,-0.023l0.074,0l0,-0.036c0,-0.04 0.002,-0.072 0.005,-0.094c0.003,-0.022 0.013,-0.045 0.028,-0.068c0.015,-0.024 0.034,-0.042 0.057,-0.055c0.023,-0.013 0.05,-0.019 0.082,-0.019c0.038,0 0.069,0.008 0.092,0.024c0.023,0.016 0.035,0.032 0.035,0.049c-0,0.009 -0.004,0.017 -0.01,0.023c-0.007,0.007 -0.014,0.01 -0.023,0.01c-0.017,-0 -0.033,-0.014 -0.047,-0.04c-0.016,-0.03 -0.037,-0.044 -0.062,-0.044c-0.021,-0 -0.039,0.007 -0.054,0.022c-0.016,0.015 -0.025,0.033 -0.028,0.055c-0.003,0.022 -0.004,0.07 -0.004,0.143l-0,0.03l0.083,0Z" style="fill-rule:nonzero;"/></g><g transform="matrix(48,0,0,48,128.688,603.351)"><path d="M0.44,-0.073l0.018,-0c-0.002,0.055 -0.03,0.083 -0.082,0.083c-0.022,0 -0.039,-0.006 -0.052,-0.017c-0.013,-0.012 -0.021,-0.029 -0.025,-0.053c-0.033,0.024 -0.062,0.041 -0.089,0.053c-0.027,0.011 -0.051,0.017 -0.072,0.017c-0.027,0 -0.051,-0.008 -0.07,-0.023c-0.02,-0.016 -0.029,-0.036 -0.029,-0.062c-0,-0.034 0.016,-0.063 0.049,-0.088c0.032,-0.025 0.078,-0.05 0.135,-0.073l0.076,-0.031l-0,-0.02c-0,-0.027 -0.002,-0.047 -0.006,-0.06c-0.003,-0.012 -0.012,-0.023 -0.027,-0.033c-0.015,-0.01 -0.035,-0.015 -0.059,-0.015c-0.049,0 -0.076,0.017 -0.082,0.049c-0.005,0.034 -0.019,0.05 -0.041,0.05c-0.02,0 -0.03,-0.009 -0.03,-0.028c0,-0.019 0.013,-0.039 0.04,-0.06c0.026,-0.021 0.067,-0.032 0.123,-0.032c0.041,-0 0.073,0.006 0.096,0.02c0.023,0.013 0.038,0.027 0.045,0.044c0.007,0.017 0.011,0.042 0.011,0.076l0,0.162c0,0.038 0.002,0.062 0.006,0.072c0.004,0.011 0.012,0.017 0.025,0.017c0.022,-0 0.035,-0.016 0.04,-0.048Zm-0.141,-0.171l-0.053,0.021c-0.084,0.035 -0.126,0.077 -0.126,0.129c-0,0.021 0.005,0.037 0.016,0.05c0.01,0.012 0.024,0.019 0.042,0.019c0.015,-0 0.033,-0.005 0.053,-0.016c0.02,-0.01 0.043,-0.025 0.068,-0.045l-0,-0.158Z" style="fill-rule:nonzero;"/></g><g transform="matrix(48,0,0,48,151.188,603.351)"><path d="M0.14,-0.416l0.005,-0c0.009,0.022 0.014,0.05 0.014,0.084c0.022,-0.028 0.046,-0.049 0.071,-0.063c0.025,-0.014 0.052,-0.021 0.081,-0.021c0.033,-0 0.06,0.007 0.08,0.022c0.021,0.015 0.035,0.038 0.043,0.068c0.025,-0.03 0.05,-0.053 0.076,-0.068c0.026,-0.015 0.053,-0.022 0.08,-0.022c0.031,-0 0.057,0.007 0.078,0.021c0.022,0.015 0.035,0.031 0.04,0.049c0.004,0.019 0.006,0.048 0.006,0.089l0,0.12c0,0.046 0.001,0.075 0.003,0.085c0.002,0.01 0.007,0.017 0.016,0.022c0.008,0.005 0.024,0.008 0.048,0.008l-0,0.022l-0.2,0l0,-0.022c0.021,-0 0.036,-0.003 0.045,-0.008c0.008,-0.004 0.014,-0.011 0.016,-0.021c0.002,-0.01 0.003,-0.038 0.003,-0.086l-0,-0.134c-0,-0.027 -0.002,-0.047 -0.005,-0.061c-0.003,-0.013 -0.011,-0.025 -0.024,-0.035c-0.013,-0.009 -0.03,-0.014 -0.051,-0.014c-0.021,-0 -0.042,0.007 -0.064,0.021c-0.021,0.014 -0.043,0.036 -0.064,0.065l0,0.158c0,0.042 0.001,0.069 0.002,0.08c0.001,0.011 0.005,0.019 0.013,0.026c0.008,0.006 0.023,0.009 0.043,0.009l0,0.022l-0.193,-0l-0,-0.022c0.022,-0 0.037,-0.003 0.045,-0.007c0.009,-0.005 0.014,-0.012 0.017,-0.021c0.002,-0.01 0.003,-0.039 0.003,-0.087l-0,-0.111c-0,-0.035 -0.002,-0.061 -0.004,-0.076c-0.003,-0.016 -0.012,-0.03 -0.026,-0.041c-0.014,-0.011 -0.031,-0.017 -0.052,-0.017c-0.02,0 -0.041,0.007 -0.062,0.02c-0.021,0.013 -0.042,0.032 -0.064,0.058l0,0.167c0,0.044 0.001,0.071 0.002,0.082c0.001,0.011 0.006,0.019 0.015,0.024c0.008,0.006 0.023,0.009 0.045,0.009l0,0.022l-0.196,-0l0,-0.022c0.022,-0 0.037,-0.003 0.046,-0.008c0.008,-0.004 0.013,-0.011 0.015,-0.021c0.002,-0.009 0.003,-0.038 0.003,-0.086l0,-0.12c0,-0.045 -0,-0.073 -0.002,-0.084c-0.001,-0.01 -0.006,-0.018 -0.015,-0.023c-0.009,-0.005 -0.024,-0.008 -0.047,-0.008l0,-0.022c0.047,-0.005 0.085,-0.012 0.115,-0.022Z" style="fill-rule:nonzero;"/></g><g transform="matrix(48,0,0,48,189.695,603.351)"><path d="M0.067,-0.62c-0,-0.014 0.005,-0.026 0.015,-0.036c0.01,-0.01 0.022,-0.015 0.036,-0.015c0.014,-0 0.026,0.005 0.035,0.015c0.01,0.01 0.015,0.022 0.015,0.036c-0,0.014 -0.005,0.026 -0.015,0.037c-0.009,0.01 -0.021,0.015 -0.035,0.015c-0.014,-0 -0.026,-0.005 -0.036,-0.015c-0.01,-0.011 -0.015,-0.023 -0.015,-0.037Zm0.094,0.204l0,0.279c0,0.042 0.001,0.069 0.002,0.08c0.001,0.011 0.006,0.02 0.014,0.026c0.008,0.006 0.023,0.009 0.044,0.009l0.01,-0l-0,0.022l-0.215,-0l-0,-0.022l0.016,-0c0.023,-0 0.038,-0.004 0.045,-0.01c0.007,-0.007 0.011,-0.015 0.013,-0.024c0.001,-0.01 0.001,-0.037 0.001,-0.081l0,-0.121c0,-0.047 -0.002,-0.076 -0.006,-0.086c-0.005,-0.011 -0.011,-0.017 -0.018,-0.02c-0.007,-0.002 -0.02,-0.004 -0.038,-0.004l-0.013,0l-0,-0.022c0.058,-0.006 0.102,-0.015 0.134,-0.026l0.011,-0Z" style="fill-rule:nonzero;"/></g><g transform="matrix(48,0,0,48,201.695,603.351)"><path d="M0.153,-0.671l0,0.534c0,0.042 0.001,0.069 0.002,0.08c0.001,0.011 0.006,0.02 0.014,0.026c0.008,0.006 0.023,0.009 0.043,0.009l0.012,-0l0,0.022l-0.214,0l0,-0.022l0.014,-0c0.019,-0 0.033,-0.003 0.042,-0.009c0.008,-0.005 0.013,-0.012 0.015,-0.022c0.001,-0.01 0.002,-0.038 0.002,-0.084l0,-0.396c0,-0.042 -0.004,-0.068 -0.011,-0.079c-0.008,-0.011 -0.026,-0.016 -0.055,-0.016l0,-0.023c0.02,0 0.043,-0.002 0.07,-0.007c0.027,-0.004 0.045,-0.009 0.056,-0.013l0.01,-0Z" style="fill-rule:nonzero;"/></g><g transform="matrix(48,0,0,48,213.203,603.351)"><path d="M0.259,-0.076l0.093,-0.222c0.013,-0.032 0.02,-0.05 0.02,-0.054c0,-0.016 -0.018,-0.025 -0.054,-0.025l-0,-0.023l0.14,0l0,0.023c-0.021,0.001 -0.037,0.006 -0.047,0.017c-0.01,0.01 -0.023,0.034 -0.038,0.07l-0.178,0.43c-0.017,0.041 -0.032,0.069 -0.045,0.084c-0.013,0.015 -0.027,0.022 -0.043,0.022c-0.021,0 -0.032,-0.01 -0.032,-0.029c0,-0.022 0.017,-0.041 0.051,-0.056c0.02,-0.009 0.033,-0.016 0.04,-0.022c0.006,-0.007 0.013,-0.018 0.02,-0.034l0.038,-0.095l-0.151,-0.323c-0.013,-0.028 -0.024,-0.046 -0.033,-0.053c-0.009,-0.008 -0.024,-0.011 -0.045,-0.011l0,-0.023l0.184,0l-0,0.023c-0.033,0.001 -0.049,0.007 -0.049,0.02c0,0.004 0.007,0.02 0.019,0.047l0.11,0.234Z" style="fill-rule:nonzero;"/></g><g transform="matrix(48,0,0,48,235.211,603.351)"><path d="M0.616,0.015l-0.469,-0.62l0,0.459c0,0.038 0.002,0.063 0.006,0.075c0.004,0.012 0.014,0.023 0.032,0.033c0.018,0.01 0.044,0.016 0.079,0.016l0,0.022l-0.247,-0l0,-0.022c0.032,-0.003 0.056,-0.009 0.072,-0.018c0.017,-0.009 0.027,-0.019 0.03,-0.03c0.003,-0.011 0.005,-0.036 0.005,-0.076l-0,-0.351c-0,-0.051 -0.003,-0.085 -0.008,-0.102c-0.004,-0.017 -0.012,-0.028 -0.022,-0.033c-0.01,-0.005 -0.033,-0.008 -0.069,-0.008l0,-0.022l0.196,-0l0.392,0.518l-0,-0.396c-0,-0.029 -0.003,-0.05 -0.009,-0.062c-0.006,-0.011 -0.019,-0.021 -0.037,-0.027c-0.019,-0.007 -0.041,-0.011 -0.067,-0.011l0,-0.022l0.24,-0l0,0.022c-0.028,0.003 -0.05,0.008 -0.066,0.016c-0.016,0.009 -0.026,0.019 -0.031,0.031c-0.004,0.012 -0.006,0.032 -0.006,0.06l-0,0.548l-0.021,0Z" style="fill-rule:nonzero;"/></g><g transform="matrix(48,0,0,48,271.211,603.351)"><path d="M0.44,-0.073l0.018,-0c-0.002,0.055 -0.03,0.083 -0.082,0.083c-0.022,0 -0.039,-0.006 -0.052,-0.017c-0.013,-0.012 -0.021,-0.029 -0.025,-0.053c-0.033,0.024 -0.062,0.041 -0.089,0.053c-0.027,0.011 -0.051,0.017 -0.072,0.017c-0.027,0 -0.051,-0.008 -0.07,-0.023c-0.02,-0.016 -0.029,-0.036 -0.029,-0.062c-0,-0.034 0.016,-0.063 0.049,-0.088c0.032,-0.025 0.078,-0.05 0.135,-0.073l0.076,-0.031l-0,-0.02c-0,-0.027 -0.002,-0.047 -0.006,-0.06c-0.003,-0.012 -0.012,-0.023 -0.027,-0.033c-0.015,-0.01 -0.035,-0.015 -0.059,-0.015c-0.049,0 -0.076,0.017 -0.082,0.049c-0.005,0.034 -0.019,0.05 -0.041,0.05c-0.02,0 -0.03,-0.009 -0.03,-0.028c0,-0.019 0.013,-0.039 0.04,-0.06c0.026,-0.021 0.067,-0.032 0.123,-0.032c0.041,-0 0.073,0.006 0.096,0.02c0.023,0.013 0.038,0.027 0.045,0.044c0.007,0.017 0.011,0.042 0.011,0.076l0,0.162c0,0.038 0.002,0.062 0.006,0.072c0.004,0.011 0.012,0.017 0.025,0.017c0.022,-0 0.035,-0.016 0.04,-0.048Zm-0.141,-0.171l-0.053,0.021c-0.084,0.035 -0.126,0.077 -0.126,0.129c-0,0.021 0.005,0.037 0.016,0.05c0.01,0.012 0.024,0.019 0.042,0.019c0.015,-0 0.033,-0.005 0.053,-0.016c0.02,-0.01 0.043,-0.025 0.068,-0.045l-0,-0.158Z" style="fill-rule:nonzero;"/></g><g transform="matrix(48,0,0,48,293.711,603.351)"><path d="M0.14,-0.416l0.005,-0c0.009,0.022 0.014,0.05 0.014,0.084c0.022,-0.028 0.046,-0.049 0.071,-0.063c0.025,-0.014 0.052,-0.021 0.081,-0.021c0.033,-0 0.06,0.007 0.08,0.022c0.021,0.015 0.035,0.038 0.043,0.068c0.025,-0.03 0.05,-0.053 0.076,-0.068c0.026,-0.015 0.053,-0.022 0.08,-0.022c0.031,-0 0.057,0.007 0.078,0.021c0.022,0.015 0.035,0.031 0.04,0.049c0.004,0.019 0.006,0.048 0.006,0.089l0,0.12c0,0.046 0.001,0.075 0.003,0.085c0.002,0.01 0.007,0.017 0.016,0.022c0.008,0.005 0.024,0.008 0.048,0.008l-0,0.022l-0.2,0l0,-0.022c0.021,-0 0.036,-0.003 0.045,-0.008c0.008,-0.004 0.014,-0.011 0.016,-0.021c0.002,-0.01 0.003,-0.038 0.003,-0.086l-0,-0.134c-0,-0.027 -0.002,-0.047 -0.005,-0.061c-0.003,-0.013 -0.011,-0.025 -0.024,-0.035c-0.013,-0.009 -0.03,-0.014 -0.051,-0.014c-0.021,-0 -0.042,0.007 -0.064,0.021c-0.021,0.014 -0.043,0.036 -0.064,0.065l0,0.158c0,0.042 0.001,0.069 0.002,0.08c0.001,0.011 0.005,0.019 0.013,0.026c0.008,0.006 0.023,0.009 0.043,0.009l0,0.022l-0.193,-0l-0,-0.022c0.022,-0 0.037,-0.003 0.045,-0.007c0.009,-0.005 0.014,-0.012 0.017,-0.021c0.002,-0.01 0.003,-0.039 0.003,-0.087l-0,-0.111c-0,-0.035 -0.002,-0.061 -0.004,-0.076c-0.003,-0.016 -0.012,-0.03 -0.026,-0.041c-0.014,-0.011 -0.031,-0.017 -0.052,-0.017c-0.02,0 -0.041,0.007 -0.062,0.02c-0.021,0.013 -0.042,0.032 -0.064,0.058l0,0.167c0,0.044 0.001,0.071 0.002,0.082c0.001,0.011 0.006,0.019 0.015,0.024c0.008,0.006 0.023,0.009 0.045,0.009l0,0.022l-0.196,-0l0,-0.022c0.022,-0 0.037,-0.003 0.046,-0.008c0.008,-0.004 0.013,-0.011 0.015,-0.021c0.002,-0.009 0.003,-0.038 0.003,-0.086l0,-0.12c0,-0.045 -0,-0.073 -0.002,-0.084c-0.001,-0.01 -0.006,-0.018 -0.015,-0.023c-0.009,-0.005 -0.024,-0.008 -0.047,-0.008l0,-0.022c0.047,-0.005 0.085,-0.012 0.115,-0.022Z" style="fill-rule:nonzero;"/></g><g transform="matrix(48,0,0,48,332.219,603.351)"><path d="M0.399,-0.265l-0.278,0c-0.002,0.02 -0.002,0.034 -0.002,0.043c-0,0.071 0.011,0.123 0.033,0.159c0.022,0.035 0.054,0.053 0.098,0.053c0.059,-0 0.101,-0.027 0.126,-0.08l0.023,0c-0.01,0.033 -0.031,0.059 -0.062,0.078c-0.031,0.019 -0.064,0.028 -0.101,0.028c-0.034,0 -0.066,-0.008 -0.096,-0.026c-0.03,-0.017 -0.054,-0.041 -0.074,-0.072c-0.019,-0.031 -0.028,-0.069 -0.028,-0.114c-0,-0.063 0.018,-0.115 0.055,-0.157c0.037,-0.042 0.084,-0.063 0.139,-0.063c0.053,-0 0.093,0.016 0.122,0.048c0.029,0.032 0.044,0.066 0.045,0.103Zm-0.085,-0.019c0.001,-0.008 0.001,-0.014 0.001,-0.02c0,-0.029 -0.008,-0.051 -0.025,-0.067c-0.016,-0.016 -0.037,-0.024 -0.061,-0.024c-0.06,0 -0.095,0.037 -0.106,0.111l0.191,-0Z" style="fill-rule:nonzero;"/></g><rect x="115.68" y="608.156" width="237.539" height="2.391"/><g transform="matrix(48,0,0,48,115.68,675.351)"><path d="M0.48,0.016l-0.022,-0l-0.119,-0.318l-0.122,0.318l-0.021,-0l-0.122,-0.318c-0.014,-0.036 -0.025,-0.058 -0.032,-0.065c-0.006,-0.007 -0.02,-0.01 -0.041,-0.01l0,-0.023l0.183,0l0,0.023c-0.02,-0 -0.034,0.001 -0.042,0.005c-0.007,0.004 -0.011,0.01 -0.011,0.019c-0,0.007 0.006,0.026 0.019,0.058l0.081,0.214l0.124,-0.319l0.019,0l0.12,0.319l0.088,-0.227c0.009,-0.024 0.014,-0.039 0.014,-0.044c0,-0.016 -0.016,-0.024 -0.049,-0.025l-0,-0.023l0.13,0l-0,0.023c-0.016,-0 -0.028,0.003 -0.037,0.009c-0.009,0.005 -0.017,0.018 -0.025,0.038l-0.011,0.028l-0.124,0.318Z" style="fill-rule:nonzero;"/></g><g transform="matrix(48,0,0,48,147.719,675.351)"><path d="M0.037,-0.201c0,-0.061 0.021,-0.112 0.062,-0.153c0.041,-0.041 0.091,-0.062 0.151,-0.062c0.06,-0 0.111,0.021 0.152,0.062c0.041,0.041 0.061,0.092 0.061,0.153c0,0.068 -0.02,0.121 -0.062,0.159c-0.042,0.039 -0.092,0.058 -0.151,0.058c-0.059,0 -0.109,-0.019 -0.151,-0.059c-0.041,-0.039 -0.062,-0.092 -0.062,-0.158Zm0.081,0.003c0,0.071 0.012,0.12 0.035,0.149c0.023,0.028 0.055,0.043 0.097,0.043c0.043,-0 0.075,-0.015 0.098,-0.043c0.023,-0.029 0.034,-0.078 0.034,-0.149c-0,-0.071 -0.011,-0.121 -0.034,-0.151c-0.022,-0.03 -0.055,-0.045 -0.098,-0.045c-0.043,0 -0.075,0.015 -0.098,0.045c-0.023,0.03 -0.034,0.08 -0.034,0.151Z" style="fill-rule:nonzero;"/></g><g transform="matrix(48,0,0,48,171.719,675.351)"><path d="M0.167,-0.314c0.011,-0.029 0.029,-0.053 0.053,-0.073c0.025,-0.019 0.05,-0.029 0.073,-0.029c0.022,-0 0.039,0.007 0.051,0.02c0.013,0.013 0.019,0.027 0.019,0.041c-0,0.009 -0.003,0.018 -0.01,0.024c-0.006,0.007 -0.014,0.011 -0.023,0.011c-0.016,-0 -0.029,-0.012 -0.037,-0.036c-0.006,-0.017 -0.015,-0.025 -0.026,-0.025c-0.014,0 -0.031,0.01 -0.051,0.029c-0.019,0.019 -0.032,0.039 -0.037,0.059c-0.006,0.021 -0.009,0.049 -0.009,0.085l0,0.071c0,0.042 0.001,0.069 0.002,0.08c0.001,0.011 0.006,0.02 0.014,0.026c0.008,0.006 0.023,0.009 0.043,0.009l0.014,-0l0,0.022l-0.212,-0l-0,-0.022l0.01,-0c0.02,-0 0.033,-0.003 0.042,-0.009c0.008,-0.005 0.013,-0.012 0.015,-0.022c0.001,-0.01 0.002,-0.038 0.002,-0.084l0,-0.113c0,-0.043 -0,-0.07 -0.002,-0.081c-0.001,-0.011 -0.005,-0.019 -0.014,-0.025c-0.008,-0.006 -0.022,-0.009 -0.043,-0.009l-0.01,-0l-0,-0.022c0.03,-0.004 0.07,-0.013 0.12,-0.029c0.009,0.026 0.015,0.06 0.016,0.102Z" style="fill-rule:nonzero;"/></g><g transform="matrix(48,0,0,48,188.313,675.351)"><path d="M0.264,-0.4l0.161,0l0,0.023c-0.029,0 -0.069,0.022 -0.119,0.066c-0.016,0.014 -0.041,0.034 -0.074,0.06l0.143,0.167c0.021,0.025 0.038,0.041 0.05,0.049c0.013,0.008 0.025,0.012 0.038,0.013l0,0.022l-0.199,-0l0,-0.022c0.033,-0.001 0.05,-0.008 0.05,-0.022c-0,-0.006 -0.011,-0.022 -0.033,-0.047l-0.102,-0.119l-0.021,0.015l-0,0.058c-0,0.042 0,0.069 0.001,0.08c0.002,0.011 0.006,0.019 0.014,0.026c0.008,0.006 0.023,0.009 0.043,0.009l-0,0.022l-0.203,0l0,-0.022l0.015,-0c0.024,-0 0.039,-0.004 0.046,-0.01c0.007,-0.007 0.011,-0.015 0.012,-0.024c0.001,-0.01 0.001,-0.037 0.001,-0.081l0,-0.401c0,-0.039 -0.003,-0.064 -0.011,-0.074c-0.007,-0.011 -0.025,-0.016 -0.053,-0.016l0,-0.023c0.02,0 0.043,-0.002 0.07,-0.007c0.026,-0.004 0.045,-0.009 0.054,-0.013l0.011,-0l-0,0.449l0.042,-0.029c0.068,-0.048 0.102,-0.083 0.102,-0.104c-0,-0.014 -0.013,-0.022 -0.038,-0.022l0,-0.023Z" style="fill-rule:nonzero;"/></g><g transform="matrix(48,0,0,48,210.32,675.351)"><path d="M0.041,0.013l-0,-0.132l0.019,0c0.022,0.076 0.061,0.114 0.118,0.114c0.025,0 0.043,-0.007 0.056,-0.022c0.012,-0.015 0.018,-0.032 0.018,-0.05c-0,-0.02 -0.007,-0.038 -0.02,-0.051c-0.013,-0.013 -0.039,-0.029 -0.077,-0.048c-0.041,-0.02 -0.07,-0.04 -0.087,-0.059c-0.018,-0.019 -0.026,-0.042 -0.026,-0.07c-0,-0.026 0.009,-0.051 0.028,-0.075c0.019,-0.024 0.045,-0.036 0.079,-0.036c0.035,-0 0.064,0.014 0.087,0.042c0.005,-0.004 0.011,-0.016 0.019,-0.035l0.018,-0l-0,0.123l-0.018,0c-0.007,-0.029 -0.019,-0.055 -0.038,-0.076c-0.019,-0.021 -0.041,-0.032 -0.066,-0.032c-0.02,-0 -0.035,0.006 -0.047,0.018c-0.013,0.012 -0.019,0.026 -0.019,0.042c0,0.018 0.007,0.033 0.02,0.045c0.013,0.013 0.038,0.028 0.075,0.045c0.056,0.025 0.089,0.049 0.102,0.073c0.012,0.024 0.018,0.047 0.018,0.069c0,0.035 -0.011,0.064 -0.034,0.085c-0.023,0.022 -0.052,0.033 -0.087,0.033c-0.037,0 -0.069,-0.015 -0.098,-0.045c-0.009,0.009 -0.016,0.023 -0.021,0.042l-0.019,-0Z" style="fill-rule:nonzero;"/></g><g transform="matrix(48,0,0,48,226.328,675.351)"><path d="M0.542,-0.662l0.006,0.165l-0.023,-0c-0.005,-0.036 -0.015,-0.066 -0.031,-0.09c-0.015,-0.023 -0.032,-0.038 -0.049,-0.044c-0.017,-0.006 -0.047,-0.009 -0.088,-0.009l-0.129,0l0,0.281l0.062,0c0.04,0 0.067,-0.007 0.08,-0.02c0.013,-0.014 0.02,-0.041 0.02,-0.081l0.024,-0l0,0.233l-0.024,-0c-0,-0.028 -0.003,-0.051 -0.009,-0.067c-0.006,-0.017 -0.014,-0.028 -0.025,-0.034c-0.012,-0.006 -0.033,-0.009 -0.066,-0.009l-0.062,0l0,0.165c0,0.052 0.001,0.086 0.004,0.102c0.003,0.016 0.009,0.028 0.02,0.036c0.01,0.008 0.031,0.012 0.061,0.012l0.022,-0l0,0.022l-0.307,0l-0,-0.022l0.02,-0c0.029,-0 0.048,-0.004 0.059,-0.011c0.011,-0.007 0.018,-0.019 0.021,-0.034c0.003,-0.015 0.005,-0.05 0.005,-0.105l-0,-0.325c-0,-0.053 -0.002,-0.087 -0.005,-0.102c-0.003,-0.015 -0.009,-0.026 -0.019,-0.032c-0.01,-0.006 -0.032,-0.009 -0.066,-0.009l-0.011,0l-0,-0.022l0.51,-0Z" style="fill-rule:nonzero;"/></g><g transform="matrix(48,0,0,48,248.383,675.351)"><path d="M0.037,-0.201c0,-0.061 0.021,-0.112 0.062,-0.153c0.041,-0.041 0.091,-0.062 0.151,-0.062c0.06,-0 0.111,0.021 0.152,0.062c0.041,0.041 0.061,0.092 0.061,0.153c0,0.068 -0.02,0.121 -0.062,0.159c-0.042,0.039 -0.092,0.058 -0.151,0.058c-0.059,0 -0.109,-0.019 -0.151,-0.059c-0.041,-0.039 -0.062,-0.092 -0.062,-0.158Zm0.081,0.003c0,0.071 0.012,0.12 0.035,0.149c0.023,0.028 0.055,0.043 0.097,0.043c0.043,-0 0.075,-0.015 0.098,-0.043c0.023,-0.029 0.034,-0.078 0.034,-0.149c-0,-0.071 -0.011,-0.121 -0.034,-0.151c-0.022,-0.03 -0.055,-0.045 -0.098,-0.045c-0.043,0 -0.075,0.015 -0.098,0.045c-0.023,0.03 -0.034,0.08 -0.034,0.151Z" style="fill-rule:nonzero;"/></g><g transform="matrix(48,0,0,48,272.383,675.351)"><path d="M0.167,-0.314c0.011,-0.029 0.029,-0.053 0.053,-0.073c0.025,-0.019 0.05,-0.029 0.073,-0.029c0.022,-0 0.039,0.007 0.051,0.02c0.013,0.013 0.019,0.027 0.019,0.041c-0,0.009 -0.003,0.018 -0.01,0.024c-0.006,0.007 -0.014,0.011 -0.023,0.011c-0.016,-0 -0.029,-0.012 -0.037,-0.036c-0.006,-0.017 -0.015,-0.025 -0.026,-0.025c-0.014,0 -0.031,0.01 -0.051,0.029c-0.019,0.019 -0.032,0.039 -0.037,0.059c-0.006,0.021 -0.009,0.049 -0.009,0.085l0,0.071c0,0.042 0.001,0.069 0.002,0.08c0.001,0.011 0.006,0.02 0.014,0.026c0.008,0.006 0.023,0.009 0.043,0.009l0.014,-0l0,0.022l-0.212,-0l-0,-0.022l0.01,-0c0.02,-0 0.033,-0.003 0.042,-0.009c0.008,-0.005 0.013,-0.012 0.015,-0.022c0.001,-0.01 0.002,-0.038 0.002,-0.084l0,-0.113c0,-0.043 -0,-0.07 -0.002,-0.081c-0.001,-0.011 -0.005,-0.019 -0.014,-0.025c-0.008,-0.006 -0.022,-0.009 -0.043,-0.009l-0.01,-0l-0,-0.022c0.03,-0.004 0.07,-0.013 0.12,-0.029c0.009,0.026 0.015,0.06 0.016,0.102Z" style="fill-rule:nonzero;"/></g><rect x="115.68" y="680.156" width="174.211" height="2.391"/></g></g><g><g transform="matrix(1,0,0,1,759.916,-185.224)"><g transform="matrix(48,0,0,48,115.68,339.351)"><path d="M0.157,-0.143c-0.036,-0.009 -0.063,-0.026 -0.083,-0.051c-0.02,-0.025 -0.03,-0.052 -0.03,-0.08c0,-0.046 0.02,-0.081 0.06,-0.105c0.04,-0.024 0.091,-0.036 0.153,-0.036c0.035,-0 0.065,0.003 0.091,0.01c0.026,0.007 0.047,0.018 0.065,0.032c0.034,-0.029 0.062,-0.043 0.086,-0.043c0.032,-0 0.048,0.016 0.048,0.047c0,0.027 -0.011,0.04 -0.033,0.04c-0.008,0 -0.02,-0.006 -0.034,-0.018c-0.006,-0.004 -0.011,-0.007 -0.016,-0.007c-0.006,0 -0.014,0.004 -0.022,0.012c0.012,0.02 0.018,0.043 0.018,0.068c0,0.039 -0.015,0.073 -0.046,0.1c-0.032,0.028 -0.088,0.044 -0.169,0.047c-0.034,0.001 -0.057,0.005 -0.07,0.011c-0.013,0.006 -0.02,0.015 -0.02,0.027c0,0.017 0.021,0.026 0.064,0.026c0.009,0 0.03,-0.001 0.063,-0.002c0.011,-0 0.023,-0 0.034,-0c0.071,-0 0.123,0.011 0.154,0.033c0.032,0.022 0.048,0.058 0.048,0.107c-0,0.051 -0.022,0.092 -0.066,0.124c-0.044,0.033 -0.111,0.049 -0.2,0.049c-0.085,-0 -0.142,-0.011 -0.173,-0.033c-0.031,-0.021 -0.047,-0.045 -0.047,-0.072c0,-0.017 0.006,-0.031 0.017,-0.042c0.011,-0.011 0.024,-0.016 0.039,-0.016c0.012,-0 0.025,0.004 0.041,0.011c-0.002,0.006 -0.004,0.012 -0.005,0.017c-0.001,0.005 -0.002,0.01 -0.002,0.015c0,0.023 0.011,0.04 0.034,0.051c0.023,0.012 0.057,0.017 0.103,0.017c0.056,0 0.099,-0.008 0.127,-0.024c0.028,-0.016 0.042,-0.035 0.042,-0.058c0,-0.022 -0.009,-0.036 -0.029,-0.042c-0.019,-0.006 -0.063,-0.009 -0.132,-0.009c-0.075,0 -0.13,-0.007 -0.162,-0.023c-0.033,-0.016 -0.049,-0.043 -0.049,-0.081c-0,-0.026 0.008,-0.048 0.025,-0.065c0.017,-0.017 0.042,-0.029 0.076,-0.037Zm0.039,-0.135c0,0.031 0.005,0.054 0.015,0.07c0.01,0.016 0.025,0.024 0.044,0.024c0.019,-0 0.033,-0.008 0.043,-0.024c0.009,-0.017 0.014,-0.041 0.014,-0.074c0,-0.028 -0.006,-0.049 -0.017,-0.061c-0.011,-0.013 -0.025,-0.019 -0.041,-0.019c-0.019,-0 -0.034,0.007 -0.043,0.021c-0.01,0.014 -0.015,0.035 -0.015,0.063Z" style="fill-rule:nonzero;"/></g><g transform="matrix(48,0,0,48,141.672,339.351)"><path d="M0.085,-0.585c0,-0.025 0.009,-0.045 0.026,-0.063c0.018,-0.017 0.038,-0.026 0.062,-0.026c0.025,0 0.045,0.009 0.062,0.026c0.017,0.017 0.026,0.038 0.026,0.063c-0,0.024 -0.009,0.045 -0.026,0.062c-0.017,0.017 -0.038,0.026 -0.062,0.026c-0.025,-0 -0.046,-0.009 -0.062,-0.027c-0.017,-0.017 -0.026,-0.038 -0.026,-0.061Zm0.165,0.169l0,0.299c0,0.025 0.004,0.042 0.012,0.051c0.008,0.01 0.026,0.014 0.054,0.014l0,0.052l-0.298,-0l-0,-0.052l0.011,0c0.027,0 0.045,-0.005 0.052,-0.014c0.008,-0.01 0.011,-0.027 0.011,-0.051l0,-0.145c0,-0.024 -0.003,-0.041 -0.011,-0.051c-0.007,-0.009 -0.025,-0.014 -0.052,-0.014l-0.011,-0l-0,-0.052l0.232,-0.037Z" style="fill-rule:nonzero;"/></g><g transform="matrix(48,0,0,48,157.68,339.351)"><path d="M0.21,0.007l-0.139,-0.277c-0.018,-0.036 -0.032,-0.058 -0.04,-0.066c-0.009,-0.008 -0.021,-0.012 -0.037,-0.012l0,-0.052l0.261,0l0,0.052c-0.03,-0 -0.045,0.006 -0.045,0.019c-0,0.004 0.004,0.013 0.012,0.029l0.086,0.171l0.088,-0.178c0.005,-0.01 0.007,-0.016 0.007,-0.021c-0,-0.013 -0.014,-0.02 -0.041,-0.02l-0,-0.052l0.153,0l0,0.052c-0.015,-0 -0.027,0.004 -0.036,0.013c-0.009,0.009 -0.024,0.035 -0.046,0.079l-0.133,0.263l-0.09,-0Z" style="fill-rule:nonzero;"/></g><g transform="matrix(48,0,0,48,182.172,339.351)"><path d="M0.213,-0.205c0,0.053 0.009,0.093 0.027,0.12c0.019,0.027 0.046,0.04 0.082,0.04c0.038,0 0.074,-0.019 0.106,-0.059l0.045,0.028c-0.018,0.027 -0.045,0.049 -0.08,0.066c-0.034,0.017 -0.073,0.026 -0.115,0.026c-0.064,0 -0.119,-0.019 -0.165,-0.059c-0.046,-0.039 -0.069,-0.092 -0.069,-0.159c-0,-0.066 0.022,-0.119 0.067,-0.157c0.044,-0.038 0.097,-0.057 0.16,-0.057c0.063,-0 0.114,0.017 0.155,0.052c0.04,0.035 0.06,0.088 0.06,0.159l-0.273,0Zm-0,-0.049l0.123,0c-0.002,-0.072 -0.023,-0.108 -0.063,-0.108c-0.02,0 -0.035,0.009 -0.045,0.027c-0.01,0.018 -0.015,0.045 -0.015,0.081Z" style="fill-rule:nonzero;"/></g><g transform="matrix(48,0,0,48,207.18,339.351)"><path d="M0.247,-0.274l0,0.158c0,0.023 0.003,0.039 0.01,0.049c0.007,0.01 0.019,0.015 0.037,0.015l-0,0.052l-0.273,0l-0,-0.052c0.028,0 0.046,-0.004 0.054,-0.013c0.008,-0.009 0.011,-0.026 0.011,-0.051l0,-0.136c0,-0.025 -0.003,-0.042 -0.011,-0.051c-0.008,-0.01 -0.026,-0.014 -0.054,-0.014l-0,-0.052l0.216,-0.036c0.006,0.013 0.009,0.032 0.01,0.059c0.022,-0.024 0.044,-0.041 0.068,-0.053c0.023,-0.011 0.048,-0.017 0.073,-0.017c0.046,-0 0.082,0.013 0.108,0.038c0.026,0.025 0.039,0.06 0.039,0.104l-0,0.158c-0,0.025 0.004,0.041 0.012,0.051c0.008,0.009 0.025,0.013 0.052,0.013l-0,0.052l-0.272,0l-0,-0.052c0.013,-0 0.025,-0.004 0.034,-0.011c0.009,-0.008 0.014,-0.025 0.014,-0.053l0,-0.146c0,-0.027 -0.004,-0.045 -0.011,-0.055c-0.007,-0.01 -0.018,-0.015 -0.031,-0.015c-0.014,0 -0.028,0.005 -0.042,0.015c-0.015,0.009 -0.029,0.023 -0.044,0.043Z" style="fill-rule:nonzero;"/></g><g transform="matrix(48,0,0,48,236.172,339.351)"><path d="M0.18,-0.474l0,0.305c0,0.048 0.009,0.08 0.027,0.094c0.018,0.014 0.04,0.021 0.068,0.021l-0,0.054l-0.249,0l0,-0.054c0.022,-0 0.04,-0.005 0.056,-0.016c0.015,-0.01 0.025,-0.022 0.029,-0.035c0.005,-0.014 0.007,-0.035 0.007,-0.064l-0,-0.338c-0,-0.067 -0.032,-0.101 -0.095,-0.101l-0,-0.054l0.224,-0l0.362,0.405l0,-0.243c0,-0.072 -0.03,-0.108 -0.091,-0.108l0,-0.054l0.238,-0l-0,0.054c-0.017,0 -0.032,0.005 -0.047,0.014c-0.014,0.009 -0.024,0.021 -0.029,0.035c-0.006,0.014 -0.008,0.034 -0.008,0.061l-0,0.509l-0.063,-0l-0.429,-0.485Z" style="fill-rule:nonzero;"/></g><g transform="matrix(48,0,0,48,273.672,339.351)"><path d="M0.316,-0.042c-0.023,0.017 -0.048,0.03 -0.074,0.038c-0.026,0.009 -0.053,0.013 -0.081,0.013c-0.038,0 -0.066,-0.008 -0.085,-0.025c-0.018,-0.017 -0.028,-0.038 -0.028,-0.063c0,-0.036 0.019,-0.067 0.056,-0.094c0.038,-0.028 0.106,-0.058 0.204,-0.091l-0,-0.036c-0,-0.026 -0.007,-0.043 -0.019,-0.05c-0.012,-0.007 -0.027,-0.011 -0.044,-0.011c-0.041,0 -0.064,0.015 -0.068,0.045c-0.003,0.021 -0.01,0.035 -0.02,0.045c-0.01,0.009 -0.025,0.014 -0.045,0.014c-0.019,-0 -0.033,-0.005 -0.044,-0.015c-0.011,-0.01 -0.017,-0.022 -0.017,-0.035c0,-0.03 0.02,-0.056 0.06,-0.077c0.04,-0.021 0.094,-0.032 0.161,-0.032c0.037,-0 0.069,0.002 0.094,0.007c0.025,0.004 0.046,0.013 0.061,0.025c0.015,0.013 0.026,0.026 0.031,0.039c0.005,0.014 0.007,0.033 0.007,0.056l0,0.185c0,0.028 0.009,0.042 0.026,0.042c0.014,0 0.024,-0.009 0.028,-0.027l0.04,0c-0.001,0.034 -0.013,0.058 -0.037,0.074c-0.023,0.016 -0.052,0.024 -0.085,0.024c-0.059,0 -0.1,-0.017 -0.121,-0.051Zm-0.008,-0.053l-0,-0.114c-0.046,0.018 -0.075,0.035 -0.089,0.051c-0.014,0.015 -0.021,0.031 -0.021,0.047c0,0.013 0.004,0.024 0.012,0.034c0.009,0.01 0.019,0.015 0.033,0.015c0.011,-0 0.023,-0.003 0.033,-0.009c0.011,-0.005 0.022,-0.013 0.032,-0.024Z" style="fill-rule:nonzero;"/></g><g transform="matrix(48,0,0,48,300.672,339.351)"><path d="M0.246,-0.27l-0,0.154c-0,0.025 0.004,0.041 0.011,0.051c0.008,0.009 0.025,0.013 0.05,0.013l-0,0.052l-0.295,0l0,-0.052l0.013,0c0.028,0 0.045,-0.005 0.053,-0.014c0.007,-0.01 0.01,-0.026 0.01,-0.05l0,-0.136c0,-0.025 -0.004,-0.042 -0.011,-0.051c-0.008,-0.01 -0.027,-0.014 -0.056,-0.014l0,-0.052l0.216,-0.036c0.006,0.015 0.009,0.036 0.009,0.064c0.022,-0.025 0.047,-0.044 0.075,-0.056c0.028,-0.013 0.059,-0.019 0.093,-0.019c0.037,-0 0.068,0.007 0.092,0.021c0.024,0.014 0.041,0.036 0.052,0.064c0.02,-0.028 0.044,-0.05 0.072,-0.064c0.028,-0.014 0.059,-0.021 0.094,-0.021c0.029,-0 0.055,0.005 0.079,0.016c0.024,0.01 0.042,0.024 0.054,0.039c0.013,0.016 0.021,0.032 0.025,0.048c0.004,0.016 0.006,0.038 0.006,0.068l0,0.129c0,0.026 0.004,0.043 0.013,0.051c0.008,0.009 0.028,0.013 0.058,0.013l0,0.052l-0.289,0l0,-0.052c0.025,0 0.042,-0.004 0.049,-0.014c0.007,-0.009 0.011,-0.026 0.011,-0.05l-0,-0.14c-0,-0.027 -0.005,-0.048 -0.015,-0.061c-0.01,-0.014 -0.026,-0.021 -0.046,-0.021c-0.019,0 -0.037,0.006 -0.054,0.017c-0.017,0.012 -0.033,0.029 -0.048,0.051l0,0.154c0,0.024 0.004,0.041 0.012,0.05c0.008,0.01 0.024,0.014 0.049,0.014l0,0.052l-0.277,0l-0,-0.052c0.024,-0 0.039,-0.005 0.047,-0.014c0.007,-0.009 0.011,-0.026 0.011,-0.05l0,-0.139c0,-0.027 -0.005,-0.047 -0.015,-0.061c-0.01,-0.013 -0.025,-0.02 -0.045,-0.02c-0.017,0 -0.035,0.006 -0.052,0.017c-0.017,0.011 -0.034,0.027 -0.051,0.049Z" style="fill-rule:nonzero;"/></g><g transform="matrix(48,0,0,48,346.68,339.351)"><path d="M0.213,-0.205c0,0.053 0.009,0.093 0.027,0.12c0.019,0.027 0.046,0.04 0.082,0.04c0.038,0 0.074,-0.019 0.106,-0.059l0.045,0.028c-0.018,0.027 -0.045,0.049 -0.08,0.066c-0.034,0.017 -0.073,0.026 -0.115,0.026c-0.064,0 -0.119,-0.019 -0.165,-0.059c-0.046,-0.039 -0.069,-0.092 -0.069,-0.159c-0,-0.066 0.022,-0.119 0.067,-0.157c0.044,-0.038 0.097,-0.057 0.16,-0.057c0.063,-0 0.114,0.017 0.155,0.052c0.04,0.035 0.06,0.088 0.06,0.159l-0.273,0Zm-0,-0.049l0.123,0c-0.002,-0.072 -0.023,-0.108 -0.063,-0.108c-0.02,0 -0.035,0.009 -0.045,0.027c-0.01,0.018 -0.015,0.045 -0.015,0.081Z" style="fill-rule:nonzero;"/></g><g transform="matrix(48,0,0,48,115.68,411.351)"><path d="M0.026,-0.64l-0,-0.022l0.303,-0l-0,0.022l-0.015,0c-0.032,0 -0.053,0.003 -0.064,0.008c-0.01,0.006 -0.016,0.016 -0.02,0.03c-0.003,0.015 -0.005,0.05 -0.005,0.105l0,0.325c0,0.052 0.001,0.086 0.004,0.102c0.002,0.016 0.009,0.028 0.019,0.036c0.011,0.008 0.031,0.012 0.061,0.012l0.02,-0l-0,0.022l-0.303,-0l-0,-0.022l0.019,-0c0.029,-0 0.048,-0.004 0.059,-0.011c0.011,-0.007 0.018,-0.019 0.021,-0.034c0.003,-0.015 0.004,-0.05 0.004,-0.105l0,-0.325c0,-0.053 -0.001,-0.087 -0.004,-0.102c-0.003,-0.015 -0.009,-0.026 -0.02,-0.032c-0.01,-0.006 -0.031,-0.009 -0.065,-0.009l-0.014,0Z" style="fill-rule:nonzero;"/></g><g transform="matrix(48,0,0,48,132.672,411.351)"><path d="M0.023,-0.657l0.109,-0.005c0.091,-0.005 0.152,-0.007 0.184,-0.007c0.098,0 0.175,0.015 0.23,0.045c0.055,0.03 0.096,0.071 0.123,0.122c0.027,0.051 0.04,0.11 0.04,0.177c-0,0.049 -0.007,0.093 -0.022,0.133c-0.015,0.041 -0.035,0.074 -0.06,0.1c-0.026,0.027 -0.055,0.047 -0.089,0.061c-0.034,0.014 -0.066,0.022 -0.096,0.026c-0.03,0.003 -0.073,0.005 -0.128,0.005l-0.293,-0l-0,-0.022l0.027,-0c0.028,-0 0.048,-0.004 0.059,-0.011c0.011,-0.007 0.018,-0.019 0.021,-0.034c0.003,-0.015 0.004,-0.05 0.004,-0.105l0,-0.32c0,-0.052 -0.001,-0.087 -0.004,-0.102c-0.003,-0.015 -0.01,-0.026 -0.02,-0.032c-0.01,-0.005 -0.032,-0.008 -0.065,-0.008l-0.02,-0l0,-0.023Zm0.205,0.014l-0,0.442c-0,0.066 0.001,0.108 0.003,0.127c0.003,0.019 0.01,0.032 0.022,0.04c0.012,0.007 0.038,0.011 0.078,0.011c0.057,0 0.105,-0.008 0.142,-0.024c0.037,-0.015 0.068,-0.047 0.093,-0.093c0.025,-0.046 0.037,-0.105 0.037,-0.177c0,-0.056 -0.007,-0.106 -0.022,-0.15c-0.014,-0.044 -0.035,-0.08 -0.062,-0.107c-0.027,-0.028 -0.057,-0.047 -0.09,-0.057c-0.033,-0.01 -0.075,-0.015 -0.126,-0.015c-0.025,0 -0.05,0.001 -0.075,0.003Z" style="fill-rule:nonzero;"/></g><rect x="115.68" y="416.156" width="53.484" height="2.391"/><g transform="matrix(48,0,0,48,115.68,483.351)"><path d="M0.274,-0.377l-0.12,-0l-0,0.241c-0,0.037 0.001,0.062 0.005,0.075c0.003,0.013 0.01,0.023 0.02,0.031c0.011,0.008 0.022,0.012 0.034,0.012c0.024,-0 0.044,-0.013 0.061,-0.04l0.016,0.009c-0.01,0.022 -0.025,0.038 -0.045,0.049c-0.019,0.011 -0.039,0.016 -0.059,0.016c-0.024,0 -0.044,-0.007 -0.062,-0.021c-0.018,-0.013 -0.029,-0.03 -0.033,-0.048c-0.005,-0.019 -0.007,-0.051 -0.007,-0.098l-0,-0.226l-0.058,-0l-0,-0.023c0.027,-0.001 0.05,-0.012 0.072,-0.034c0.021,-0.021 0.034,-0.052 0.04,-0.091l0.016,-0l-0,0.125l0.12,0l0,0.023Z" style="fill-rule:nonzero;"/></g><g transform="matrix(48,0,0,48,129.672,483.351)"><path d="M0.399,-0.265l-0.278,0c-0.002,0.02 -0.002,0.034 -0.002,0.043c-0,0.071 0.011,0.123 0.033,0.159c0.022,0.035 0.054,0.053 0.098,0.053c0.059,-0 0.101,-0.027 0.126,-0.08l0.023,0c-0.01,0.033 -0.031,0.059 -0.062,0.078c-0.031,0.019 -0.064,0.028 -0.101,0.028c-0.034,0 -0.066,-0.008 -0.096,-0.026c-0.03,-0.017 -0.054,-0.041 -0.074,-0.072c-0.019,-0.031 -0.028,-0.069 -0.028,-0.114c-0,-0.063 0.018,-0.115 0.055,-0.157c0.037,-0.042 0.084,-0.063 0.139,-0.063c0.053,-0 0.093,0.016 0.122,0.048c0.029,0.032 0.044,0.066 0.045,0.103Zm-0.085,-0.019c0.001,-0.008 0.001,-0.014 0.001,-0.02c0,-0.029 -0.008,-0.051 -0.025,-0.067c-0.016,-0.016 -0.037,-0.024 -0.061,-0.024c-0.06,0 -0.095,0.037 -0.106,0.111l0.191,-0Z" style="fill-rule:nonzero;"/></g><g transform="matrix(48,0,0,48,150.203,483.351)"><path d="M0.268,-0.227l0.112,0.141c0.02,0.024 0.036,0.041 0.049,0.05c0.013,0.008 0.028,0.013 0.046,0.014l0,0.022l-0.2,-0l0,-0.022c0.033,-0 0.05,-0.007 0.05,-0.02c-0,-0.005 -0.008,-0.016 -0.023,-0.033l-0.079,-0.098l-0.073,0.087c-0.018,0.02 -0.027,0.033 -0.027,0.039c0,0.016 0.018,0.024 0.054,0.025l0,0.022l-0.164,-0l-0,-0.022c0.014,-0 0.03,-0.004 0.047,-0.012c0.017,-0.007 0.04,-0.027 0.067,-0.059l0.082,-0.098l-0.088,-0.112c-0.025,-0.032 -0.044,-0.052 -0.057,-0.061c-0.013,-0.009 -0.028,-0.013 -0.046,-0.013l0,-0.023l0.189,0l-0,0.023c-0.027,-0 -0.041,0.006 -0.041,0.018c0,0.005 0.006,0.015 0.018,0.029l0.07,0.087l0.065,-0.076c0.015,-0.017 0.022,-0.028 0.022,-0.033c0,-0.017 -0.018,-0.025 -0.053,-0.025l-0,-0.023l0.158,0l0,0.023c-0.032,0.001 -0.065,0.021 -0.099,0.06l-0.079,0.09Z" style="fill-rule:nonzero;"/></g><g transform="matrix(48,0,0,48,173.195,483.351)"><path d="M0.274,-0.377l-0.12,-0l-0,0.241c-0,0.037 0.001,0.062 0.005,0.075c0.003,0.013 0.01,0.023 0.02,0.031c0.011,0.008 0.022,0.012 0.034,0.012c0.024,-0 0.044,-0.013 0.061,-0.04l0.016,0.009c-0.01,0.022 -0.025,0.038 -0.045,0.049c-0.019,0.011 -0.039,0.016 -0.059,0.016c-0.024,0 -0.044,-0.007 -0.062,-0.021c-0.018,-0.013 -0.029,-0.03 -0.033,-0.048c-0.005,-0.019 -0.007,-0.051 -0.007,-0.098l-0,-0.226l-0.058,-0l-0,-0.023c0.027,-0.001 0.05,-0.012 0.072,-0.034c0.021,-0.021 0.034,-0.052 0.04,-0.091l0.016,-0l-0,0.125l0.12,0l0,0.023Z" style="fill-rule:nonzero;"/></g><rect x="115.68" y="488.156" width="71.508" height="2.391"/></g><g transform="matrix(1,0,0,1,759.916,84.7757)"><g transform="matrix(48,0,0,48,115.68,339.351)"><path d="M0.253,-0.347l0,0.23c0,0.024 0.004,0.041 0.012,0.051c0.007,0.009 0.024,0.014 0.051,0.014l0.026,0l0,0.052l-0.327,0l0,-0.052l0.017,0c0.028,0 0.045,-0.005 0.052,-0.014c0.008,-0.01 0.011,-0.027 0.011,-0.051l0,-0.23l-0.08,-0l0,-0.053l0.08,0c0,-0.052 0.002,-0.091 0.006,-0.118c0.004,-0.027 0.015,-0.052 0.032,-0.076c0.018,-0.025 0.043,-0.044 0.075,-0.059c0.031,-0.014 0.07,-0.021 0.114,-0.021c0.052,-0 0.091,0.008 0.117,0.026c0.026,0.018 0.04,0.04 0.04,0.067c-0,0.02 -0.008,0.036 -0.022,0.05c-0.014,0.015 -0.031,0.022 -0.051,0.022c-0.038,-0 -0.064,-0.025 -0.076,-0.074c-0.006,-0.024 -0.018,-0.036 -0.036,-0.036c-0.014,0 -0.025,0.008 -0.031,0.023c-0.006,0.015 -0.01,0.041 -0.01,0.077l0,0.119l0.089,0l0,0.053l-0.089,-0Z" style="fill-rule:nonzero;"/></g><g transform="matrix(48,0,0,48,132.672,339.351)"><path d="M0.316,-0.042c-0.023,0.017 -0.048,0.03 -0.074,0.038c-0.026,0.009 -0.053,0.013 -0.081,0.013c-0.038,0 -0.066,-0.008 -0.085,-0.025c-0.018,-0.017 -0.028,-0.038 -0.028,-0.063c0,-0.036 0.019,-0.067 0.056,-0.094c0.038,-0.028 0.106,-0.058 0.204,-0.091l-0,-0.036c-0,-0.026 -0.007,-0.043 -0.019,-0.05c-0.012,-0.007 -0.027,-0.011 -0.044,-0.011c-0.041,0 -0.064,0.015 -0.068,0.045c-0.003,0.021 -0.01,0.035 -0.02,0.045c-0.01,0.009 -0.025,0.014 -0.045,0.014c-0.019,-0 -0.033,-0.005 -0.044,-0.015c-0.011,-0.01 -0.017,-0.022 -0.017,-0.035c0,-0.03 0.02,-0.056 0.06,-0.077c0.04,-0.021 0.094,-0.032 0.161,-0.032c0.037,-0 0.069,0.002 0.094,0.007c0.025,0.004 0.046,0.013 0.061,0.025c0.015,0.013 0.026,0.026 0.031,0.039c0.005,0.014 0.007,0.033 0.007,0.056l0,0.185c0,0.028 0.009,0.042 0.026,0.042c0.014,0 0.024,-0.009 0.028,-0.027l0.04,0c-0.001,0.034 -0.013,0.058 -0.037,0.074c-0.023,0.016 -0.052,0.024 -0.085,0.024c-0.059,0 -0.1,-0.017 -0.121,-0.051Zm-0.008,-0.053l-0,-0.114c-0.046,0.018 -0.075,0.035 -0.089,0.051c-0.014,0.015 -0.021,0.031 -0.021,0.047c0,0.013 0.004,0.024 0.012,0.034c0.009,0.01 0.019,0.015 0.033,0.015c0.011,-0 0.023,-0.003 0.033,-0.009c0.011,-0.005 0.022,-0.013 0.032,-0.024Z" style="fill-rule:nonzero;"/></g><g transform="matrix(48,0,0,48,159.672,339.351)"><path d="M0.246,-0.27l-0,0.154c-0,0.025 0.004,0.041 0.011,0.051c0.008,0.009 0.025,0.013 0.05,0.013l-0,0.052l-0.295,0l0,-0.052l0.013,0c0.028,0 0.045,-0.005 0.053,-0.014c0.007,-0.01 0.01,-0.026 0.01,-0.05l0,-0.136c0,-0.025 -0.004,-0.042 -0.011,-0.051c-0.008,-0.01 -0.027,-0.014 -0.056,-0.014l0,-0.052l0.216,-0.036c0.006,0.015 0.009,0.036 0.009,0.064c0.022,-0.025 0.047,-0.044 0.075,-0.056c0.028,-0.013 0.059,-0.019 0.093,-0.019c0.037,-0 0.068,0.007 0.092,0.021c0.024,0.014 0.041,0.036 0.052,0.064c0.02,-0.028 0.044,-0.05 0.072,-0.064c0.028,-0.014 0.059,-0.021 0.094,-0.021c0.029,-0 0.055,0.005 0.079,0.016c0.024,0.01 0.042,0.024 0.054,0.039c0.013,0.016 0.021,0.032 0.025,0.048c0.004,0.016 0.006,0.038 0.006,0.068l0,0.129c0,0.026 0.004,0.043 0.013,0.051c0.008,0.009 0.028,0.013 0.058,0.013l0,0.052l-0.289,0l0,-0.052c0.025,0 0.042,-0.004 0.049,-0.014c0.007,-0.009 0.011,-0.026 0.011,-0.05l-0,-0.14c-0,-0.027 -0.005,-0.048 -0.015,-0.061c-0.01,-0.014 -0.026,-0.021 -0.046,-0.021c-0.019,0 -0.037,0.006 -0.054,0.017c-0.017,0.012 -0.033,0.029 -0.048,0.051l0,0.154c0,0.024 0.004,0.041 0.012,0.05c0.008,0.01 0.024,0.014 0.049,0.014l0,0.052l-0.277,0l-0,-0.052c0.024,-0 0.039,-0.005 0.047,-0.014c0.007,-0.009 0.011,-0.026 0.011,-0.05l0,-0.139c0,-0.027 -0.005,-0.047 -0.015,-0.061c-0.01,-0.013 -0.025,-0.02 -0.045,-0.02c-0.017,0 -0.035,0.006 -0.052,0.017c-0.017,0.011 -0.034,0.027 -0.051,0.049Z" style="fill-rule:nonzero;"/></g><g transform="matrix(48,0,0,48,205.68,339.351)"><path d="M0.085,-0.585c0,-0.025 0.009,-0.045 0.026,-0.063c0.018,-0.017 0.038,-0.026 0.062,-0.026c0.025,0 0.045,0.009 0.062,0.026c0.017,0.017 0.026,0.038 0.026,0.063c-0,0.024 -0.009,0.045 -0.026,0.062c-0.017,0.017 -0.038,0.026 -0.062,0.026c-0.025,-0 -0.046,-0.009 -0.062,-0.027c-0.017,-0.017 -0.026,-0.038 -0.026,-0.061Zm0.165,0.169l0,0.299c0,0.025 0.004,0.042 0.012,0.051c0.008,0.01 0.026,0.014 0.054,0.014l0,0.052l-0.298,-0l-0,-0.052l0.011,0c0.027,0 0.045,-0.005 0.052,-0.014c0.008,-0.01 0.011,-0.027 0.011,-0.051l0,-0.145c0,-0.024 -0.003,-0.041 -0.011,-0.051c-0.007,-0.009 -0.025,-0.014 -0.052,-0.014l-0.011,-0l-0,-0.052l0.232,-0.037Z" style="fill-rule:nonzero;"/></g><g transform="matrix(48,0,0,48,221.688,339.351)"><path d="M0.239,-0.674l0,0.557c0,0.025 0.004,0.042 0.012,0.052c0.008,0.009 0.027,0.013 0.056,0.013l0,0.052l-0.297,-0l-0,-0.052c0.026,0 0.044,-0.003 0.055,-0.009c0.011,-0.006 0.016,-0.025 0.016,-0.056l0,-0.404c0,-0.026 -0.004,-0.043 -0.012,-0.052c-0.009,-0.009 -0.028,-0.013 -0.059,-0.013l-0,-0.052l0.229,-0.036Z" style="fill-rule:nonzero;"/></g><g transform="matrix(48,0,0,48,236.688,339.351)"><path d="M0.325,-0.138l0.065,-0.138c0.011,-0.025 0.017,-0.04 0.017,-0.047c-0,-0.017 -0.014,-0.026 -0.042,-0.026l0,-0.051l0.16,0l-0,0.051c-0.019,0.002 -0.033,0.008 -0.041,0.018c-0.008,0.011 -0.026,0.045 -0.054,0.102l-0.156,0.325c-0.031,0.064 -0.055,0.105 -0.074,0.124c-0.018,0.019 -0.042,0.029 -0.07,0.029c-0.021,0 -0.039,-0.006 -0.052,-0.019c-0.014,-0.013 -0.021,-0.028 -0.021,-0.047c0,-0.031 0.022,-0.053 0.066,-0.063c0.041,-0.01 0.068,-0.02 0.081,-0.032c0.013,-0.012 0.028,-0.035 0.044,-0.07l-0.174,-0.298l-0.008,-0.015c-0.013,-0.024 -0.023,-0.039 -0.029,-0.044c-0.007,-0.005 -0.018,-0.008 -0.034,-0.01l-0,-0.051l0.259,0l0,0.051c-0.026,0.001 -0.038,0.008 -0.038,0.02c-0,0.005 0.005,0.017 0.015,0.036l0.086,0.155Z" style="fill-rule:nonzero;"/></g><g transform="matrix(48,0,0,48,262.188,339.351)"><path d="M0.18,-0.474l0,0.305c0,0.048 0.009,0.08 0.027,0.094c0.018,0.014 0.04,0.021 0.068,0.021l-0,0.054l-0.249,0l0,-0.054c0.022,-0 0.04,-0.005 0.056,-0.016c0.015,-0.01 0.025,-0.022 0.029,-0.035c0.005,-0.014 0.007,-0.035 0.007,-0.064l-0,-0.338c-0,-0.067 -0.032,-0.101 -0.095,-0.101l-0,-0.054l0.224,-0l0.362,0.405l0,-0.243c0,-0.072 -0.03,-0.108 -0.091,-0.108l0,-0.054l0.238,-0l-0,0.054c-0.017,0 -0.032,0.005 -0.047,0.014c-0.014,0.009 -0.024,0.021 -0.029,0.035c-0.006,0.014 -0.008,0.034 -0.008,0.061l-0,0.509l-0.063,-0l-0.429,-0.485Z" style="fill-rule:nonzero;"/></g><g transform="matrix(48,0,0,48,299.688,339.351)"><path d="M0.316,-0.042c-0.023,0.017 -0.048,0.03 -0.074,0.038c-0.026,0.009 -0.053,0.013 -0.081,0.013c-0.038,0 -0.066,-0.008 -0.085,-0.025c-0.018,-0.017 -0.028,-0.038 -0.028,-0.063c0,-0.036 0.019,-0.067 0.056,-0.094c0.038,-0.028 0.106,-0.058 0.204,-0.091l-0,-0.036c-0,-0.026 -0.007,-0.043 -0.019,-0.05c-0.012,-0.007 -0.027,-0.011 -0.044,-0.011c-0.041,0 -0.064,0.015 -0.068,0.045c-0.003,0.021 -0.01,0.035 -0.02,0.045c-0.01,0.009 -0.025,0.014 -0.045,0.014c-0.019,-0 -0.033,-0.005 -0.044,-0.015c-0.011,-0.01 -0.017,-0.022 -0.017,-0.035c0,-0.03 0.02,-0.056 0.06,-0.077c0.04,-0.021 0.094,-0.032 0.161,-0.032c0.037,-0 0.069,0.002 0.094,0.007c0.025,0.004 0.046,0.013 0.061,0.025c0.015,0.013 0.026,0.026 0.031,0.039c0.005,0.014 0.007,0.033 0.007,0.056l0,0.185c0,0.028 0.009,0.042 0.026,0.042c0.014,0 0.024,-0.009 0.028,-0.027l0.04,0c-0.001,0.034 -0.013,0.058 -0.037,0.074c-0.023,0.016 -0.052,0.024 -0.085,0.024c-0.059,0 -0.1,-0.017 -0.121,-0.051Zm-0.008,-0.053l-0,-0.114c-0.046,0.018 -0.075,0.035 -0.089,0.051c-0.014,0.015 -0.021,0.031 -0.021,0.047c0,0.013 0.004,0.024 0.012,0.034c0.009,0.01 0.019,0.015 0.033,0.015c0.011,-0 0.023,-0.003 0.033,-0.009c0.011,-0.005 0.022,-0.013 0.032,-0.024Z" style="fill-rule:nonzero;"/></g><g transform="matrix(48,0,0,48,326.688,339.351)"><path d="M0.246,-0.27l-0,0.154c-0,0.025 0.004,0.041 0.011,0.051c0.008,0.009 0.025,0.013 0.05,0.013l-0,0.052l-0.295,0l0,-0.052l0.013,0c0.028,0 0.045,-0.005 0.053,-0.014c0.007,-0.01 0.01,-0.026 0.01,-0.05l0,-0.136c0,-0.025 -0.004,-0.042 -0.011,-0.051c-0.008,-0.01 -0.027,-0.014 -0.056,-0.014l0,-0.052l0.216,-0.036c0.006,0.015 0.009,0.036 0.009,0.064c0.022,-0.025 0.047,-0.044 0.075,-0.056c0.028,-0.013 0.059,-0.019 0.093,-0.019c0.037,-0 0.068,0.007 0.092,0.021c0.024,0.014 0.041,0.036 0.052,0.064c0.02,-0.028 0.044,-0.05 0.072,-0.064c0.028,-0.014 0.059,-0.021 0.094,-0.021c0.029,-0 0.055,0.005 0.079,0.016c0.024,0.01 0.042,0.024 0.054,0.039c0.013,0.016 0.021,0.032 0.025,0.048c0.004,0.016 0.006,0.038 0.006,0.068l0,0.129c0,0.026 0.004,0.043 0.013,0.051c0.008,0.009 0.028,0.013 0.058,0.013l0,0.052l-0.289,0l0,-0.052c0.025,0 0.042,-0.004 0.049,-0.014c0.007,-0.009 0.011,-0.026 0.011,-0.05l-0,-0.14c-0,-0.027 -0.005,-0.048 -0.015,-0.061c-0.01,-0.014 -0.026,-0.021 -0.046,-0.021c-0.019,0 -0.037,0.006 -0.054,0.017c-0.017,0.012 -0.033,0.029 -0.048,0.051l0,0.154c0,0.024 0.004,0.041 0.012,0.05c0.008,0.01 0.024,0.014 0.049,0.014l0,0.052l-0.277,0l-0,-0.052c0.024,-0 0.039,-0.005 0.047,-0.014c0.007,-0.009 0.011,-0.026 0.011,-0.05l0,-0.139c0,-0.027 -0.005,-0.047 -0.015,-0.061c-0.01,-0.013 -0.025,-0.02 -0.045,-0.02c-0.017,0 -0.035,0.006 -0.052,0.017c-0.017,0.011 -0.034,0.027 -0.051,0.049Z" style="fill-rule:nonzero;"/></g><g transform="matrix(48,0,0,48,372.695,339.351)"><path d="M0.213,-0.205c0,0.053 0.009,0.093 0.027,0.12c0.019,0.027 0.046,0.04 0.082,0.04c0.038,0 0.074,-0.019 0.106,-0.059l0.045,0.028c-0.018,0.027 -0.045,0.049 -0.08,0.066c-0.034,0.017 -0.073,0.026 -0.115,0.026c-0.064,0 -0.119,-0.019 -0.165,-0.059c-0.046,-0.039 -0.069,-0.092 -0.069,-0.159c-0,-0.066 0.022,-0.119 0.067,-0.157c0.044,-0.038 0.097,-0.057 0.16,-0.057c0.063,-0 0.114,0.017 0.155,0.052c0.04,0.035 0.06,0.088 0.06,0.159l-0.273,0Zm-0,-0.049l0.123,0c-0.002,-0.072 -0.023,-0.108 -0.063,-0.108c-0.02,0 -0.035,0.009 -0.045,0.027c-0.01,0.018 -0.015,0.045 -0.015,0.081Z" style="fill-rule:nonzero;"/></g><g transform="matrix(48,0,0,48,115.68,411.351)"><path d="M0.026,-0.64l-0,-0.022l0.303,-0l-0,0.022l-0.015,0c-0.032,0 -0.053,0.003 -0.064,0.008c-0.01,0.006 -0.016,0.016 -0.02,0.03c-0.003,0.015 -0.005,0.05 -0.005,0.105l0,0.325c0,0.052 0.001,0.086 0.004,0.102c0.002,0.016 0.009,0.028 0.019,0.036c0.011,0.008 0.031,0.012 0.061,0.012l0.02,-0l-0,0.022l-0.303,-0l-0,-0.022l0.019,-0c0.029,-0 0.048,-0.004 0.059,-0.011c0.011,-0.007 0.018,-0.019 0.021,-0.034c0.003,-0.015 0.004,-0.05 0.004,-0.105l0,-0.325c0,-0.053 -0.001,-0.087 -0.004,-0.102c-0.003,-0.015 -0.009,-0.026 -0.02,-0.032c-0.01,-0.006 -0.031,-0.009 -0.065,-0.009l-0.014,0Z" style="fill-rule:nonzero;"/></g><g transform="matrix(48,0,0,48,132.672,411.351)"><path d="M0.023,-0.657l0.109,-0.005c0.091,-0.005 0.152,-0.007 0.184,-0.007c0.098,0 0.175,0.015 0.23,0.045c0.055,0.03 0.096,0.071 0.123,0.122c0.027,0.051 0.04,0.11 0.04,0.177c-0,0.049 -0.007,0.093 -0.022,0.133c-0.015,0.041 -0.035,0.074 -0.06,0.1c-0.026,0.027 -0.055,0.047 -0.089,0.061c-0.034,0.014 -0.066,0.022 -0.096,0.026c-0.03,0.003 -0.073,0.005 -0.128,0.005l-0.293,-0l-0,-0.022l0.027,-0c0.028,-0 0.048,-0.004 0.059,-0.011c0.011,-0.007 0.018,-0.019 0.021,-0.034c0.003,-0.015 0.004,-0.05 0.004,-0.105l0,-0.32c0,-0.052 -0.001,-0.087 -0.004,-0.102c-0.003,-0.015 -0.01,-0.026 -0.02,-0.032c-0.01,-0.005 -0.032,-0.008 -0.065,-0.008l-0.02,-0l0,-0.023Zm0.205,0.014l-0,0.442c-0,0.066 0.001,0.108 0.003,0.127c0.003,0.019 0.01,0.032 0.022,0.04c0.012,0.007 0.038,0.011 0.078,0.011c0.057,0 0.105,-0.008 0.142,-0.024c0.037,-0.015 0.068,-0.047 0.093,-0.093c0.025,-0.046 0.037,-0.105 0.037,-0.177c0,-0.056 -0.007,-0.106 -0.022,-0.15c-0.014,-0.044 -0.035,-0.08 -0.062,-0.107c-0.027,-0.028 -0.057,-0.047 -0.09,-0.057c-0.033,-0.01 -0.075,-0.015 -0.126,-0.015c-0.025,0 -0.05,0.001 -0.075,0.003Z" style="fill-rule:nonzero;"/></g><rect x="115.68" y="416.156" width="53.484" height="2.391"/><g transform="matrix(48,0,0,48,115.68,483.351)"><path d="M0.274,-0.377l-0.12,-0l-0,0.241c-0,0.037 0.001,0.062 0.005,0.075c0.003,0.013 0.01,0.023 0.02,0.031c0.011,0.008 0.022,0.012 0.034,0.012c0.024,-0 0.044,-0.013 0.061,-0.04l0.016,0.009c-0.01,0.022 -0.025,0.038 -0.045,0.049c-0.019,0.011 -0.039,0.016 -0.059,0.016c-0.024,0 -0.044,-0.007 -0.062,-0.021c-0.018,-0.013 -0.029,-0.03 -0.033,-0.048c-0.005,-0.019 -0.007,-0.051 -0.007,-0.098l-0,-0.226l-0.058,-0l-0,-0.023c0.027,-0.001 0.05,-0.012 0.072,-0.034c0.021,-0.021 0.034,-0.052 0.04,-0.091l0.016,-0l-0,0.125l0.12,0l0,0.023Z" style="fill-rule:nonzero;"/></g><g transform="matrix(48,0,0,48,129.672,483.351)"><path d="M0.399,-0.265l-0.278,0c-0.002,0.02 -0.002,0.034 -0.002,0.043c-0,0.071 0.011,0.123 0.033,0.159c0.022,0.035 0.054,0.053 0.098,0.053c0.059,-0 0.101,-0.027 0.126,-0.08l0.023,0c-0.01,0.033 -0.031,0.059 -0.062,0.078c-0.031,0.019 -0.064,0.028 -0.101,0.028c-0.034,0 -0.066,-0.008 -0.096,-0.026c-0.03,-0.017 -0.054,-0.041 -0.074,-0.072c-0.019,-0.031 -0.028,-0.069 -0.028,-0.114c-0,-0.063 0.018,-0.115 0.055,-0.157c0.037,-0.042 0.084,-0.063 0.139,-0.063c0.053,-0 0.093,0.016 0.122,0.048c0.029,0.032 0.044,0.066 0.045,0.103Zm-0.085,-0.019c0.001,-0.008 0.001,-0.014 0.001,-0.02c0,-0.029 -0.008,-0.051 -0.025,-0.067c-0.016,-0.016 -0.037,-0.024 -0.061,-0.024c-0.06,0 -0.095,0.037 -0.106,0.111l0.191,-0Z" style="fill-rule:nonzero;"/></g><g transform="matrix(48,0,0,48,150.203,483.351)"><path d="M0.268,-0.227l0.112,0.141c0.02,0.024 0.036,0.041 0.049,0.05c0.013,0.008 0.028,0.013 0.046,0.014l0,0.022l-0.2,-0l0,-0.022c0.033,-0 0.05,-0.007 0.05,-0.02c-0,-0.005 -0.008,-0.016 -0.023,-0.033l-0.079,-0.098l-0.073,0.087c-0.018,0.02 -0.027,0.033 -0.027,0.039c0,0.016 0.018,0.024 0.054,0.025l0,0.022l-0.164,-0l-0,-0.022c0.014,-0 0.03,-0.004 0.047,-0.012c0.017,-0.007 0.04,-0.027 0.067,-0.059l0.082,-0.098l-0.088,-0.112c-0.025,-0.032 -0.044,-0.052 -0.057,-0.061c-0.013,-0.009 -0.028,-0.013 -0.046,-0.013l0,-0.023l0.189,0l-0,0.023c-0.027,-0 -0.041,0.006 -0.041,0.018c0,0.005 0.006,0.015 0.018,0.029l0.07,0.087l0.065,-0.076c0.015,-0.017 0.022,-0.028 0.022,-0.033c0,-0.017 -0.018,-0.025 -0.053,-0.025l-0,-0.023l0.158,0l0,0.023c-0.032,0.001 -0.065,0.021 -0.099,0.06l-0.079,0.09Z" style="fill-rule:nonzero;"/></g><g transform="matrix(48,0,0,48,173.195,483.351)"><path d="M0.274,-0.377l-0.12,-0l-0,0.241c-0,0.037 0.001,0.062 0.005,0.075c0.003,0.013 0.01,0.023 0.02,0.031c0.011,0.008 0.022,0.012 0.034,0.012c0.024,-0 0.044,-0.013 0.061,-0.04l0.016,0.009c-0.01,0.022 -0.025,0.038 -0.045,0.049c-0.019,0.011 -0.039,0.016 -0.059,0.016c-0.024,0 -0.044,-0.007 -0.062,-0.021c-0.018,-0.013 -0.029,-0.03 -0.033,-0.048c-0.005,-0.019 -0.007,-0.051 -0.007,-0.098l-0,-0.226l-0.058,-0l-0,-0.023c0.027,-0.001 0.05,-0.012 0.072,-0.034c0.021,-0.021 0.034,-0.052 0.04,-0.091l0.016,-0l-0,0.125l0.12,0l0,0.023Z" style="fill-rule:nonzero;"/></g><rect x="115.68" y="488.156" width="71.508" height="2.391"/></g></g><g transform="matrix(1,0,0,1,-70.0841,508.336)"><g transform="matrix(48,0,0,48,115.68,339.351)"><path d="M0.046,-0.333c0,-0.06 0.017,-0.118 0.05,-0.174c0.033,-0.057 0.078,-0.099 0.135,-0.126c0.057,-0.027 0.118,-0.041 0.183,-0.041c0.116,0 0.208,0.034 0.274,0.101c0.066,0.067 0.099,0.15 0.099,0.247c0,0.093 -0.033,0.173 -0.099,0.24c-0.066,0.066 -0.156,0.1 -0.27,0.1c-0.077,-0 -0.146,-0.017 -0.206,-0.05c-0.06,-0.033 -0.102,-0.077 -0.128,-0.132c-0.025,-0.056 -0.038,-0.111 -0.038,-0.165Zm0.204,-0.005c0,0.102 0.014,0.175 0.042,0.22c0.027,0.045 0.068,0.068 0.122,0.068c0.056,-0 0.098,-0.021 0.127,-0.062c0.029,-0.041 0.043,-0.113 0.043,-0.217c-0,-0.094 -0.013,-0.164 -0.04,-0.211c-0.027,-0.047 -0.07,-0.07 -0.128,-0.07c-0.056,0 -0.097,0.022 -0.124,0.065c-0.028,0.043 -0.042,0.112 -0.042,0.207Z" style="fill-rule:nonzero;"/></g><g transform="matrix(48,0,0,48,155.688,339.351)"><path d="M0.242,-0.315c0.019,-0.034 0.041,-0.059 0.065,-0.076c0.024,-0.017 0.05,-0.025 0.079,-0.025c0.028,-0 0.049,0.009 0.063,0.026c0.015,0.018 0.022,0.036 0.022,0.057c-0,0.019 -0.006,0.036 -0.017,0.049c-0.012,0.014 -0.028,0.021 -0.048,0.021c-0.011,-0 -0.02,-0.002 -0.028,-0.007c-0.007,-0.004 -0.016,-0.013 -0.028,-0.026c-0.012,-0.013 -0.024,-0.019 -0.038,-0.019c-0.021,-0 -0.037,0.013 -0.048,0.038c-0.01,0.026 -0.015,0.065 -0.015,0.117l-0,0.043c-0,0.024 0.003,0.041 0.011,0.051c0.007,0.009 0.025,0.014 0.052,0.014l0.009,0l0,0.052l-0.296,0l-0,-0.052c0.028,0 0.046,-0.004 0.054,-0.014c0.007,-0.009 0.011,-0.026 0.011,-0.051l-0,-0.139c-0,-0.025 -0.004,-0.042 -0.012,-0.051c-0.007,-0.01 -0.025,-0.014 -0.054,-0.014l-0,-0.052l0.203,-0.043c0.009,0.026 0.014,0.06 0.015,0.101Z" style="fill-rule:nonzero;"/></g><g transform="matrix(48,0,0,48,178.68,339.351)"><path d="M0.157,-0.143c-0.036,-0.009 -0.063,-0.026 -0.083,-0.051c-0.02,-0.025 -0.03,-0.052 -0.03,-0.08c0,-0.046 0.02,-0.081 0.06,-0.105c0.04,-0.024 0.091,-0.036 0.153,-0.036c0.035,-0 0.065,0.003 0.091,0.01c0.026,0.007 0.047,0.018 0.065,0.032c0.034,-0.029 0.062,-0.043 0.086,-0.043c0.032,-0 0.048,0.016 0.048,0.047c0,0.027 -0.011,0.04 -0.033,0.04c-0.008,0 -0.02,-0.006 -0.034,-0.018c-0.006,-0.004 -0.011,-0.007 -0.016,-0.007c-0.006,0 -0.014,0.004 -0.022,0.012c0.012,0.02 0.018,0.043 0.018,0.068c0,0.039 -0.015,0.073 -0.046,0.1c-0.032,0.028 -0.088,0.044 -0.169,0.047c-0.034,0.001 -0.057,0.005 -0.07,0.011c-0.013,0.006 -0.02,0.015 -0.02,0.027c0,0.017 0.021,0.026 0.064,0.026c0.009,0 0.03,-0.001 0.063,-0.002c0.011,-0 0.023,-0 0.034,-0c0.071,-0 0.123,0.011 0.154,0.033c0.032,0.022 0.048,0.058 0.048,0.107c-0,0.051 -0.022,0.092 -0.066,0.124c-0.044,0.033 -0.111,0.049 -0.2,0.049c-0.085,-0 -0.142,-0.011 -0.173,-0.033c-0.031,-0.021 -0.047,-0.045 -0.047,-0.072c0,-0.017 0.006,-0.031 0.017,-0.042c0.011,-0.011 0.024,-0.016 0.039,-0.016c0.012,-0 0.025,0.004 0.041,0.011c-0.002,0.006 -0.004,0.012 -0.005,0.017c-0.001,0.005 -0.002,0.01 -0.002,0.015c0,0.023 0.011,0.04 0.034,0.051c0.023,0.012 0.057,0.017 0.103,0.017c0.056,0 0.099,-0.008 0.127,-0.024c0.028,-0.016 0.042,-0.035 0.042,-0.058c0,-0.022 -0.009,-0.036 -0.029,-0.042c-0.019,-0.006 -0.063,-0.009 -0.132,-0.009c-0.075,0 -0.13,-0.007 -0.162,-0.023c-0.033,-0.016 -0.049,-0.043 -0.049,-0.081c-0,-0.026 0.008,-0.048 0.025,-0.065c0.017,-0.017 0.042,-0.029 0.076,-0.037Zm0.039,-0.135c0,0.031 0.005,0.054 0.015,0.07c0.01,0.016 0.025,0.024 0.044,0.024c0.019,-0 0.033,-0.008 0.043,-0.024c0.009,-0.017 0.014,-0.041 0.014,-0.074c0,-0.028 -0.006,-0.049 -0.017,-0.061c-0.011,-0.013 -0.025,-0.019 -0.041,-0.019c-0.019,-0 -0.034,0.007 -0.043,0.021c-0.01,0.014 -0.015,0.035 -0.015,0.063Z" style="fill-rule:nonzero;"/></g><g transform="matrix(48,0,0,48,204.672,339.351)"><path d="M0.316,-0.042c-0.023,0.017 -0.048,0.03 -0.074,0.038c-0.026,0.009 -0.053,0.013 -0.081,0.013c-0.038,0 -0.066,-0.008 -0.085,-0.025c-0.018,-0.017 -0.028,-0.038 -0.028,-0.063c0,-0.036 0.019,-0.067 0.056,-0.094c0.038,-0.028 0.106,-0.058 0.204,-0.091l-0,-0.036c-0,-0.026 -0.007,-0.043 -0.019,-0.05c-0.012,-0.007 -0.027,-0.011 -0.044,-0.011c-0.041,0 -0.064,0.015 -0.068,0.045c-0.003,0.021 -0.01,0.035 -0.02,0.045c-0.01,0.009 -0.025,0.014 -0.045,0.014c-0.019,-0 -0.033,-0.005 -0.044,-0.015c-0.011,-0.01 -0.017,-0.022 -0.017,-0.035c0,-0.03 0.02,-0.056 0.06,-0.077c0.04,-0.021 0.094,-0.032 0.161,-0.032c0.037,-0 0.069,0.002 0.094,0.007c0.025,0.004 0.046,0.013 0.061,0.025c0.015,0.013 0.026,0.026 0.031,0.039c0.005,0.014 0.007,0.033 0.007,0.056l0,0.185c0,0.028 0.009,0.042 0.026,0.042c0.014,0 0.024,-0.009 0.028,-0.027l0.04,0c-0.001,0.034 -0.013,0.058 -0.037,0.074c-0.023,0.016 -0.052,0.024 -0.085,0.024c-0.059,0 -0.1,-0.017 -0.121,-0.051Zm-0.008,-0.053l-0,-0.114c-0.046,0.018 -0.075,0.035 -0.089,0.051c-0.014,0.015 -0.021,0.031 -0.021,0.047c0,0.013 0.004,0.024 0.012,0.034c0.009,0.01 0.019,0.015 0.033,0.015c0.011,-0 0.023,-0.003 0.033,-0.009c0.011,-0.005 0.022,-0.013 0.032,-0.024Z" style="fill-rule:nonzero;"/></g><g transform="matrix(48,0,0,48,231.672,339.351)"><path d="M0.247,-0.274l0,0.158c0,0.023 0.003,0.039 0.01,0.049c0.007,0.01 0.019,0.015 0.037,0.015l-0,0.052l-0.273,0l-0,-0.052c0.028,0 0.046,-0.004 0.054,-0.013c0.008,-0.009 0.011,-0.026 0.011,-0.051l0,-0.136c0,-0.025 -0.003,-0.042 -0.011,-0.051c-0.008,-0.01 -0.026,-0.014 -0.054,-0.014l-0,-0.052l0.216,-0.036c0.006,0.013 0.009,0.032 0.01,0.059c0.022,-0.024 0.044,-0.041 0.068,-0.053c0.023,-0.011 0.048,-0.017 0.073,-0.017c0.046,-0 0.082,0.013 0.108,0.038c0.026,0.025 0.039,0.06 0.039,0.104l-0,0.158c-0,0.025 0.004,0.041 0.012,0.051c0.008,0.009 0.025,0.013 0.052,0.013l-0,0.052l-0.272,0l-0,-0.052c0.013,-0 0.025,-0.004 0.034,-0.011c0.009,-0.008 0.014,-0.025 0.014,-0.053l0,-0.146c0,-0.027 -0.004,-0.045 -0.011,-0.055c-0.007,-0.01 -0.018,-0.015 -0.031,-0.015c-0.014,0 -0.028,0.005 -0.042,0.015c-0.015,0.009 -0.029,0.023 -0.044,0.043Z" style="fill-rule:nonzero;"/></g><g transform="matrix(48,0,0,48,260.664,339.351)"><path d="M0.085,-0.585c0,-0.025 0.009,-0.045 0.026,-0.063c0.018,-0.017 0.038,-0.026 0.062,-0.026c0.025,0 0.045,0.009 0.062,0.026c0.017,0.017 0.026,0.038 0.026,0.063c-0,0.024 -0.009,0.045 -0.026,0.062c-0.017,0.017 -0.038,0.026 -0.062,0.026c-0.025,-0 -0.046,-0.009 -0.062,-0.027c-0.017,-0.017 -0.026,-0.038 -0.026,-0.061Zm0.165,0.169l0,0.299c0,0.025 0.004,0.042 0.012,0.051c0.008,0.01 0.026,0.014 0.054,0.014l0,0.052l-0.298,-0l-0,-0.052l0.011,0c0.027,0 0.045,-0.005 0.052,-0.014c0.008,-0.01 0.011,-0.027 0.011,-0.051l0,-0.145c0,-0.024 -0.003,-0.041 -0.011,-0.051c-0.007,-0.009 -0.025,-0.014 -0.052,-0.014l-0.011,-0l-0,-0.052l0.232,-0.037Z" style="fill-rule:nonzero;"/></g><g transform="matrix(48,0,0,48,276.672,339.351)"><path d="M0.034,-0l0,-0.042l0.225,-0.305l-0.092,-0c-0.015,-0 -0.025,0.003 -0.032,0.01c-0.007,0.006 -0.018,0.026 -0.033,0.061l-0.053,-0l0.009,-0.124l0.4,0l0,0.046l-0.222,0.301l0.089,-0c0.022,-0 0.039,-0.006 0.05,-0.018c0.012,-0.011 0.024,-0.033 0.038,-0.066l0.052,0l-0.012,0.137l-0.419,-0Z" style="fill-rule:nonzero;"/></g><g transform="matrix(48,0,0,48,300.18,339.351)"><path d="M0.316,-0.042c-0.023,0.017 -0.048,0.03 -0.074,0.038c-0.026,0.009 -0.053,0.013 -0.081,0.013c-0.038,0 -0.066,-0.008 -0.085,-0.025c-0.018,-0.017 -0.028,-0.038 -0.028,-0.063c0,-0.036 0.019,-0.067 0.056,-0.094c0.038,-0.028 0.106,-0.058 0.204,-0.091l-0,-0.036c-0,-0.026 -0.007,-0.043 -0.019,-0.05c-0.012,-0.007 -0.027,-0.011 -0.044,-0.011c-0.041,0 -0.064,0.015 -0.068,0.045c-0.003,0.021 -0.01,0.035 -0.02,0.045c-0.01,0.009 -0.025,0.014 -0.045,0.014c-0.019,-0 -0.033,-0.005 -0.044,-0.015c-0.011,-0.01 -0.017,-0.022 -0.017,-0.035c0,-0.03 0.02,-0.056 0.06,-0.077c0.04,-0.021 0.094,-0.032 0.161,-0.032c0.037,-0 0.069,0.002 0.094,0.007c0.025,0.004 0.046,0.013 0.061,0.025c0.015,0.013 0.026,0.026 0.031,0.039c0.005,0.014 0.007,0.033 0.007,0.056l0,0.185c0,0.028 0.009,0.042 0.026,0.042c0.014,0 0.024,-0.009 0.028,-0.027l0.04,0c-0.001,0.034 -0.013,0.058 -0.037,0.074c-0.023,0.016 -0.052,0.024 -0.085,0.024c-0.059,0 -0.1,-0.017 -0.121,-0.051Zm-0.008,-0.053l-0,-0.114c-0.046,0.018 -0.075,0.035 -0.089,0.051c-0.014,0.015 -0.021,0.031 -0.021,0.047c0,0.013 0.004,0.024 0.012,0.034c0.009,0.01 0.019,0.015 0.033,0.015c0.011,-0 0.023,-0.003 0.033,-0.009c0.011,-0.005 0.022,-0.013 0.032,-0.024Z" style="fill-rule:nonzero;"/></g><g transform="matrix(48,0,0,48,327.18,339.351)"><path d="M0.236,-0.347l-0,0.208c-0,0.035 0.002,0.058 0.007,0.069c0.004,0.012 0.014,0.017 0.028,0.017c0.021,0 0.039,-0.013 0.052,-0.04l0.048,0.016c-0.025,0.062 -0.078,0.093 -0.159,0.093c-0.045,0 -0.078,-0.011 -0.101,-0.032c-0.022,-0.022 -0.033,-0.054 -0.033,-0.098l-0,-0.233l-0.058,-0l-0,-0.053l0.012,0.001c0.039,-0 0.073,-0.013 0.101,-0.038c0.028,-0.025 0.045,-0.057 0.051,-0.096l0.052,0l-0,0.133l0.12,0l-0,0.053l-0.12,-0Z" style="fill-rule:nonzero;"/></g><g transform="matrix(48,0,0,48,344.688,339.351)"><path d="M0.085,-0.585c0,-0.025 0.009,-0.045 0.026,-0.063c0.018,-0.017 0.038,-0.026 0.062,-0.026c0.025,0 0.045,0.009 0.062,0.026c0.017,0.017 0.026,0.038 0.026,0.063c-0,0.024 -0.009,0.045 -0.026,0.062c-0.017,0.017 -0.038,0.026 -0.062,0.026c-0.025,-0 -0.046,-0.009 -0.062,-0.027c-0.017,-0.017 -0.026,-0.038 -0.026,-0.061Zm0.165,0.169l0,0.299c0,0.025 0.004,0.042 0.012,0.051c0.008,0.01 0.026,0.014 0.054,0.014l0,0.052l-0.298,-0l-0,-0.052l0.011,0c0.027,0 0.045,-0.005 0.052,-0.014c0.008,-0.01 0.011,-0.027 0.011,-0.051l0,-0.145c0,-0.024 -0.003,-0.041 -0.011,-0.051c-0.007,-0.009 -0.025,-0.014 -0.052,-0.014l-0.011,-0l-0,-0.052l0.232,-0.037Z" style="fill-rule:nonzero;"/></g><g transform="matrix(48,0,0,48,360.695,339.351)"><path d="M0.037,-0.201c0,-0.067 0.024,-0.12 0.071,-0.158c0.048,-0.038 0.105,-0.057 0.173,-0.057c0.066,-0 0.123,0.018 0.172,0.055c0.048,0.037 0.073,0.091 0.073,0.16c-0,0.066 -0.024,0.119 -0.072,0.158c-0.048,0.04 -0.106,0.059 -0.174,0.059c-0.066,0 -0.123,-0.019 -0.171,-0.056c-0.048,-0.037 -0.072,-0.091 -0.072,-0.161Zm0.168,-0.005c-0,0.062 0.005,0.106 0.017,0.131c0.011,0.025 0.032,0.037 0.06,0.037c0.023,0 0.042,-0.01 0.056,-0.031c0.013,-0.021 0.02,-0.065 0.02,-0.133c0,-0.062 -0.006,-0.104 -0.018,-0.126c-0.013,-0.022 -0.032,-0.033 -0.059,-0.033c-0.021,0 -0.039,0.01 -0.054,0.028c-0.015,0.019 -0.022,0.061 -0.022,0.127Z" style="fill-rule:nonzero;"/></g><g transform="matrix(48,0,0,48,387.695,339.351)"><path d="M0.247,-0.274l0,0.158c0,0.023 0.003,0.039 0.01,0.049c0.007,0.01 0.019,0.015 0.037,0.015l-0,0.052l-0.273,0l-0,-0.052c0.028,0 0.046,-0.004 0.054,-0.013c0.008,-0.009 0.011,-0.026 0.011,-0.051l0,-0.136c0,-0.025 -0.003,-0.042 -0.011,-0.051c-0.008,-0.01 -0.026,-0.014 -0.054,-0.014l-0,-0.052l0.216,-0.036c0.006,0.013 0.009,0.032 0.01,0.059c0.022,-0.024 0.044,-0.041 0.068,-0.053c0.023,-0.011 0.048,-0.017 0.073,-0.017c0.046,-0 0.082,0.013 0.108,0.038c0.026,0.025 0.039,0.06 0.039,0.104l-0,0.158c-0,0.025 0.004,0.041 0.012,0.051c0.008,0.009 0.025,0.013 0.052,0.013l-0,0.052l-0.272,0l-0,-0.052c0.013,-0 0.025,-0.004 0.034,-0.011c0.009,-0.008 0.014,-0.025 0.014,-0.053l0,-0.146c0,-0.027 -0.004,-0.045 -0.011,-0.055c-0.007,-0.01 -0.018,-0.015 -0.031,-0.015c-0.014,0 -0.028,0.005 -0.042,0.015c-0.015,0.009 -0.029,0.023 -0.044,0.043Z" style="fill-rule:nonzero;"/></g><g transform="matrix(48,0,0,48,115.68,459.351)"><path d="M0.026,-0.64l-0,-0.022l0.303,-0l-0,0.022l-0.015,0c-0.032,0 -0.053,0.003 -0.064,0.008c-0.01,0.006 -0.016,0.016 -0.02,0.03c-0.003,0.015 -0.005,0.05 -0.005,0.105l0,0.325c0,0.052 0.001,0.086 0.004,0.102c0.002,0.016 0.009,0.028 0.019,0.036c0.011,0.008 0.031,0.012 0.061,0.012l0.02,-0l-0,0.022l-0.303,-0l-0,-0.022l0.019,-0c0.029,-0 0.048,-0.004 0.059,-0.011c0.011,-0.007 0.018,-0.019 0.021,-0.034c0.003,-0.015 0.004,-0.05 0.004,-0.105l0,-0.325c0,-0.053 -0.001,-0.087 -0.004,-0.102c-0.003,-0.015 -0.009,-0.026 -0.02,-0.032c-0.01,-0.006 -0.031,-0.009 -0.065,-0.009l-0.014,0Z" style="fill-rule:nonzero;"/></g><g transform="matrix(48,0,0,48,132.672,459.351)"><path d="M0.023,-0.657l0.109,-0.005c0.091,-0.005 0.152,-0.007 0.184,-0.007c0.098,0 0.175,0.015 0.23,0.045c0.055,0.03 0.096,0.071 0.123,0.122c0.027,0.051 0.04,0.11 0.04,0.177c-0,0.049 -0.007,0.093 -0.022,0.133c-0.015,0.041 -0.035,0.074 -0.06,0.1c-0.026,0.027 -0.055,0.047 -0.089,0.061c-0.034,0.014 -0.066,0.022 -0.096,0.026c-0.03,0.003 -0.073,0.005 -0.128,0.005l-0.293,-0l-0,-0.022l0.027,-0c0.028,-0 0.048,-0.004 0.059,-0.011c0.011,-0.007 0.018,-0.019 0.021,-0.034c0.003,-0.015 0.004,-0.05 0.004,-0.105l0,-0.32c0,-0.052 -0.001,-0.087 -0.004,-0.102c-0.003,-0.015 -0.01,-0.026 -0.02,-0.032c-0.01,-0.005 -0.032,-0.008 -0.065,-0.008l-0.02,-0l0,-0.023Zm0.205,0.014l-0,0.442c-0,0.066 0.001,0.108 0.003,0.127c0.003,0.019 0.01,0.032 0.022,0.04c0.012,0.007 0.038,0.011 0.078,0.011c0.057,0 0.105,-0.008 0.142,-0.024c0.037,-0.015 0.068,-0.047 0.093,-0.093c0.025,-0.046 0.037,-0.105 0.037,-0.177c0,-0.056 -0.007,-0.106 -0.022,-0.15c-0.014,-0.044 -0.035,-0.08 -0.062,-0.107c-0.027,-0.028 -0.057,-0.047 -0.09,-0.057c-0.033,-0.01 -0.075,-0.015 -0.126,-0.015c-0.025,0 -0.05,0.001 -0.075,0.003Z" style="fill-rule:nonzero;"/></g><rect x="115.68" y="464.156" width="53.484" height="2.391"/><g transform="matrix(48,0,0,48,115.68,531.351)"><path d="M0.153,-0.671l0,0.534c0,0.042 0.001,0.069 0.002,0.08c0.001,0.011 0.006,0.02 0.014,0.026c0.008,0.006 0.023,0.009 0.043,0.009l0.012,-0l0,0.022l-0.214,0l0,-0.022l0.014,-0c0.019,-0 0.033,-0.003 0.042,-0.009c0.008,-0.005 0.013,-0.012 0.015,-0.022c0.001,-0.01 0.002,-0.038 0.002,-0.084l0,-0.396c0,-0.042 -0.004,-0.068 -0.011,-0.079c-0.008,-0.011 -0.026,-0.016 -0.055,-0.016l0,-0.023c0.02,0 0.043,-0.002 0.07,-0.007c0.027,-0.004 0.045,-0.009 0.056,-0.013l0.01,-0Z" style="fill-rule:nonzero;"/></g><g transform="matrix(48,0,0,48,127.188,531.351)"><path d="M0.399,-0.265l-0.278,0c-0.002,0.02 -0.002,0.034 -0.002,0.043c-0,0.071 0.011,0.123 0.033,0.159c0.022,0.035 0.054,0.053 0.098,0.053c0.059,-0 0.101,-0.027 0.126,-0.08l0.023,0c-0.01,0.033 -0.031,0.059 -0.062,0.078c-0.031,0.019 -0.064,0.028 -0.101,0.028c-0.034,0 -0.066,-0.008 -0.096,-0.026c-0.03,-0.017 -0.054,-0.041 -0.074,-0.072c-0.019,-0.031 -0.028,-0.069 -0.028,-0.114c-0,-0.063 0.018,-0.115 0.055,-0.157c0.037,-0.042 0.084,-0.063 0.139,-0.063c0.053,-0 0.093,0.016 0.122,0.048c0.029,0.032 0.044,0.066 0.045,0.103Zm-0.085,-0.019c0.001,-0.008 0.001,-0.014 0.001,-0.02c0,-0.029 -0.008,-0.051 -0.025,-0.067c-0.016,-0.016 -0.037,-0.024 -0.061,-0.024c-0.06,0 -0.095,0.037 -0.106,0.111l0.191,-0Z" style="fill-rule:nonzero;"/></g><g transform="matrix(48,0,0,48,148.188,531.351)"><path d="M0.343,-0.365c0.027,-0.031 0.055,-0.047 0.084,-0.047c0.015,0 0.028,0.005 0.036,0.013c0.009,0.009 0.013,0.018 0.013,0.028c0,0.021 -0.01,0.032 -0.029,0.032c-0.011,0 -0.02,-0.007 -0.028,-0.02c-0.007,-0.012 -0.015,-0.018 -0.023,-0.018c-0.012,-0 -0.026,0.008 -0.041,0.025c0.017,0.027 0.026,0.055 0.026,0.085c-0,0.039 -0.014,0.073 -0.042,0.103c-0.028,0.031 -0.075,0.047 -0.142,0.049c-0.069,0.003 -0.103,0.017 -0.103,0.042c-0,0.012 0.008,0.021 0.023,0.026c0.015,0.005 0.048,0.009 0.097,0.011c0.054,0.003 0.095,0.008 0.124,0.015c0.029,0.008 0.052,0.022 0.069,0.044c0.017,0.023 0.026,0.049 0.026,0.08c0,0.043 -0.017,0.077 -0.053,0.104c-0.035,0.026 -0.085,0.039 -0.151,0.039c-0.061,0 -0.11,-0.012 -0.146,-0.035c-0.036,-0.024 -0.055,-0.053 -0.055,-0.089c0,-0.02 0.006,-0.036 0.016,-0.049c0.01,-0.012 0.025,-0.019 0.044,-0.019c0.006,0 0.01,0.001 0.015,0.003c-0.021,0.022 -0.031,0.045 -0.031,0.07c0,0.029 0.014,0.052 0.041,0.071c0.026,0.019 0.067,0.028 0.12,0.028c0.047,0 0.084,-0.009 0.111,-0.028c0.027,-0.02 0.04,-0.044 0.04,-0.073c-0,-0.033 -0.012,-0.056 -0.036,-0.069c-0.024,-0.013 -0.066,-0.021 -0.127,-0.024c-0.07,-0.003 -0.115,-0.011 -0.136,-0.026c-0.021,-0.014 -0.031,-0.032 -0.031,-0.054c-0,-0.042 0.029,-0.069 0.089,-0.08c-0.031,-0.019 -0.054,-0.039 -0.07,-0.063c-0.015,-0.023 -0.023,-0.05 -0.023,-0.079c-0,-0.04 0.016,-0.075 0.048,-0.103c0.032,-0.029 0.07,-0.043 0.114,-0.043c0.054,-0 0.098,0.017 0.131,0.051Zm-0.22,0.107c0,0.042 0.009,0.072 0.026,0.092c0.017,0.02 0.039,0.029 0.066,0.029c0.025,0 0.046,-0.009 0.064,-0.029c0.017,-0.019 0.026,-0.053 0.026,-0.101c0,-0.048 -0.009,-0.081 -0.028,-0.099c-0.019,-0.018 -0.04,-0.028 -0.064,-0.028c-0.03,0 -0.053,0.012 -0.067,0.034c-0.015,0.023 -0.023,0.056 -0.023,0.102Z" style="fill-rule:nonzero;"/></g><g transform="matrix(48,0,0,48,171.156,531.351)"><path d="M0.44,-0.073l0.018,-0c-0.002,0.055 -0.03,0.083 -0.082,0.083c-0.022,0 -0.039,-0.006 -0.052,-0.017c-0.013,-0.012 -0.021,-0.029 -0.025,-0.053c-0.033,0.024 -0.062,0.041 -0.089,0.053c-0.027,0.011 -0.051,0.017 -0.072,0.017c-0.027,0 -0.051,-0.008 -0.07,-0.023c-0.02,-0.016 -0.029,-0.036 -0.029,-0.062c-0,-0.034 0.016,-0.063 0.049,-0.088c0.032,-0.025 0.078,-0.05 0.135,-0.073l0.076,-0.031l-0,-0.02c-0,-0.027 -0.002,-0.047 -0.006,-0.06c-0.003,-0.012 -0.012,-0.023 -0.027,-0.033c-0.015,-0.01 -0.035,-0.015 -0.059,-0.015c-0.049,0 -0.076,0.017 -0.082,0.049c-0.005,0.034 -0.019,0.05 -0.041,0.05c-0.02,0 -0.03,-0.009 -0.03,-0.028c0,-0.019 0.013,-0.039 0.04,-0.06c0.026,-0.021 0.067,-0.032 0.123,-0.032c0.041,-0 0.073,0.006 0.096,0.02c0.023,0.013 0.038,0.027 0.045,0.044c0.007,0.017 0.011,0.042 0.011,0.076l0,0.162c0,0.038 0.002,0.062 0.006,0.072c0.004,0.011 0.012,0.017 0.025,0.017c0.022,-0 0.035,-0.016 0.04,-0.048Zm-0.141,-0.171l-0.053,0.021c-0.084,0.035 -0.126,0.077 -0.126,0.129c-0,0.021 0.005,0.037 0.016,0.05c0.01,0.012 0.024,0.019 0.042,0.019c0.015,-0 0.033,-0.005 0.053,-0.016c0.02,-0.01 0.043,-0.025 0.068,-0.045l-0,-0.158Z" style="fill-rule:nonzero;"/></g><g transform="matrix(48,0,0,48,193.656,531.351)"><path d="M0.153,-0.671l0,0.534c0,0.042 0.001,0.069 0.002,0.08c0.001,0.011 0.006,0.02 0.014,0.026c0.008,0.006 0.023,0.009 0.043,0.009l0.012,-0l0,0.022l-0.214,0l0,-0.022l0.014,-0c0.019,-0 0.033,-0.003 0.042,-0.009c0.008,-0.005 0.013,-0.012 0.015,-0.022c0.001,-0.01 0.002,-0.038 0.002,-0.084l0,-0.396c0,-0.042 -0.004,-0.068 -0.011,-0.079c-0.008,-0.011 -0.026,-0.016 -0.055,-0.016l0,-0.023c0.02,0 0.043,-0.002 0.07,-0.007c0.027,-0.004 0.045,-0.009 0.056,-0.013l0.01,-0Z" style="fill-rule:nonzero;"/></g><g transform="matrix(48,0,0,48,205.164,531.351)"><path d="M0.616,0.015l-0.469,-0.62l0,0.459c0,0.038 0.002,0.063 0.006,0.075c0.004,0.012 0.014,0.023 0.032,0.033c0.018,0.01 0.044,0.016 0.079,0.016l0,0.022l-0.247,-0l0,-0.022c0.032,-0.003 0.056,-0.009 0.072,-0.018c0.017,-0.009 0.027,-0.019 0.03,-0.03c0.003,-0.011 0.005,-0.036 0.005,-0.076l-0,-0.351c-0,-0.051 -0.003,-0.085 -0.008,-0.102c-0.004,-0.017 -0.012,-0.028 -0.022,-0.033c-0.01,-0.005 -0.033,-0.008 -0.069,-0.008l0,-0.022l0.196,-0l0.392,0.518l-0,-0.396c-0,-0.029 -0.003,-0.05 -0.009,-0.062c-0.006,-0.011 -0.019,-0.021 -0.037,-0.027c-0.019,-0.007 -0.041,-0.011 -0.067,-0.011l0,-0.022l0.24,-0l0,0.022c-0.028,0.003 -0.05,0.008 -0.066,0.016c-0.016,0.009 -0.026,0.019 -0.031,0.031c-0.004,0.012 -0.006,0.032 -0.006,0.06l-0,0.548l-0.021,0Z" style="fill-rule:nonzero;"/></g><g transform="matrix(48,0,0,48,241.164,531.351)"><path d="M0.44,-0.073l0.018,-0c-0.002,0.055 -0.03,0.083 -0.082,0.083c-0.022,0 -0.039,-0.006 -0.052,-0.017c-0.013,-0.012 -0.021,-0.029 -0.025,-0.053c-0.033,0.024 -0.062,0.041 -0.089,0.053c-0.027,0.011 -0.051,0.017 -0.072,0.017c-0.027,0 -0.051,-0.008 -0.07,-0.023c-0.02,-0.016 -0.029,-0.036 -0.029,-0.062c-0,-0.034 0.016,-0.063 0.049,-0.088c0.032,-0.025 0.078,-0.05 0.135,-0.073l0.076,-0.031l-0,-0.02c-0,-0.027 -0.002,-0.047 -0.006,-0.06c-0.003,-0.012 -0.012,-0.023 -0.027,-0.033c-0.015,-0.01 -0.035,-0.015 -0.059,-0.015c-0.049,0 -0.076,0.017 -0.082,0.049c-0.005,0.034 -0.019,0.05 -0.041,0.05c-0.02,0 -0.03,-0.009 -0.03,-0.028c0,-0.019 0.013,-0.039 0.04,-0.06c0.026,-0.021 0.067,-0.032 0.123,-0.032c0.041,-0 0.073,0.006 0.096,0.02c0.023,0.013 0.038,0.027 0.045,0.044c0.007,0.017 0.011,0.042 0.011,0.076l0,0.162c0,0.038 0.002,0.062 0.006,0.072c0.004,0.011 0.012,0.017 0.025,0.017c0.022,-0 0.035,-0.016 0.04,-0.048Zm-0.141,-0.171l-0.053,0.021c-0.084,0.035 -0.126,0.077 -0.126,0.129c-0,0.021 0.005,0.037 0.016,0.05c0.01,0.012 0.024,0.019 0.042,0.019c0.015,-0 0.033,-0.005 0.053,-0.016c0.02,-0.01 0.043,-0.025 0.068,-0.045l-0,-0.158Z" style="fill-rule:nonzero;"/></g><g transform="matrix(48,0,0,48,263.664,531.351)"><path d="M0.14,-0.416l0.005,-0c0.009,0.022 0.014,0.05 0.014,0.084c0.022,-0.028 0.046,-0.049 0.071,-0.063c0.025,-0.014 0.052,-0.021 0.081,-0.021c0.033,-0 0.06,0.007 0.08,0.022c0.021,0.015 0.035,0.038 0.043,0.068c0.025,-0.03 0.05,-0.053 0.076,-0.068c0.026,-0.015 0.053,-0.022 0.08,-0.022c0.031,-0 0.057,0.007 0.078,0.021c0.022,0.015 0.035,0.031 0.04,0.049c0.004,0.019 0.006,0.048 0.006,0.089l0,0.12c0,0.046 0.001,0.075 0.003,0.085c0.002,0.01 0.007,0.017 0.016,0.022c0.008,0.005 0.024,0.008 0.048,0.008l-0,0.022l-0.2,0l0,-0.022c0.021,-0 0.036,-0.003 0.045,-0.008c0.008,-0.004 0.014,-0.011 0.016,-0.021c0.002,-0.01 0.003,-0.038 0.003,-0.086l-0,-0.134c-0,-0.027 -0.002,-0.047 -0.005,-0.061c-0.003,-0.013 -0.011,-0.025 -0.024,-0.035c-0.013,-0.009 -0.03,-0.014 -0.051,-0.014c-0.021,-0 -0.042,0.007 -0.064,0.021c-0.021,0.014 -0.043,0.036 -0.064,0.065l0,0.158c0,0.042 0.001,0.069 0.002,0.08c0.001,0.011 0.005,0.019 0.013,0.026c0.008,0.006 0.023,0.009 0.043,0.009l0,0.022l-0.193,-0l-0,-0.022c0.022,-0 0.037,-0.003 0.045,-0.007c0.009,-0.005 0.014,-0.012 0.017,-0.021c0.002,-0.01 0.003,-0.039 0.003,-0.087l-0,-0.111c-0,-0.035 -0.002,-0.061 -0.004,-0.076c-0.003,-0.016 -0.012,-0.03 -0.026,-0.041c-0.014,-0.011 -0.031,-0.017 -0.052,-0.017c-0.02,0 -0.041,0.007 -0.062,0.02c-0.021,0.013 -0.042,0.032 -0.064,0.058l0,0.167c0,0.044 0.001,0.071 0.002,0.082c0.001,0.011 0.006,0.019 0.015,0.024c0.008,0.006 0.023,0.009 0.045,0.009l0,0.022l-0.196,-0l0,-0.022c0.022,-0 0.037,-0.003 0.046,-0.008c0.008,-0.004 0.013,-0.011 0.015,-0.021c0.002,-0.009 0.003,-0.038 0.003,-0.086l0,-0.12c0,-0.045 -0,-0.073 -0.002,-0.084c-0.001,-0.01 -0.006,-0.018 -0.015,-0.023c-0.009,-0.005 -0.024,-0.008 -0.047,-0.008l0,-0.022c0.047,-0.005 0.085,-0.012 0.115,-0.022Z" style="fill-rule:nonzero;"/></g><g transform="matrix(48,0,0,48,302.172,531.351)"><path d="M0.399,-0.265l-0.278,0c-0.002,0.02 -0.002,0.034 -0.002,0.043c-0,0.071 0.011,0.123 0.033,0.159c0.022,0.035 0.054,0.053 0.098,0.053c0.059,-0 0.101,-0.027 0.126,-0.08l0.023,0c-0.01,0.033 -0.031,0.059 -0.062,0.078c-0.031,0.019 -0.064,0.028 -0.101,0.028c-0.034,0 -0.066,-0.008 -0.096,-0.026c-0.03,-0.017 -0.054,-0.041 -0.074,-0.072c-0.019,-0.031 -0.028,-0.069 -0.028,-0.114c-0,-0.063 0.018,-0.115 0.055,-0.157c0.037,-0.042 0.084,-0.063 0.139,-0.063c0.053,-0 0.093,0.016 0.122,0.048c0.029,0.032 0.044,0.066 0.045,0.103Zm-0.085,-0.019c0.001,-0.008 0.001,-0.014 0.001,-0.02c0,-0.029 -0.008,-0.051 -0.025,-0.067c-0.016,-0.016 -0.037,-0.024 -0.061,-0.024c-0.06,0 -0.095,0.037 -0.106,0.111l0.191,-0Z" style="fill-rule:nonzero;"/></g><rect x="115.68" y="536.156" width="207.492" height="2.391"/><g transform="matrix(48,0,0,48,115.68,603.351)"><path d="M0.48,0.016l-0.022,-0l-0.119,-0.318l-0.122,0.318l-0.021,-0l-0.122,-0.318c-0.014,-0.036 -0.025,-0.058 -0.032,-0.065c-0.006,-0.007 -0.02,-0.01 -0.041,-0.01l0,-0.023l0.183,0l0,0.023c-0.02,-0 -0.034,0.001 -0.042,0.005c-0.007,0.004 -0.011,0.01 -0.011,0.019c-0,0.007 0.006,0.026 0.019,0.058l0.081,0.214l0.124,-0.319l0.019,0l0.12,0.319l0.088,-0.227c0.009,-0.024 0.014,-0.039 0.014,-0.044c0,-0.016 -0.016,-0.024 -0.049,-0.025l-0,-0.023l0.13,0l-0,0.023c-0.016,-0 -0.028,0.003 -0.037,0.009c-0.009,0.005 -0.017,0.018 -0.025,0.038l-0.011,0.028l-0.124,0.318Z" style="fill-rule:nonzero;"/></g><g transform="matrix(48,0,0,48,147.719,603.351)"><path d="M0.399,-0.265l-0.278,0c-0.002,0.02 -0.002,0.034 -0.002,0.043c-0,0.071 0.011,0.123 0.033,0.159c0.022,0.035 0.054,0.053 0.098,0.053c0.059,-0 0.101,-0.027 0.126,-0.08l0.023,0c-0.01,0.033 -0.031,0.059 -0.062,0.078c-0.031,0.019 -0.064,0.028 -0.101,0.028c-0.034,0 -0.066,-0.008 -0.096,-0.026c-0.03,-0.017 -0.054,-0.041 -0.074,-0.072c-0.019,-0.031 -0.028,-0.069 -0.028,-0.114c-0,-0.063 0.018,-0.115 0.055,-0.157c0.037,-0.042 0.084,-0.063 0.139,-0.063c0.053,-0 0.093,0.016 0.122,0.048c0.029,0.032 0.044,0.066 0.045,0.103Zm-0.085,-0.019c0.001,-0.008 0.001,-0.014 0.001,-0.02c0,-0.029 -0.008,-0.051 -0.025,-0.067c-0.016,-0.016 -0.037,-0.024 -0.061,-0.024c-0.06,0 -0.095,0.037 -0.106,0.111l0.191,-0Z" style="fill-rule:nonzero;"/></g><g transform="matrix(48,0,0,48,168.719,603.351)"><path d="M0.096,0.016l-0.019,0l0,-0.535c0,-0.039 -0.001,-0.064 -0.003,-0.076c-0.002,-0.011 -0.008,-0.02 -0.016,-0.025c-0.009,-0.006 -0.024,-0.008 -0.045,-0.008l-0,-0.023c0.019,0 0.042,-0.002 0.069,-0.007c0.027,-0.004 0.045,-0.009 0.055,-0.013l0.01,-0l0,0.316c0.023,-0.02 0.046,-0.036 0.07,-0.046c0.023,-0.01 0.047,-0.015 0.071,-0.015c0.058,-0 0.105,0.02 0.142,0.06c0.036,0.04 0.055,0.091 0.055,0.153c-0,0.063 -0.019,0.115 -0.057,0.157c-0.038,0.041 -0.087,0.062 -0.147,0.062c-0.029,0 -0.055,-0.006 -0.078,-0.018c-0.022,-0.013 -0.041,-0.031 -0.056,-0.056c-0.021,0.022 -0.038,0.046 -0.051,0.074Zm0.051,-0.342l0,0.157c0,0.04 0.003,0.069 0.009,0.087c0.005,0.017 0.018,0.034 0.038,0.051c0.021,0.016 0.045,0.024 0.072,0.024c0.042,0 0.076,-0.017 0.1,-0.052c0.025,-0.034 0.038,-0.084 0.038,-0.149c-0,-0.059 -0.012,-0.104 -0.035,-0.136c-0.023,-0.031 -0.054,-0.046 -0.093,-0.046c-0.022,-0 -0.044,0.005 -0.065,0.016c-0.022,0.01 -0.043,0.026 -0.064,0.048Z" style="fill-rule:nonzero;"/></g><g transform="matrix(48,0,0,48,193.727,603.351)"><path d="M0.041,0.013l-0,-0.132l0.019,0c0.022,0.076 0.061,0.114 0.118,0.114c0.025,0 0.043,-0.007 0.056,-0.022c0.012,-0.015 0.018,-0.032 0.018,-0.05c-0,-0.02 -0.007,-0.038 -0.02,-0.051c-0.013,-0.013 -0.039,-0.029 -0.077,-0.048c-0.041,-0.02 -0.07,-0.04 -0.087,-0.059c-0.018,-0.019 -0.026,-0.042 -0.026,-0.07c-0,-0.026 0.009,-0.051 0.028,-0.075c0.019,-0.024 0.045,-0.036 0.079,-0.036c0.035,-0 0.064,0.014 0.087,0.042c0.005,-0.004 0.011,-0.016 0.019,-0.035l0.018,-0l-0,0.123l-0.018,0c-0.007,-0.029 -0.019,-0.055 -0.038,-0.076c-0.019,-0.021 -0.041,-0.032 -0.066,-0.032c-0.02,-0 -0.035,0.006 -0.047,0.018c-0.013,0.012 -0.019,0.026 -0.019,0.042c0,0.018 0.007,0.033 0.02,0.045c0.013,0.013 0.038,0.028 0.075,0.045c0.056,0.025 0.089,0.049 0.102,0.073c0.012,0.024 0.018,0.047 0.018,0.069c0,0.035 -0.011,0.064 -0.034,0.085c-0.023,0.022 -0.052,0.033 -0.087,0.033c-0.037,0 -0.069,-0.015 -0.098,-0.045c-0.009,0.009 -0.016,0.023 -0.021,0.042l-0.019,-0Z" style="fill-rule:nonzero;"/></g><g transform="matrix(48,0,0,48,209.734,603.351)"><path d="M0.067,-0.62c-0,-0.014 0.005,-0.026 0.015,-0.036c0.01,-0.01 0.022,-0.015 0.036,-0.015c0.014,-0 0.026,0.005 0.035,0.015c0.01,0.01 0.015,0.022 0.015,0.036c-0,0.014 -0.005,0.026 -0.015,0.037c-0.009,0.01 -0.021,0.015 -0.035,0.015c-0.014,-0 -0.026,-0.005 -0.036,-0.015c-0.01,-0.011 -0.015,-0.023 -0.015,-0.037Zm0.094,0.204l0,0.279c0,0.042 0.001,0.069 0.002,0.08c0.001,0.011 0.006,0.02 0.014,0.026c0.008,0.006 0.023,0.009 0.044,0.009l0.01,-0l-0,0.022l-0.215,-0l-0,-0.022l0.016,-0c0.023,-0 0.038,-0.004 0.045,-0.01c0.007,-0.007 0.011,-0.015 0.013,-0.024c0.001,-0.01 0.001,-0.037 0.001,-0.081l0,-0.121c0,-0.047 -0.002,-0.076 -0.006,-0.086c-0.005,-0.011 -0.011,-0.017 -0.018,-0.02c-0.007,-0.002 -0.02,-0.004 -0.038,-0.004l-0.013,0l-0,-0.022c0.058,-0.006 0.102,-0.015 0.134,-0.026l0.011,-0Z" style="fill-rule:nonzero;"/></g><g transform="matrix(48,0,0,48,221.734,603.351)"><path d="M0.274,-0.377l-0.12,-0l-0,0.241c-0,0.037 0.001,0.062 0.005,0.075c0.003,0.013 0.01,0.023 0.02,0.031c0.011,0.008 0.022,0.012 0.034,0.012c0.024,-0 0.044,-0.013 0.061,-0.04l0.016,0.009c-0.01,0.022 -0.025,0.038 -0.045,0.049c-0.019,0.011 -0.039,0.016 -0.059,0.016c-0.024,0 -0.044,-0.007 -0.062,-0.021c-0.018,-0.013 -0.029,-0.03 -0.033,-0.048c-0.005,-0.019 -0.007,-0.051 -0.007,-0.098l-0,-0.226l-0.058,-0l-0,-0.023c0.027,-0.001 0.05,-0.012 0.072,-0.034c0.021,-0.021 0.034,-0.052 0.04,-0.091l0.016,-0l-0,0.125l0.12,0l0,0.023Z" style="fill-rule:nonzero;"/></g><g transform="matrix(48,0,0,48,235.727,603.351)"><path d="M0.399,-0.265l-0.278,0c-0.002,0.02 -0.002,0.034 -0.002,0.043c-0,0.071 0.011,0.123 0.033,0.159c0.022,0.035 0.054,0.053 0.098,0.053c0.059,-0 0.101,-0.027 0.126,-0.08l0.023,0c-0.01,0.033 -0.031,0.059 -0.062,0.078c-0.031,0.019 -0.064,0.028 -0.101,0.028c-0.034,0 -0.066,-0.008 -0.096,-0.026c-0.03,-0.017 -0.054,-0.041 -0.074,-0.072c-0.019,-0.031 -0.028,-0.069 -0.028,-0.114c-0,-0.063 0.018,-0.115 0.055,-0.157c0.037,-0.042 0.084,-0.063 0.139,-0.063c0.053,-0 0.093,0.016 0.122,0.048c0.029,0.032 0.044,0.066 0.045,0.103Zm-0.085,-0.019c0.001,-0.008 0.001,-0.014 0.001,-0.02c0,-0.029 -0.008,-0.051 -0.025,-0.067c-0.016,-0.016 -0.037,-0.024 -0.061,-0.024c-0.06,0 -0.095,0.037 -0.106,0.111l0.191,-0Z" style="fill-rule:nonzero;"/></g><rect x="115.68" y="608.156" width="141.047" height="2.391"/></g><path d="M271.862,478.684l268.152,-0l0,479.248l-405.436,-0" style="fill:none;stroke:#000;stroke-width:5.5px;"/><path d="M301.371,331.133l280.798,0l-0,-115.472l268.153,-0" style="fill:none;stroke:#000;stroke-width:5.5px;"/><path d="M314.066,406.832l331.132,-0l-0,76.841l202.718,0" style="fill:none;stroke:#000;stroke-width:5.5px;"/></g></svg>