<?xml version="1.0" encoding="UTF-8" standalone="no"?><!DOCTYPE svg PUBLIC "-//W3C//DTD SVG 1.1//EN" "http://www.w3.org/Graphics/SVG/1.1/DTD/svg11.dtd"><svg width="100%" height="100%" viewBox="0 0 1600 1200" version="1.1" xmlns="http://www.w3.org/2000/svg" xmlns:xlink="http://www.w3.org/1999/xlink" xml:space="preserve" xmlns:serif="http://www.serif.com/" style="fill-rule:evenodd;clip-rule:evenodd;stroke-linejoin:round;stroke-miterlimit:2;"><g id="rdb2rdf-02" serif:id="rdb2rdf 02"><g><g transform="matrix(1,0,0,1,216.297,-185.224)"><g transform="matrix(48,0,0,48,115.68,339.351)"><path d="M0.21,-0.25l-0,0.25l-0.147,-0l0,-0.711l0.278,0c0.053,0 0.1,0.01 0.141,0.029c0.04,0.02 0.071,0.048 0.093,0.084c0.022,0.036 0.033,0.077 0.033,0.122c-0,0.07 -0.024,0.125 -0.072,0.165c-0.047,0.04 -0.113,0.061 -0.198,0.061l-0.128,-0Zm-0,-0.119l0.131,-0c0.039,-0 0.068,-0.009 0.088,-0.027c0.021,-0.019 0.031,-0.045 0.031,-0.079c-0,-0.034 -0.01,-0.063 -0.031,-0.084c-0.02,-0.022 -0.049,-0.033 -0.085,-0.033l-0.134,-0l-0,0.223Z" style="fill-rule:nonzero;"/></g><g transform="matrix(48,0,0,48,146.336,339.351)"><path d="M0.297,0.01c-0.077,-0 -0.14,-0.024 -0.189,-0.072c-0.049,-0.047 -0.073,-0.11 -0.073,-0.189l0,-0.014c0,-0.053 0.01,-0.101 0.031,-0.142c0.02,-0.042 0.049,-0.075 0.087,-0.097c0.038,-0.023 0.081,-0.034 0.129,-0.034c0.072,-0 0.129,0.023 0.17,0.068c0.042,0.046 0.063,0.11 0.063,0.194l-0,0.058l-0.337,-0c0.005,0.034 0.019,0.062 0.041,0.083c0.023,0.021 0.052,0.031 0.088,0.031c0.054,-0 0.096,-0.02 0.127,-0.059l0.069,0.078c-0.021,0.029 -0.049,0.053 -0.086,0.07c-0.036,0.016 -0.076,0.025 -0.12,0.025Zm-0.016,-0.434c-0.028,0 -0.05,0.01 -0.068,0.028c-0.017,0.019 -0.028,0.046 -0.033,0.082l0.196,-0l-0,-0.012c-0.001,-0.031 -0.009,-0.055 -0.025,-0.072c-0.017,-0.017 -0.04,-0.026 -0.07,-0.026Z" style="fill-rule:nonzero;"/></g><g transform="matrix(48,0,0,48,172.281,339.351)"><path d="M0.351,-0.396c-0.019,-0.003 -0.036,-0.004 -0.051,-0.004c-0.053,0 -0.088,0.018 -0.105,0.054l0,0.346l-0.141,-0l0,-0.528l0.133,-0l0.004,0.063c0.029,-0.049 0.068,-0.073 0.118,-0.073c0.016,-0 0.03,0.002 0.044,0.006l-0.002,0.136Z" style="fill-rule:nonzero;"/></g><g transform="matrix(48,0,0,48,189.789,339.351)"><path d="M0.34,-0.146c0,-0.017 -0.008,-0.031 -0.025,-0.041c-0.017,-0.01 -0.045,-0.019 -0.083,-0.026c-0.125,-0.027 -0.188,-0.08 -0.188,-0.161c-0,-0.046 0.019,-0.086 0.058,-0.117c0.039,-0.031 0.09,-0.047 0.153,-0.047c0.067,-0 0.121,0.016 0.161,0.047c0.04,0.032 0.06,0.073 0.06,0.123l-0.141,0c-0,-0.02 -0.007,-0.037 -0.02,-0.05c-0.013,-0.013 -0.033,-0.019 -0.061,-0.019c-0.023,-0 -0.042,0.005 -0.055,0.016c-0.013,0.01 -0.019,0.024 -0.019,0.041c-0,0.015 0.007,0.028 0.022,0.037c0.015,0.01 0.04,0.018 0.075,0.025c0.035,0.007 0.065,0.015 0.089,0.024c0.074,0.027 0.112,0.075 0.112,0.142c-0,0.048 -0.021,0.087 -0.062,0.117c-0.042,0.03 -0.095,0.045 -0.161,0.045c-0.044,-0 -0.083,-0.008 -0.118,-0.024c-0.034,-0.016 -0.061,-0.037 -0.08,-0.065c-0.02,-0.027 -0.03,-0.057 -0.03,-0.089l0.134,0c0.001,0.025 0.011,0.044 0.028,0.058c0.017,0.013 0.04,0.02 0.069,0.02c0.027,-0 0.048,-0.005 0.062,-0.016c0.013,-0.01 0.02,-0.023 0.02,-0.04Z" style="fill-rule:nonzero;"/></g><g transform="matrix(48,0,0,48,214.469,339.351)"><path d="M0.032,-0.269c0,-0.052 0.01,-0.099 0.031,-0.14c0.02,-0.041 0.049,-0.073 0.087,-0.095c0.038,-0.023 0.082,-0.034 0.132,-0.034c0.071,-0 0.129,0.022 0.174,0.065c0.045,0.044 0.071,0.103 0.076,0.178l0.001,0.036c-0,0.081 -0.023,0.146 -0.068,0.195c-0.045,0.049 -0.106,0.074 -0.182,0.074c-0.076,-0 -0.137,-0.025 -0.183,-0.073c-0.045,-0.049 -0.068,-0.116 -0.068,-0.2l0,-0.006Zm0.141,0.01c0,0.05 0.01,0.089 0.029,0.115c0.019,0.027 0.046,0.04 0.081,0.04c0.034,-0 0.061,-0.013 0.08,-0.039c0.019,-0.027 0.029,-0.068 0.029,-0.126c-0,-0.049 -0.01,-0.087 -0.029,-0.114c-0.019,-0.027 -0.046,-0.041 -0.081,-0.041c-0.035,0 -0.061,0.014 -0.08,0.04c-0.019,0.027 -0.029,0.069 -0.029,0.125Z" style="fill-rule:nonzero;"/></g><g transform="matrix(48,0,0,48,241.609,339.351)"><path d="M0.184,-0.528l0.004,0.061c0.038,-0.047 0.089,-0.071 0.152,-0.071c0.056,-0 0.098,0.016 0.125,0.049c0.028,0.033 0.042,0.082 0.042,0.148l0,0.341l-0.141,0l0,-0.338c0,-0.03 -0.006,-0.052 -0.019,-0.065c-0.013,-0.014 -0.035,-0.02 -0.065,-0.02c-0.04,-0 -0.07,0.017 -0.09,0.05l0,0.373l-0.141,0l0,-0.528l0.133,-0Z" style="fill-rule:nonzero;"/></g><g transform="matrix(48,0,0,48,115.68,435.351)"><rect x="0.089" y="-0.711" width="0.094" height="0.711" style="fill-rule:nonzero;"/></g><g transform="matrix(48,0,0,48,128.734,435.351)"><path d="M0.083,-0l-0,-0.711l0.2,0c0.062,0 0.117,0.014 0.164,0.041c0.048,0.027 0.084,0.066 0.11,0.117c0.026,0.05 0.039,0.108 0.04,0.174l-0,0.045c-0,0.067 -0.013,0.126 -0.039,0.176c-0.026,0.051 -0.063,0.089 -0.111,0.116c-0.048,0.028 -0.104,0.041 -0.168,0.042l-0.196,-0Zm0.093,-0.634l0,0.557l0.099,0c0.072,0 0.128,-0.022 0.169,-0.067c0.04,-0.045 0.06,-0.109 0.06,-0.192l-0,-0.041c-0,-0.081 -0.019,-0.144 -0.057,-0.189c-0.038,-0.044 -0.092,-0.067 -0.161,-0.068l-0.11,0Z" style="fill-rule:nonzero;"/></g><g transform="matrix(48,0,0,48,223.68,435.351)"><path d="M0.047,-0.269c-0,-0.082 0.019,-0.147 0.057,-0.196c0.038,-0.049 0.089,-0.073 0.151,-0.073c0.065,-0 0.115,0.023 0.151,0.068l0.005,-0.058l0.082,-0l0,0.515c0,0.069 -0.02,0.123 -0.061,0.162c-0.04,0.039 -0.095,0.059 -0.163,0.059c-0.038,0 -0.075,-0.008 -0.112,-0.024c-0.036,-0.017 -0.064,-0.039 -0.083,-0.067l0.047,-0.054c0.038,0.047 0.086,0.071 0.142,0.071c0.044,0 0.078,-0.012 0.102,-0.037c0.025,-0.025 0.037,-0.059 0.037,-0.104l0,-0.046c-0.036,0.042 -0.085,0.063 -0.148,0.063c-0.061,-0 -0.112,-0.025 -0.15,-0.075c-0.038,-0.05 -0.057,-0.118 -0.057,-0.204Zm0.091,0.011c-0,0.059 0.012,0.106 0.036,0.14c0.025,0.034 0.059,0.051 0.103,0.051c0.057,0 0.099,-0.026 0.125,-0.078l0,-0.241c-0.027,-0.05 -0.069,-0.075 -0.124,-0.075c-0.044,-0 -0.078,0.017 -0.103,0.051c-0.025,0.034 -0.037,0.085 -0.037,0.152Z" style="fill-rule:nonzero;"/></g><g transform="matrix(48,0,0,48,250.609,435.351)"><path d="M0.167,-0l-0.091,-0l0,-0.528l0.091,-0l-0,0.528Zm-0.098,-0.668c-0,-0.015 0.004,-0.027 0.013,-0.038c0.009,-0.01 0.022,-0.015 0.04,-0.015c0.018,0 0.031,0.005 0.04,0.015c0.009,0.011 0.014,0.023 0.014,0.038c-0,0.014 -0.005,0.026 -0.014,0.036c-0.009,0.01 -0.022,0.015 -0.04,0.015c-0.018,-0 -0.031,-0.005 -0.04,-0.015c-0.009,-0.01 -0.013,-0.022 -0.013,-0.036Z" style="fill-rule:nonzero;"/></g><g transform="matrix(48,0,0,48,262.258,435.351)"><path d="M0.243,-0.123l0.131,-0.405l0.092,-0l-0.19,0.528l-0.068,-0l-0.192,-0.528l0.092,-0l0.135,0.405Z" style="fill-rule:nonzero;"/></g><g transform="matrix(48,0,0,48,285.203,435.351)"><path d="M0.288,0.01c-0.072,-0 -0.13,-0.024 -0.175,-0.071c-0.045,-0.047 -0.068,-0.11 -0.068,-0.189l0,-0.016c0,-0.053 0.01,-0.099 0.03,-0.14c0.02,-0.042 0.048,-0.074 0.084,-0.097c0.036,-0.023 0.075,-0.035 0.117,-0.035c0.069,-0 0.122,0.023 0.161,0.068c0.038,0.045 0.057,0.11 0.057,0.194l-0,0.038l-0.358,-0c0.001,0.052 0.016,0.094 0.045,0.126c0.03,0.032 0.067,0.048 0.111,0.048c0.032,0 0.059,-0.006 0.082,-0.019c0.022,-0.014 0.041,-0.031 0.058,-0.052l0.055,0.043c-0.044,0.068 -0.111,0.102 -0.199,0.102Zm-0.012,-0.474c-0.036,0 -0.067,0.013 -0.091,0.04c-0.025,0.026 -0.04,0.064 -0.046,0.112l0.264,-0l0,-0.007c-0.002,-0.046 -0.015,-0.082 -0.037,-0.107c-0.022,-0.025 -0.052,-0.038 -0.09,-0.038Z" style="fill-rule:nonzero;"/></g><g transform="matrix(48,0,0,48,310.633,435.351)"><path d="M0.154,-0.528l0.003,0.066c0.04,-0.051 0.093,-0.076 0.158,-0.076c0.112,-0 0.168,0.063 0.169,0.189l-0,0.349l-0.09,-0l-0,-0.35c-0.001,-0.038 -0.009,-0.066 -0.027,-0.084c-0.017,-0.018 -0.043,-0.027 -0.079,-0.027c-0.03,-0 -0.055,0.007 -0.078,0.023c-0.022,0.016 -0.039,0.036 -0.051,0.062l-0,0.376l-0.091,0l0,-0.528l0.086,-0Z" style="fill-rule:nonzero;"/></g><g transform="matrix(48,0,0,48,337.117,435.351)"><path d="M0.629,-0l-0.094,-0l-0.358,-0.548l-0,0.548l-0.094,-0l-0,-0.711l0.094,0l0.359,0.55l-0,-0.55l0.093,0l-0,0.711Z" style="fill-rule:nonzero;"/></g><g transform="matrix(48,0,0,48,371.336,435.351)"><path d="M0.395,-0c-0.006,-0.01 -0.01,-0.029 -0.013,-0.056c-0.042,0.044 -0.092,0.066 -0.151,0.066c-0.052,-0 -0.094,-0.015 -0.128,-0.044c-0.033,-0.03 -0.05,-0.067 -0.05,-0.112c0,-0.055 0.021,-0.098 0.063,-0.129c0.042,-0.03 0.101,-0.045 0.176,-0.045l0.088,-0l0,-0.042c0,-0.031 -0.009,-0.057 -0.028,-0.075c-0.019,-0.019 -0.047,-0.028 -0.083,-0.028c-0.033,-0 -0.06,0.008 -0.081,0.024c-0.022,0.016 -0.033,0.036 -0.033,0.059l-0.091,0c-0,-0.026 0.009,-0.052 0.028,-0.076c0.019,-0.025 0.044,-0.044 0.076,-0.059c0.032,-0.014 0.068,-0.021 0.106,-0.021c0.061,-0 0.108,0.015 0.143,0.046c0.034,0.03 0.052,0.072 0.054,0.125l-0,0.243c-0,0.049 0.006,0.088 0.018,0.116l0,0.008l-0.094,0Zm-0.15,-0.069c0.028,0 0.055,-0.007 0.08,-0.022c0.026,-0.014 0.044,-0.034 0.055,-0.057l0,-0.108l-0.07,-0c-0.111,-0 -0.166,0.032 -0.166,0.097c-0,0.028 0.009,0.05 0.028,0.066c0.019,0.016 0.043,0.024 0.073,0.024Z" style="fill-rule:nonzero;"/></g><g transform="matrix(48,0,0,48,397.445,435.351)"><path d="M0.153,-0.528l0.003,0.058c0.038,-0.045 0.091,-0.068 0.157,-0.068c0.073,-0 0.124,0.028 0.15,0.085c0.018,-0.026 0.041,-0.046 0.069,-0.062c0.028,-0.015 0.061,-0.023 0.1,-0.023c0.116,-0 0.175,0.061 0.177,0.184l-0,0.354l-0.091,0l0,-0.349c0,-0.037 -0.008,-0.066 -0.026,-0.084c-0.017,-0.019 -0.046,-0.028 -0.087,-0.028c-0.033,-0 -0.061,0.01 -0.083,0.03c-0.022,0.02 -0.035,0.047 -0.039,0.08l0,0.351l-0.09,0l-0,-0.346c-0,-0.077 -0.038,-0.115 -0.113,-0.115c-0.059,-0 -0.1,0.025 -0.122,0.075l0,0.386l-0.09,0l-0,-0.528l0.085,-0Z" style="fill-rule:nonzero;"/></g><g transform="matrix(48,0,0,48,439.516,435.351)"><path d="M0.288,0.01c-0.072,-0 -0.13,-0.024 -0.175,-0.071c-0.045,-0.047 -0.068,-0.11 -0.068,-0.189l0,-0.016c0,-0.053 0.01,-0.099 0.03,-0.14c0.02,-0.042 0.048,-0.074 0.084,-0.097c0.036,-0.023 0.075,-0.035 0.117,-0.035c0.069,-0 0.122,0.023 0.161,0.068c0.038,0.045 0.057,0.11 0.057,0.194l-0,0.038l-0.358,-0c0.001,0.052 0.016,0.094 0.045,0.126c0.03,0.032 0.067,0.048 0.111,0.048c0.032,0 0.059,-0.006 0.082,-0.019c0.022,-0.014 0.041,-0.031 0.058,-0.052l0.055,0.043c-0.044,0.068 -0.111,0.102 -0.199,0.102Zm-0.012,-0.474c-0.036,0 -0.067,0.013 -0.091,0.04c-0.025,0.026 -0.04,0.064 -0.046,0.112l0.264,-0l0,-0.007c-0.002,-0.046 -0.015,-0.082 -0.037,-0.107c-0.022,-0.025 -0.052,-0.038 -0.09,-0.038Z" style="fill-rule:nonzero;"/></g><g transform="matrix(48,0,0,48,511.68,435.351)"><path d="M0.113,-0l-0,-0.458l-0.084,-0l0,-0.07l0.084,-0l-0,-0.055c-0,-0.056 0.015,-0.1 0.045,-0.131c0.03,-0.031 0.073,-0.046 0.129,-0.046c0.02,-0 0.041,0.003 0.062,0.008l-0.005,0.073c-0.016,-0.003 -0.032,-0.004 -0.049,-0.004c-0.029,-0 -0.052,0.008 -0.068,0.026c-0.016,0.017 -0.024,0.041 -0.024,0.073l0,0.056l0.113,-0l-0,0.07l-0.113,-0l0,0.458l-0.09,0Z" style="fill-rule:nonzero;"/></g><g transform="matrix(48,0,0,48,528.344,435.351)"><path d="M0.395,-0c-0.006,-0.01 -0.01,-0.029 -0.013,-0.056c-0.042,0.044 -0.092,0.066 -0.151,0.066c-0.052,-0 -0.094,-0.015 -0.128,-0.044c-0.033,-0.03 -0.05,-0.067 -0.05,-0.112c0,-0.055 0.021,-0.098 0.063,-0.129c0.042,-0.03 0.101,-0.045 0.176,-0.045l0.088,-0l0,-0.042c0,-0.031 -0.009,-0.057 -0.028,-0.075c-0.019,-0.019 -0.047,-0.028 -0.083,-0.028c-0.033,-0 -0.06,0.008 -0.081,0.024c-0.022,0.016 -0.033,0.036 -0.033,0.059l-0.091,0c-0,-0.026 0.009,-0.052 0.028,-0.076c0.019,-0.025 0.044,-0.044 0.076,-0.059c0.032,-0.014 0.068,-0.021 0.106,-0.021c0.061,-0 0.108,0.015 0.143,0.046c0.034,0.03 0.052,0.072 0.054,0.125l-0,0.243c-0,0.049 0.006,0.088 0.018,0.116l0,0.008l-0.094,0Zm-0.15,-0.069c0.028,0 0.055,-0.007 0.08,-0.022c0.026,-0.014 0.044,-0.034 0.055,-0.057l0,-0.108l-0.07,-0c-0.111,-0 -0.166,0.032 -0.166,0.097c-0,0.028 0.009,0.05 0.028,0.066c0.019,0.016 0.043,0.024 0.073,0.024Z" style="fill-rule:nonzero;"/></g><g transform="matrix(48,0,0,48,554.453,435.351)"><path d="M0.153,-0.528l0.003,0.058c0.038,-0.045 0.091,-0.068 0.157,-0.068c0.073,-0 0.124,0.028 0.15,0.085c0.018,-0.026 0.041,-0.046 0.069,-0.062c0.028,-0.015 0.061,-0.023 0.1,-0.023c0.116,-0 0.175,0.061 0.177,0.184l-0,0.354l-0.091,0l0,-0.349c0,-0.037 -0.008,-0.066 -0.026,-0.084c-0.017,-0.019 -0.046,-0.028 -0.087,-0.028c-0.033,-0 -0.061,0.01 -0.083,0.03c-0.022,0.02 -0.035,0.047 -0.039,0.08l0,0.351l-0.09,0l-0,-0.346c-0,-0.077 -0.038,-0.115 -0.113,-0.115c-0.059,-0 -0.1,0.025 -0.122,0.075l0,0.386l-0.09,0l-0,-0.528l0.085,-0Z" style="fill-rule:nonzero;"/></g><g transform="matrix(48,0,0,48,596.524,435.351)"><path d="M0.167,-0l-0.091,-0l0,-0.528l0.091,-0l-0,0.528Zm-0.098,-0.668c-0,-0.015 0.004,-0.027 0.013,-0.038c0.009,-0.01 0.022,-0.015 0.04,-0.015c0.018,0 0.031,0.005 0.04,0.015c0.009,0.011 0.014,0.023 0.014,0.038c-0,0.014 -0.005,0.026 -0.014,0.036c-0.009,0.01 -0.022,0.015 -0.04,0.015c-0.018,-0 -0.031,-0.005 -0.04,-0.015c-0.009,-0.01 -0.013,-0.022 -0.013,-0.036Z" style="fill-rule:nonzero;"/></g><g transform="matrix(48,0,0,48,608.172,435.351)"><rect x="0.076" y="-0.75" width="0.09" height="0.75" style="fill-rule:nonzero;"/></g><g transform="matrix(48,0,0,48,619.82,435.351)"><path d="M0.241,-0.132l0.123,-0.396l0.097,-0l-0.212,0.61c-0.033,0.087 -0.086,0.131 -0.157,0.131l-0.017,-0.001l-0.034,-0.006l0,-0.074l0.024,0.002c0.031,0 0.055,-0.006 0.072,-0.018c0.017,-0.013 0.031,-0.035 0.042,-0.068l0.02,-0.054l-0.188,-0.522l0.098,-0l0.132,0.396Z" style="fill-rule:nonzero;"/></g><g transform="matrix(48,0,0,48,642.531,435.351)"><path d="M0.629,-0l-0.094,-0l-0.358,-0.548l-0,0.548l-0.094,-0l-0,-0.711l0.094,0l0.359,0.55l-0,-0.55l0.093,0l-0,0.711Z" style="fill-rule:nonzero;"/></g><g transform="matrix(48,0,0,48,676.75,435.351)"><path d="M0.395,-0c-0.006,-0.01 -0.01,-0.029 -0.013,-0.056c-0.042,0.044 -0.092,0.066 -0.151,0.066c-0.052,-0 -0.094,-0.015 -0.128,-0.044c-0.033,-0.03 -0.05,-0.067 -0.05,-0.112c0,-0.055 0.021,-0.098 0.063,-0.129c0.042,-0.03 0.101,-0.045 0.176,-0.045l0.088,-0l0,-0.042c0,-0.031 -0.009,-0.057 -0.028,-0.075c-0.019,-0.019 -0.047,-0.028 -0.083,-0.028c-0.033,-0 -0.06,0.008 -0.081,0.024c-0.022,0.016 -0.033,0.036 -0.033,0.059l-0.091,0c-0,-0.026 0.009,-0.052 0.028,-0.076c0.019,-0.025 0.044,-0.044 0.076,-0.059c0.032,-0.014 0.068,-0.021 0.106,-0.021c0.061,-0 0.108,0.015 0.143,0.046c0.034,0.03 0.052,0.072 0.054,0.125l-0,0.243c-0,0.049 0.006,0.088 0.018,0.116l0,0.008l-0.094,0Zm-0.15,-0.069c0.028,0 0.055,-0.007 0.08,-0.022c0.026,-0.014 0.044,-0.034 0.055,-0.057l0,-0.108l-0.07,-0c-0.111,-0 -0.166,0.032 -0.166,0.097c-0,0.028 0.009,0.05 0.028,0.066c0.019,0.016 0.043,0.024 0.073,0.024Z" style="fill-rule:nonzero;"/></g><g transform="matrix(48,0,0,48,702.859,435.351)"><path d="M0.153,-0.528l0.003,0.058c0.038,-0.045 0.091,-0.068 0.157,-0.068c0.073,-0 0.124,0.028 0.15,0.085c0.018,-0.026 0.041,-0.046 0.069,-0.062c0.028,-0.015 0.061,-0.023 0.1,-0.023c0.116,-0 0.175,0.061 0.177,0.184l-0,0.354l-0.091,0l0,-0.349c0,-0.037 -0.008,-0.066 -0.026,-0.084c-0.017,-0.019 -0.046,-0.028 -0.087,-0.028c-0.033,-0 -0.061,0.01 -0.083,0.03c-0.022,0.02 -0.035,0.047 -0.039,0.08l0,0.351l-0.09,0l-0,-0.346c-0,-0.077 -0.038,-0.115 -0.113,-0.115c-0.059,-0 -0.1,0.025 -0.122,0.075l0,0.386l-0.09,0l-0,-0.528l0.085,-0Z" style="fill-rule:nonzero;"/></g><g transform="matrix(48,0,0,48,744.93,435.351)"><path d="M0.288,0.01c-0.072,-0 -0.13,-0.024 -0.175,-0.071c-0.045,-0.047 -0.068,-0.11 -0.068,-0.189l0,-0.016c0,-0.053 0.01,-0.099 0.03,-0.14c0.02,-0.042 0.048,-0.074 0.084,-0.097c0.036,-0.023 0.075,-0.035 0.117,-0.035c0.069,-0 0.122,0.023 0.161,0.068c0.038,0.045 0.057,0.11 0.057,0.194l-0,0.038l-0.358,-0c0.001,0.052 0.016,0.094 0.045,0.126c0.03,0.032 0.067,0.048 0.111,0.048c0.032,0 0.059,-0.006 0.082,-0.019c0.022,-0.014 0.041,-0.031 0.058,-0.052l0.055,0.043c-0.044,0.068 -0.111,0.102 -0.199,0.102Zm-0.012,-0.474c-0.036,0 -0.067,0.013 -0.091,0.04c-0.025,0.026 -0.04,0.064 -0.046,0.112l0.264,-0l0,-0.007c-0.002,-0.046 -0.015,-0.082 -0.037,-0.107c-0.022,-0.025 -0.052,-0.038 -0.09,-0.038Z" style="fill-rule:nonzero;"/></g><g transform="matrix(48,0,0,48,835.68,435.351)"><path d="M0.536,-0.125l0.102,-0.403l0.09,-0l-0.154,0.528l-0.073,-0l-0.128,-0.4l-0.125,0.4l-0.074,-0l-0.153,-0.528l0.09,-0l0.104,0.395l0.123,-0.395l0.073,-0l0.125,0.403Z" style="fill-rule:nonzero;"/></g><g transform="matrix(48,0,0,48,871.75,435.351)"><path d="M0.044,-0.269c0,-0.052 0.011,-0.098 0.031,-0.14c0.02,-0.041 0.049,-0.073 0.085,-0.095c0.036,-0.023 0.078,-0.034 0.124,-0.034c0.072,-0 0.13,0.025 0.175,0.075c0.044,0.049 0.066,0.116 0.066,0.198l0,0.007c0,0.051 -0.009,0.097 -0.029,0.138c-0.02,0.041 -0.048,0.073 -0.085,0.096c-0.036,0.022 -0.078,0.034 -0.126,0.034c-0.071,-0 -0.129,-0.025 -0.174,-0.075c-0.044,-0.05 -0.067,-0.116 -0.067,-0.198l0,-0.006Zm0.091,0.011c0,0.058 0.014,0.105 0.041,0.141c0.027,0.035 0.064,0.053 0.109,0.053c0.046,0 0.083,-0.018 0.11,-0.054c0.027,-0.036 0.04,-0.086 0.04,-0.151c0,-0.058 -0.014,-0.105 -0.041,-0.141c-0.028,-0.036 -0.064,-0.054 -0.11,-0.054c-0.044,0 -0.08,0.018 -0.108,0.053c-0.027,0.036 -0.041,0.087 -0.041,0.153Z" style="fill-rule:nonzero;"/></g><g transform="matrix(48,0,0,48,899.125,435.351)"><path d="M0.324,-0.447c-0.014,-0.003 -0.029,-0.004 -0.045,-0.004c-0.059,0 -0.099,0.026 -0.12,0.076l-0,0.375l-0.091,-0l0,-0.528l0.088,-0l0.002,0.061c0.029,-0.047 0.071,-0.071 0.126,-0.071c0.017,-0 0.031,0.002 0.04,0.007l-0,0.084Z" style="fill-rule:nonzero;"/></g><g transform="matrix(48,0,0,48,915.367,435.351)"><path d="M0.216,-0.245l-0.057,0.059l0,0.186l-0.09,-0l-0,-0.75l0.09,0l0,0.454l0.049,-0.058l0.164,-0.174l0.11,-0l-0.206,0.22l0.23,0.308l-0.106,0l-0.184,-0.245Z" style="fill-rule:nonzero;"/></g><g transform="matrix(48,0,0,48,939.695,435.351)"><path d="M0.376,-0.14c-0,-0.025 -0.009,-0.044 -0.028,-0.057c-0.018,-0.014 -0.05,-0.025 -0.096,-0.035c-0.046,-0.01 -0.082,-0.021 -0.109,-0.035c-0.027,-0.014 -0.046,-0.03 -0.059,-0.049c-0.013,-0.019 -0.02,-0.041 -0.02,-0.067c0,-0.044 0.019,-0.08 0.055,-0.11c0.037,-0.03 0.084,-0.045 0.141,-0.045c0.06,-0 0.108,0.015 0.146,0.046c0.037,0.031 0.055,0.071 0.055,0.119l-0.09,-0c-0,-0.025 -0.011,-0.046 -0.032,-0.064c-0.021,-0.018 -0.047,-0.027 -0.079,-0.027c-0.033,0 -0.059,0.007 -0.077,0.022c-0.019,0.014 -0.028,0.033 -0.028,0.056c-0,0.022 0.008,0.038 0.026,0.049c0.017,0.011 0.048,0.022 0.093,0.032c0.045,0.01 0.082,0.022 0.11,0.036c0.028,0.014 0.049,0.031 0.062,0.05c0.014,0.02 0.02,0.044 0.02,0.073c0,0.047 -0.019,0.085 -0.056,0.113c-0.038,0.029 -0.087,0.043 -0.147,0.043c-0.043,-0 -0.08,-0.008 -0.113,-0.023c-0.032,-0.015 -0.058,-0.036 -0.076,-0.062c-0.018,-0.027 -0.028,-0.056 -0.028,-0.088l0.091,0c0.001,0.031 0.013,0.055 0.036,0.072c0.023,0.018 0.053,0.027 0.09,0.027c0.034,0 0.061,-0.007 0.082,-0.021c0.021,-0.014 0.031,-0.032 0.031,-0.055Z" style="fill-rule:nonzero;"/></g><g transform="matrix(48,0,0,48,964.445,435.351)"><path d="M0.475,-0.314l-0.299,0l0,0.314l-0.093,-0l-0,-0.711l0.44,0l-0,0.077l-0.347,0l0,0.243l0.299,0l-0,0.077Z" style="fill-rule:nonzero;"/></g><g transform="matrix(48,0,0,48,990.484,435.351)"><path d="M0.044,-0.269c0,-0.052 0.011,-0.098 0.031,-0.14c0.02,-0.041 0.049,-0.073 0.085,-0.095c0.036,-0.023 0.078,-0.034 0.124,-0.034c0.072,-0 0.13,0.025 0.175,0.075c0.044,0.049 0.066,0.116 0.066,0.198l0,0.007c0,0.051 -0.009,0.097 -0.029,0.138c-0.02,0.041 -0.048,0.073 -0.085,0.096c-0.036,0.022 -0.078,0.034 -0.126,0.034c-0.071,-0 -0.129,-0.025 -0.174,-0.075c-0.044,-0.05 -0.067,-0.116 -0.067,-0.198l0,-0.006Zm0.091,0.011c0,0.058 0.014,0.105 0.041,0.141c0.027,0.035 0.064,0.053 0.109,0.053c0.046,0 0.083,-0.018 0.11,-0.054c0.027,-0.036 0.04,-0.086 0.04,-0.151c0,-0.058 -0.014,-0.105 -0.041,-0.141c-0.028,-0.036 -0.064,-0.054 -0.11,-0.054c-0.044,0 -0.08,0.018 -0.108,0.053c-0.027,0.036 -0.041,0.087 -0.041,0.153Z" style="fill-rule:nonzero;"/></g><g transform="matrix(48,0,0,48,1017.86,435.351)"><path d="M0.324,-0.447c-0.014,-0.003 -0.029,-0.004 -0.045,-0.004c-0.059,0 -0.099,0.026 -0.12,0.076l-0,0.375l-0.091,-0l0,-0.528l0.088,-0l0.002,0.061c0.029,-0.047 0.071,-0.071 0.126,-0.071c0.017,-0 0.031,0.002 0.04,0.007l-0,0.084Z" style="fill-rule:nonzero;"/></g><g transform="matrix(48,0,0,48,1045.98,435.351)"><path d="M0.07,-0.047c0,-0.016 0.005,-0.029 0.014,-0.039c0.01,-0.011 0.023,-0.016 0.042,-0.016c0.019,-0 0.033,0.005 0.042,0.016c0.01,0.01 0.015,0.023 0.015,0.039c-0,0.015 -0.005,0.027 -0.015,0.037c-0.009,0.01 -0.023,0.015 -0.042,0.015c-0.019,0 -0.032,-0.005 -0.042,-0.015c-0.009,-0.01 -0.014,-0.022 -0.014,-0.037Z" style="fill-rule:nonzero;"/></g><rect x="115.68" y="438.867" width="942.937" height="2.344"/><g transform="matrix(48,0,0,48,115.68,555.351)"><path d="M0.505,-0.303c-0,0.106 -0.018,0.184 -0.054,0.236c-0.036,0.051 -0.093,0.077 -0.17,0.077c-0.076,-0 -0.132,-0.025 -0.168,-0.076c-0.037,-0.05 -0.056,-0.125 -0.057,-0.225l0,-0.121c0,-0.104 0.018,-0.182 0.054,-0.233c0.036,-0.05 0.093,-0.076 0.17,-0.076c0.077,0 0.133,0.025 0.169,0.074c0.036,0.049 0.055,0.124 0.056,0.227l-0,0.117Zm-0.09,-0.124c-0,-0.076 -0.011,-0.132 -0.033,-0.167c-0.021,-0.035 -0.055,-0.052 -0.102,-0.052c-0.046,-0 -0.08,0.017 -0.101,0.052c-0.021,0.035 -0.032,0.088 -0.033,0.16l0,0.145c0,0.077 0.012,0.133 0.034,0.17c0.022,0.037 0.056,0.055 0.101,0.055c0.045,0 0.078,-0.017 0.1,-0.052c0.021,-0.034 0.033,-0.089 0.034,-0.163l-0,-0.148Z" style="fill-rule:nonzero;"/></g><g transform="matrix(48,0,0,48,142.633,555.351)"><path d="M0.356,-0l-0.091,-0l0,-0.602l-0.182,0.067l0,-0.082l0.259,-0.097l0.014,-0l-0,0.714Z" style="fill-rule:nonzero;"/></g><g transform="matrix(48,0,0,48,223.68,555.351)"><path d="M0.083,-0l-0,-0.711l0.2,0c0.062,0 0.117,0.014 0.164,0.041c0.048,0.027 0.084,0.066 0.11,0.117c0.026,0.05 0.039,0.108 0.04,0.174l-0,0.045c-0,0.067 -0.013,0.126 -0.039,0.176c-0.026,0.051 -0.063,0.089 -0.111,0.116c-0.048,0.028 -0.104,0.041 -0.168,0.042l-0.196,-0Zm0.093,-0.634l0,0.557l0.099,0c0.072,0 0.128,-0.022 0.169,-0.067c0.04,-0.045 0.06,-0.109 0.06,-0.192l-0,-0.041c-0,-0.081 -0.019,-0.144 -0.057,-0.189c-0.038,-0.044 -0.092,-0.067 -0.161,-0.068l-0.11,0Z" style="fill-rule:nonzero;"/></g><g transform="matrix(48,0,0,48,255.156,555.351)"><path d="M0.162,-0.528l-0,0.589c-0,0.102 -0.046,0.152 -0.139,0.152c-0.019,0 -0.038,-0.003 -0.055,-0.008l0,-0.073c0.011,0.003 0.024,0.004 0.041,0.004c0.02,0 0.036,-0.005 0.046,-0.016c0.011,-0.011 0.016,-0.03 0.016,-0.057l0,-0.591l0.091,-0Zm-0.1,-0.14c0,-0.015 0.004,-0.027 0.013,-0.037c0.009,-0.011 0.022,-0.016 0.04,-0.016c0.017,0 0.031,0.005 0.04,0.015c0.009,0.011 0.013,0.023 0.013,0.038c0,0.014 -0.004,0.026 -0.013,0.036c-0.009,0.01 -0.023,0.015 -0.04,0.015c-0.018,-0 -0.031,-0.005 -0.04,-0.015c-0.009,-0.01 -0.013,-0.022 -0.013,-0.036Z" style="fill-rule:nonzero;"/></g><g transform="matrix(48,0,0,48,266.617,555.351)"><path d="M0.288,0.01c-0.072,-0 -0.13,-0.024 -0.175,-0.071c-0.045,-0.047 -0.068,-0.11 -0.068,-0.189l0,-0.016c0,-0.053 0.01,-0.099 0.03,-0.14c0.02,-0.042 0.048,-0.074 0.084,-0.097c0.036,-0.023 0.075,-0.035 0.117,-0.035c0.069,-0 0.122,0.023 0.161,0.068c0.038,0.045 0.057,0.11 0.057,0.194l-0,0.038l-0.358,-0c0.001,0.052 0.016,0.094 0.045,0.126c0.03,0.032 0.067,0.048 0.111,0.048c0.032,0 0.059,-0.006 0.082,-0.019c0.022,-0.014 0.041,-0.031 0.058,-0.052l0.055,0.043c-0.044,0.068 -0.111,0.102 -0.199,0.102Zm-0.012,-0.474c-0.036,0 -0.067,0.013 -0.091,0.04c-0.025,0.026 -0.04,0.064 -0.046,0.112l0.264,-0l0,-0.007c-0.002,-0.046 -0.015,-0.082 -0.037,-0.107c-0.022,-0.025 -0.052,-0.038 -0.09,-0.038Z" style="fill-rule:nonzero;"/></g><g transform="matrix(48,0,0,48,292.047,555.351)"><rect x="0.076" y="-0.75" width="0.09" height="0.75" style="fill-rule:nonzero;"/></g><g transform="matrix(48,0,0,48,303.695,555.351)"><rect x="0.076" y="-0.75" width="0.09" height="0.75" style="fill-rule:nonzero;"/></g><g transform="matrix(48,0,0,48,315.344,555.351)"><path d="M0.288,0.01c-0.072,-0 -0.13,-0.024 -0.175,-0.071c-0.045,-0.047 -0.068,-0.11 -0.068,-0.189l0,-0.016c0,-0.053 0.01,-0.099 0.03,-0.14c0.02,-0.042 0.048,-0.074 0.084,-0.097c0.036,-0.023 0.075,-0.035 0.117,-0.035c0.069,-0 0.122,0.023 0.161,0.068c0.038,0.045 0.057,0.11 0.057,0.194l-0,0.038l-0.358,-0c0.001,0.052 0.016,0.094 0.045,0.126c0.03,0.032 0.067,0.048 0.111,0.048c0.032,0 0.059,-0.006 0.082,-0.019c0.022,-0.014 0.041,-0.031 0.058,-0.052l0.055,0.043c-0.044,0.068 -0.111,0.102 -0.199,0.102Zm-0.012,-0.474c-0.036,0 -0.067,0.013 -0.091,0.04c-0.025,0.026 -0.04,0.064 -0.046,0.112l0.264,-0l0,-0.007c-0.002,-0.046 -0.015,-0.082 -0.037,-0.107c-0.022,-0.025 -0.052,-0.038 -0.09,-0.038Z" style="fill-rule:nonzero;"/></g><g transform="matrix(48,0,0,48,340.774,555.351)"><rect x="0.076" y="-0.75" width="0.09" height="0.75" style="fill-rule:nonzero;"/></g><g transform="matrix(48,0,0,48,511.68,555.351)"><path d="M0.083,-0l-0,-0.711l0.2,0c0.062,0 0.117,0.014 0.164,0.041c0.048,0.027 0.084,0.066 0.11,0.117c0.026,0.05 0.039,0.108 0.04,0.174l-0,0.045c-0,0.067 -0.013,0.126 -0.039,0.176c-0.026,0.051 -0.063,0.089 -0.111,0.116c-0.048,0.028 -0.104,0.041 -0.168,0.042l-0.196,-0Zm0.093,-0.634l0,0.557l0.099,0c0.072,0 0.128,-0.022 0.169,-0.067c0.04,-0.045 0.06,-0.109 0.06,-0.192l-0,-0.041c-0,-0.081 -0.019,-0.144 -0.057,-0.189c-0.038,-0.044 -0.092,-0.067 -0.161,-0.068l-0.11,0Z" style="fill-rule:nonzero;"/></g><g transform="matrix(48,0,0,48,543.156,555.351)"><path d="M0.167,-0l-0.091,-0l0,-0.528l0.091,-0l-0,0.528Zm-0.098,-0.668c-0,-0.015 0.004,-0.027 0.013,-0.038c0.009,-0.01 0.022,-0.015 0.04,-0.015c0.018,0 0.031,0.005 0.04,0.015c0.009,0.011 0.014,0.023 0.014,0.038c-0,0.014 -0.005,0.026 -0.014,0.036c-0.009,0.01 -0.022,0.015 -0.04,0.015c-0.018,-0 -0.031,-0.005 -0.04,-0.015c-0.009,-0.01 -0.013,-0.022 -0.013,-0.036Z" style="fill-rule:nonzero;"/></g><g transform="matrix(48,0,0,48,554.805,555.351)"><path d="M0.113,-0l-0,-0.458l-0.084,-0l0,-0.07l0.084,-0l-0,-0.055c-0,-0.056 0.015,-0.1 0.045,-0.131c0.03,-0.031 0.073,-0.046 0.129,-0.046c0.02,-0 0.041,0.003 0.062,0.008l-0.005,0.073c-0.016,-0.003 -0.032,-0.004 -0.049,-0.004c-0.029,-0 -0.052,0.008 -0.068,0.026c-0.016,0.017 -0.024,0.041 -0.024,0.073l0,0.056l0.113,-0l-0,0.07l-0.113,-0l0,0.458l-0.09,0Z" style="fill-rule:nonzero;"/></g><g transform="matrix(48,0,0,48,571.469,555.351)"><path d="M0.395,-0c-0.006,-0.01 -0.01,-0.029 -0.013,-0.056c-0.042,0.044 -0.092,0.066 -0.151,0.066c-0.052,-0 -0.094,-0.015 -0.128,-0.044c-0.033,-0.03 -0.05,-0.067 -0.05,-0.112c0,-0.055 0.021,-0.098 0.063,-0.129c0.042,-0.03 0.101,-0.045 0.176,-0.045l0.088,-0l0,-0.042c0,-0.031 -0.009,-0.057 -0.028,-0.075c-0.019,-0.019 -0.047,-0.028 -0.083,-0.028c-0.033,-0 -0.06,0.008 -0.081,0.024c-0.022,0.016 -0.033,0.036 -0.033,0.059l-0.091,0c-0,-0.026 0.009,-0.052 0.028,-0.076c0.019,-0.025 0.044,-0.044 0.076,-0.059c0.032,-0.014 0.068,-0.021 0.106,-0.021c0.061,-0 0.108,0.015 0.143,0.046c0.034,0.03 0.052,0.072 0.054,0.125l-0,0.243c-0,0.049 0.006,0.088 0.018,0.116l0,0.008l-0.094,0Zm-0.15,-0.069c0.028,0 0.055,-0.007 0.08,-0.022c0.026,-0.014 0.044,-0.034 0.055,-0.057l0,-0.108l-0.07,-0c-0.111,-0 -0.166,0.032 -0.166,0.097c-0,0.028 0.009,0.05 0.028,0.066c0.019,0.016 0.043,0.024 0.073,0.024Z" style="fill-rule:nonzero;"/></g><g transform="matrix(48,0,0,48,597.578,555.351)"><rect x="0.076" y="-0.75" width="0.09" height="0.75" style="fill-rule:nonzero;"/></g><g transform="matrix(48,0,0,48,609.227,555.351)"><rect x="0.076" y="-0.75" width="0.09" height="0.75" style="fill-rule:nonzero;"/></g><g transform="matrix(48,0,0,48,620.875,555.351)"><path d="M0.395,-0c-0.006,-0.01 -0.01,-0.029 -0.013,-0.056c-0.042,0.044 -0.092,0.066 -0.151,0.066c-0.052,-0 -0.094,-0.015 -0.128,-0.044c-0.033,-0.03 -0.05,-0.067 -0.05,-0.112c0,-0.055 0.021,-0.098 0.063,-0.129c0.042,-0.03 0.101,-0.045 0.176,-0.045l0.088,-0l0,-0.042c0,-0.031 -0.009,-0.057 -0.028,-0.075c-0.019,-0.019 -0.047,-0.028 -0.083,-0.028c-0.033,-0 -0.06,0.008 -0.081,0.024c-0.022,0.016 -0.033,0.036 -0.033,0.059l-0.091,0c-0,-0.026 0.009,-0.052 0.028,-0.076c0.019,-0.025 0.044,-0.044 0.076,-0.059c0.032,-0.014 0.068,-0.021 0.106,-0.021c0.061,-0 0.108,0.015 0.143,0.046c0.034,0.03 0.052,0.072 0.054,0.125l-0,0.243c-0,0.049 0.006,0.088 0.018,0.116l0,0.008l-0.094,0Zm-0.15,-0.069c0.028,0 0.055,-0.007 0.08,-0.022c0.026,-0.014 0.044,-0.034 0.055,-0.057l0,-0.108l-0.07,-0c-0.111,-0 -0.166,0.032 -0.166,0.097c-0,0.028 0.009,0.05 0.028,0.066c0.019,0.016 0.043,0.024 0.073,0.024Z" style="fill-rule:nonzero;"/></g><g transform="matrix(48,0,0,48,646.984,555.351)"><path d="M0.159,-0.464c0.04,-0.05 0.092,-0.074 0.156,-0.074c0.112,-0 0.168,0.063 0.169,0.189l-0,0.349l-0.09,-0l-0,-0.35c-0.001,-0.038 -0.009,-0.066 -0.027,-0.084c-0.017,-0.018 -0.043,-0.027 -0.079,-0.027c-0.03,-0 -0.055,0.007 -0.078,0.023c-0.022,0.016 -0.039,0.036 -0.051,0.062l-0,0.376l-0.091,0l0,-0.75l0.091,0l-0,0.286Z" style="fill-rule:nonzero;"/></g><g transform="matrix(48,0,0,48,835.68,555.351)"><path d="M0.629,-0l-0.094,-0l-0.358,-0.548l-0,0.548l-0.094,-0l-0,-0.711l0.094,0l0.359,0.55l-0,-0.55l0.093,0l-0,0.711Z" style="fill-rule:nonzero;"/></g><g transform="matrix(48,0,0,48,869.242,555.351)"><path d="M0.299,-0.354l0.186,-0.357l0.106,0l-0.245,0.446l0,0.265l-0.094,-0l0,-0.265l-0.245,-0.446l0.108,0l0.184,0.357Z" style="fill-rule:nonzero;"/></g><g transform="matrix(48,0,0,48,895.82,555.351)"><path d="M0.583,-0.711l0,0.483c-0,0.068 -0.021,0.122 -0.063,0.165c-0.042,0.043 -0.099,0.067 -0.17,0.072l-0.025,0.001c-0.078,-0 -0.14,-0.021 -0.186,-0.063c-0.047,-0.042 -0.07,-0.1 -0.071,-0.174l0,-0.484l0.093,0l0,0.482c0,0.051 0.014,0.091 0.043,0.119c0.028,0.029 0.068,0.043 0.121,0.043c0.053,0 0.093,-0.014 0.122,-0.042c0.028,-0.029 0.042,-0.069 0.042,-0.12l-0,-0.482l0.094,0Z" style="fill-rule:nonzero;"/></g><g transform="matrix(48,0,0,48,926.43,555.351)"><path d="M0.475,-0.186l-0.298,0l-0.067,0.186l-0.096,-0l0.271,-0.711l0.082,0l0.272,0.711l-0.096,-0l-0.068,-0.186Zm-0.269,-0.077l0.241,0l-0.121,-0.332l-0.12,0.332Z" style="fill-rule:nonzero;"/></g><g transform="matrix(48,0,0,48,957.742,555.351)"><path d="M0.083,-0l-0,-0.711l0.2,0c0.062,0 0.117,0.014 0.164,0.041c0.048,0.027 0.084,0.066 0.11,0.117c0.026,0.05 0.039,0.108 0.04,0.174l-0,0.045c-0,0.067 -0.013,0.126 -0.039,0.176c-0.026,0.051 -0.063,0.089 -0.111,0.116c-0.048,0.028 -0.104,0.041 -0.168,0.042l-0.196,-0Zm0.093,-0.634l0,0.557l0.099,0c0.072,0 0.128,-0.022 0.169,-0.067c0.04,-0.045 0.06,-0.109 0.06,-0.192l-0,-0.041c-0,-0.081 -0.019,-0.144 -0.057,-0.189c-0.038,-0.044 -0.092,-0.067 -0.161,-0.068l-0.11,0Z" style="fill-rule:nonzero;"/></g><g transform="matrix(48,0,0,48,115.68,627.351)"><path d="M0.505,-0.303c-0,0.106 -0.018,0.184 -0.054,0.236c-0.036,0.051 -0.093,0.077 -0.17,0.077c-0.076,-0 -0.132,-0.025 -0.168,-0.076c-0.037,-0.05 -0.056,-0.125 -0.057,-0.225l0,-0.121c0,-0.104 0.018,-0.182 0.054,-0.233c0.036,-0.05 0.093,-0.076 0.17,-0.076c0.077,0 0.133,0.025 0.169,0.074c0.036,0.049 0.055,0.124 0.056,0.227l-0,0.117Zm-0.09,-0.124c-0,-0.076 -0.011,-0.132 -0.033,-0.167c-0.021,-0.035 -0.055,-0.052 -0.102,-0.052c-0.046,-0 -0.08,0.017 -0.101,0.052c-0.021,0.035 -0.032,0.088 -0.033,0.16l0,0.145c0,0.077 0.012,0.133 0.034,0.17c0.022,0.037 0.056,0.055 0.101,0.055c0.045,0 0.078,-0.017 0.1,-0.052c0.021,-0.034 0.033,-0.089 0.034,-0.163l-0,-0.148Z" style="fill-rule:nonzero;"/></g><g transform="matrix(48,0,0,48,142.633,627.351)"><path d="M0.525,-0l-0.466,-0l0,-0.065l0.246,-0.273c0.037,-0.042 0.062,-0.075 0.076,-0.101c0.013,-0.026 0.02,-0.053 0.02,-0.081c0,-0.037 -0.011,-0.067 -0.033,-0.091c-0.023,-0.024 -0.053,-0.035 -0.09,-0.035c-0.045,-0 -0.08,0.012 -0.105,0.038c-0.025,0.025 -0.037,0.061 -0.037,0.107l-0.091,-0c0,-0.066 0.021,-0.119 0.064,-0.159c0.042,-0.041 0.098,-0.061 0.169,-0.061c0.066,0 0.118,0.018 0.157,0.052c0.038,0.035 0.057,0.081 0.057,0.139c0,0.07 -0.044,0.153 -0.134,0.25l-0.19,0.206l0.357,0l-0,0.074Z" style="fill-rule:nonzero;"/></g><g transform="matrix(48,0,0,48,223.68,627.351)"><path d="M0.318,-0.125l0.203,-0.586l0.103,0l-0.264,0.711l-0.083,-0l-0.263,-0.711l0.102,0l0.202,0.586Z" style="fill-rule:nonzero;"/></g><g transform="matrix(48,0,0,48,254.219,627.351)"><path d="M0.167,-0l-0.091,-0l0,-0.528l0.091,-0l-0,0.528Zm-0.098,-0.668c-0,-0.015 0.004,-0.027 0.013,-0.038c0.009,-0.01 0.022,-0.015 0.04,-0.015c0.018,0 0.031,0.005 0.04,0.015c0.009,0.011 0.014,0.023 0.014,0.038c-0,0.014 -0.005,0.026 -0.014,0.036c-0.009,0.01 -0.022,0.015 -0.04,0.015c-0.018,-0 -0.031,-0.005 -0.04,-0.015c-0.009,-0.01 -0.013,-0.022 -0.013,-0.036Z" style="fill-rule:nonzero;"/></g><g transform="matrix(48,0,0,48,265.867,627.351)"><rect x="0.076" y="-0.75" width="0.09" height="0.75" style="fill-rule:nonzero;"/></g><g transform="matrix(48,0,0,48,277.516,627.351)"><path d="M0.153,-0.528l0.003,0.058c0.038,-0.045 0.091,-0.068 0.157,-0.068c0.073,-0 0.124,0.028 0.15,0.085c0.018,-0.026 0.041,-0.046 0.069,-0.062c0.028,-0.015 0.061,-0.023 0.1,-0.023c0.116,-0 0.175,0.061 0.177,0.184l-0,0.354l-0.091,0l0,-0.349c0,-0.037 -0.008,-0.066 -0.026,-0.084c-0.017,-0.019 -0.046,-0.028 -0.087,-0.028c-0.033,-0 -0.061,0.01 -0.083,0.03c-0.022,0.02 -0.035,0.047 -0.039,0.08l0,0.351l-0.09,0l-0,-0.346c-0,-0.077 -0.038,-0.115 -0.113,-0.115c-0.059,-0 -0.1,0.025 -0.122,0.075l0,0.386l-0.09,0l-0,-0.528l0.085,-0Z" style="fill-rule:nonzero;"/></g><g transform="matrix(48,0,0,48,319.586,627.351)"><path d="M0.395,-0c-0.006,-0.01 -0.01,-0.029 -0.013,-0.056c-0.042,0.044 -0.092,0.066 -0.151,0.066c-0.052,-0 -0.094,-0.015 -0.128,-0.044c-0.033,-0.03 -0.05,-0.067 -0.05,-0.112c0,-0.055 0.021,-0.098 0.063,-0.129c0.042,-0.03 0.101,-0.045 0.176,-0.045l0.088,-0l0,-0.042c0,-0.031 -0.009,-0.057 -0.028,-0.075c-0.019,-0.019 -0.047,-0.028 -0.083,-0.028c-0.033,-0 -0.06,0.008 -0.081,0.024c-0.022,0.016 -0.033,0.036 -0.033,0.059l-0.091,0c-0,-0.026 0.009,-0.052 0.028,-0.076c0.019,-0.025 0.044,-0.044 0.076,-0.059c0.032,-0.014 0.068,-0.021 0.106,-0.021c0.061,-0 0.108,0.015 0.143,0.046c0.034,0.03 0.052,0.072 0.054,0.125l-0,0.243c-0,0.049 0.006,0.088 0.018,0.116l0,0.008l-0.094,0Zm-0.15,-0.069c0.028,0 0.055,-0.007 0.08,-0.022c0.026,-0.014 0.044,-0.034 0.055,-0.057l0,-0.108l-0.07,-0c-0.111,-0 -0.166,0.032 -0.166,0.097c-0,0.028 0.009,0.05 0.028,0.066c0.019,0.016 0.043,0.024 0.073,0.024Z" style="fill-rule:nonzero;"/></g><g transform="matrix(48,0,0,48,511.68,627.351)"><path d="M0.475,-0.186l-0.298,0l-0.067,0.186l-0.096,-0l0.271,-0.711l0.082,0l0.272,0.711l-0.096,-0l-0.068,-0.186Zm-0.269,-0.077l0.241,0l-0.121,-0.332l-0.12,0.332Z" style="fill-rule:nonzero;"/></g><g transform="matrix(48,0,0,48,542.992,627.351)"><path d="M0.324,-0.447c-0.014,-0.003 -0.029,-0.004 -0.045,-0.004c-0.059,0 -0.099,0.026 -0.12,0.076l-0,0.375l-0.091,-0l0,-0.528l0.088,-0l0.002,0.061c0.029,-0.047 0.071,-0.071 0.126,-0.071c0.017,-0 0.031,0.002 0.04,0.007l-0,0.084Z" style="fill-rule:nonzero;"/></g><g transform="matrix(48,0,0,48,559.234,627.351)"><path d="M0.324,-0.447c-0.014,-0.003 -0.029,-0.004 -0.045,-0.004c-0.059,0 -0.099,0.026 -0.12,0.076l-0,0.375l-0.091,-0l0,-0.528l0.088,-0l0.002,0.061c0.029,-0.047 0.071,-0.071 0.126,-0.071c0.017,-0 0.031,0.002 0.04,0.007l-0,0.084Z" style="fill-rule:nonzero;"/></g><g transform="matrix(48,0,0,48,575.477,627.351)"><path d="M0.167,-0l-0.091,-0l0,-0.528l0.091,-0l-0,0.528Zm-0.098,-0.668c-0,-0.015 0.004,-0.027 0.013,-0.038c0.009,-0.01 0.022,-0.015 0.04,-0.015c0.018,0 0.031,0.005 0.04,0.015c0.009,0.011 0.014,0.023 0.014,0.038c-0,0.014 -0.005,0.026 -0.014,0.036c-0.009,0.01 -0.022,0.015 -0.04,0.015c-0.018,-0 -0.031,-0.005 -0.04,-0.015c-0.009,-0.01 -0.013,-0.022 -0.013,-0.036Z" style="fill-rule:nonzero;"/></g><g transform="matrix(48,0,0,48,587.125,627.351)"><path d="M0.376,-0.14c-0,-0.025 -0.009,-0.044 -0.028,-0.057c-0.018,-0.014 -0.05,-0.025 -0.096,-0.035c-0.046,-0.01 -0.082,-0.021 -0.109,-0.035c-0.027,-0.014 -0.046,-0.03 -0.059,-0.049c-0.013,-0.019 -0.02,-0.041 -0.02,-0.067c0,-0.044 0.019,-0.08 0.055,-0.11c0.037,-0.03 0.084,-0.045 0.141,-0.045c0.06,-0 0.108,0.015 0.146,0.046c0.037,0.031 0.055,0.071 0.055,0.119l-0.09,-0c-0,-0.025 -0.011,-0.046 -0.032,-0.064c-0.021,-0.018 -0.047,-0.027 -0.079,-0.027c-0.033,0 -0.059,0.007 -0.077,0.022c-0.019,0.014 -0.028,0.033 -0.028,0.056c-0,0.022 0.008,0.038 0.026,0.049c0.017,0.011 0.048,0.022 0.093,0.032c0.045,0.01 0.082,0.022 0.11,0.036c0.028,0.014 0.049,0.031 0.062,0.05c0.014,0.02 0.02,0.044 0.02,0.073c0,0.047 -0.019,0.085 -0.056,0.113c-0.038,0.029 -0.087,0.043 -0.147,0.043c-0.043,-0 -0.08,-0.008 -0.113,-0.023c-0.032,-0.015 -0.058,-0.036 -0.076,-0.062c-0.018,-0.027 -0.028,-0.056 -0.028,-0.088l0.091,0c0.001,0.031 0.013,0.055 0.036,0.072c0.023,0.018 0.053,0.027 0.09,0.027c0.034,0 0.061,-0.007 0.082,-0.021c0.021,-0.014 0.031,-0.032 0.031,-0.055Z" style="fill-rule:nonzero;"/></g><g transform="matrix(48,0,0,48,835.68,627.351)"><path d="M0.629,-0l-0.094,-0l-0.358,-0.548l-0,0.548l-0.094,-0l-0,-0.711l0.094,0l0.359,0.55l-0,-0.55l0.093,0l-0,0.711Z" style="fill-rule:nonzero;"/></g><g transform="matrix(48,0,0,48,869.242,627.351)"><path d="M0.299,-0.354l0.186,-0.357l0.106,0l-0.245,0.446l0,0.265l-0.094,-0l0,-0.265l-0.245,-0.446l0.108,0l0.184,0.357Z" style="fill-rule:nonzero;"/></g><g transform="matrix(48,0,0,48,895.82,627.351)"><path d="M0.583,-0.711l0,0.483c-0,0.068 -0.021,0.122 -0.063,0.165c-0.042,0.043 -0.099,0.067 -0.17,0.072l-0.025,0.001c-0.078,-0 -0.14,-0.021 -0.186,-0.063c-0.047,-0.042 -0.07,-0.1 -0.071,-0.174l0,-0.484l0.093,0l0,0.482c0,0.051 0.014,0.091 0.043,0.119c0.028,0.029 0.068,0.043 0.121,0.043c0.053,0 0.093,-0.014 0.122,-0.042c0.028,-0.029 0.042,-0.069 0.042,-0.12l-0,-0.482l0.094,0Z" style="fill-rule:nonzero;"/></g><g transform="matrix(48,0,0,48,926.43,627.351)"><path d="M0.475,-0.186l-0.298,0l-0.067,0.186l-0.096,-0l0.271,-0.711l0.082,0l0.272,0.711l-0.096,-0l-0.068,-0.186Zm-0.269,-0.077l0.241,0l-0.121,-0.332l-0.12,0.332Z" style="fill-rule:nonzero;"/></g><g transform="matrix(48,0,0,48,957.742,627.351)"><path d="M0.083,-0l-0,-0.711l0.2,0c0.062,0 0.117,0.014 0.164,0.041c0.048,0.027 0.084,0.066 0.11,0.117c0.026,0.05 0.039,0.108 0.04,0.174l-0,0.045c-0,0.067 -0.013,0.126 -0.039,0.176c-0.026,0.051 -0.063,0.089 -0.111,0.116c-0.048,0.028 -0.104,0.041 -0.168,0.042l-0.196,-0Zm0.093,-0.634l0,0.557l0.099,0c0.072,0 0.128,-0.022 0.169,-0.067c0.04,-0.045 0.06,-0.109 0.06,-0.192l-0,-0.041c-0,-0.081 -0.019,-0.144 -0.057,-0.189c-0.038,-0.044 -0.092,-0.067 -0.161,-0.068l-0.11,0Z" style="fill-rule:nonzero;"/></g><g transform="matrix(48,0,0,48,115.68,699.351)"><path d="M0.505,-0.303c-0,0.106 -0.018,0.184 -0.054,0.236c-0.036,0.051 -0.093,0.077 -0.17,0.077c-0.076,-0 -0.132,-0.025 -0.168,-0.076c-0.037,-0.05 -0.056,-0.125 -0.057,-0.225l0,-0.121c0,-0.104 0.018,-0.182 0.054,-0.233c0.036,-0.05 0.093,-0.076 0.17,-0.076c0.077,0 0.133,0.025 0.169,0.074c0.036,0.049 0.055,0.124 0.056,0.227l-0,0.117Zm-0.09,-0.124c-0,-0.076 -0.011,-0.132 -0.033,-0.167c-0.021,-0.035 -0.055,-0.052 -0.102,-0.052c-0.046,-0 -0.08,0.017 -0.101,0.052c-0.021,0.035 -0.032,0.088 -0.033,0.16l0,0.145c0,0.077 0.012,0.133 0.034,0.17c0.022,0.037 0.056,0.055 0.101,0.055c0.045,0 0.078,-0.017 0.1,-0.052c0.021,-0.034 0.033,-0.089 0.034,-0.163l-0,-0.148Z" style="fill-rule:nonzero;"/></g><g transform="matrix(48,0,0,48,142.633,699.351)"><path d="M0.19,-0.399l0.068,-0c0.043,-0.001 0.076,-0.012 0.101,-0.034c0.024,-0.022 0.037,-0.051 0.037,-0.088c-0,-0.084 -0.042,-0.125 -0.125,-0.125c-0.039,-0 -0.07,0.011 -0.094,0.033c-0.023,0.022 -0.034,0.052 -0.034,0.089l-0.091,-0c0,-0.057 0.021,-0.104 0.062,-0.141c0.041,-0.037 0.094,-0.056 0.157,-0.056c0.067,0 0.12,0.018 0.158,0.054c0.038,0.035 0.057,0.084 0.057,0.147c-0,0.031 -0.01,0.061 -0.03,0.09c-0.02,0.029 -0.047,0.051 -0.082,0.065c0.039,0.013 0.069,0.033 0.091,0.062c0.021,0.028 0.032,0.063 0.032,0.105c-0,0.064 -0.021,0.114 -0.063,0.152c-0.042,0.037 -0.096,0.056 -0.163,0.056c-0.066,-0 -0.121,-0.018 -0.162,-0.054c-0.042,-0.037 -0.063,-0.084 -0.063,-0.143l0.091,-0c-0,0.037 0.012,0.067 0.036,0.089c0.025,0.023 0.057,0.034 0.098,0.034c0.044,0 0.077,-0.011 0.101,-0.034c0.023,-0.023 0.034,-0.056 0.034,-0.098c0,-0.042 -0.012,-0.073 -0.038,-0.096c-0.025,-0.022 -0.062,-0.033 -0.11,-0.034l-0.068,0l0,-0.073Z" style="fill-rule:nonzero;"/></g><g transform="matrix(48,0,0,48,223.68,699.351)"><path d="M0.263,-0.331l-0.087,0.091l0,0.24l-0.093,0l-0,-0.711l0.093,0l0,0.352l0.316,-0.352l0.113,0l-0.279,0.314l0.301,0.397l-0.112,-0l-0.252,-0.331Z" style="fill-rule:nonzero;"/></g><g transform="matrix(48,0,0,48,253.234,699.351)"><path d="M0.395,-0.052c-0.036,0.041 -0.087,0.062 -0.155,0.062c-0.057,-0 -0.099,-0.017 -0.129,-0.049c-0.029,-0.033 -0.044,-0.081 -0.045,-0.146l0,-0.343l0.091,-0l-0,0.341c-0,0.08 0.032,0.12 0.097,0.12c0.069,0 0.115,-0.026 0.138,-0.077l0,-0.384l0.09,-0l0,0.528l-0.086,-0l-0.001,-0.052Z" style="fill-rule:nonzero;"/></g><g transform="matrix(48,0,0,48,279.695,699.351)"><path d="M0.516,-0.258c-0,0.08 -0.019,0.145 -0.056,0.194c-0.037,0.049 -0.087,0.074 -0.149,0.074c-0.067,-0 -0.119,-0.024 -0.155,-0.071l-0.005,0.061l-0.083,0l0,-0.75l0.091,0l-0,0.28c0.036,-0.045 0.086,-0.068 0.151,-0.068c0.064,-0 0.114,0.024 0.151,0.073c0.036,0.048 0.055,0.115 0.055,0.199l-0,0.008Zm-0.091,-0.011c0,-0.061 -0.012,-0.109 -0.035,-0.142c-0.024,-0.034 -0.058,-0.05 -0.103,-0.05c-0.059,-0 -0.102,0.027 -0.128,0.083l-0,0.228c0.027,0.055 0.07,0.083 0.129,0.083c0.043,0 0.077,-0.017 0.101,-0.05c0.024,-0.034 0.036,-0.084 0.036,-0.152Z" style="fill-rule:nonzero;"/></g><g transform="matrix(48,0,0,48,306.625,699.351)"><rect x="0.076" y="-0.75" width="0.09" height="0.75" style="fill-rule:nonzero;"/></g><g transform="matrix(48,0,0,48,318.274,699.351)"><path d="M0.395,-0c-0.006,-0.01 -0.01,-0.029 -0.013,-0.056c-0.042,0.044 -0.092,0.066 -0.151,0.066c-0.052,-0 -0.094,-0.015 -0.128,-0.044c-0.033,-0.03 -0.05,-0.067 -0.05,-0.112c0,-0.055 0.021,-0.098 0.063,-0.129c0.042,-0.03 0.101,-0.045 0.176,-0.045l0.088,-0l0,-0.042c0,-0.031 -0.009,-0.057 -0.028,-0.075c-0.019,-0.019 -0.047,-0.028 -0.083,-0.028c-0.033,-0 -0.06,0.008 -0.081,0.024c-0.022,0.016 -0.033,0.036 -0.033,0.059l-0.091,0c-0,-0.026 0.009,-0.052 0.028,-0.076c0.019,-0.025 0.044,-0.044 0.076,-0.059c0.032,-0.014 0.068,-0.021 0.106,-0.021c0.061,-0 0.108,0.015 0.143,0.046c0.034,0.03 0.052,0.072 0.054,0.125l-0,0.243c-0,0.049 0.006,0.088 0.018,0.116l0,0.008l-0.094,0Zm-0.15,-0.069c0.028,0 0.055,-0.007 0.08,-0.022c0.026,-0.014 0.044,-0.034 0.055,-0.057l0,-0.108l-0.07,-0c-0.111,-0 -0.166,0.032 -0.166,0.097c-0,0.028 0.009,0.05 0.028,0.066c0.019,0.016 0.043,0.024 0.073,0.024Z" style="fill-rule:nonzero;"/></g><g transform="matrix(48,0,0,48,344.383,699.351)"><path d="M0.167,-0l-0.091,-0l0,-0.528l0.091,-0l-0,0.528Zm-0.098,-0.668c-0,-0.015 0.004,-0.027 0.013,-0.038c0.009,-0.01 0.022,-0.015 0.04,-0.015c0.018,0 0.031,0.005 0.04,0.015c0.009,0.011 0.014,0.023 0.014,0.038c-0,0.014 -0.005,0.026 -0.014,0.036c-0.009,0.01 -0.022,0.015 -0.04,0.015c-0.018,-0 -0.031,-0.005 -0.04,-0.015c-0.009,-0.01 -0.013,-0.022 -0.013,-0.036Z" style="fill-rule:nonzero;"/></g><g transform="matrix(48,0,0,48,511.328,699.351)"><path d="M0.475,-0.186l-0.298,0l-0.067,0.186l-0.096,-0l0.271,-0.711l0.082,0l0.272,0.711l-0.096,-0l-0.068,-0.186Zm-0.269,-0.077l0.241,0l-0.121,-0.332l-0.12,0.332Z" style="fill-rule:nonzero;"/></g><g transform="matrix(48,0,0,48,542.641,699.351)"><path d="M0.154,-0.528l0.003,0.066c0.04,-0.051 0.093,-0.076 0.158,-0.076c0.112,-0 0.168,0.063 0.169,0.189l-0,0.349l-0.09,-0l-0,-0.35c-0.001,-0.038 -0.009,-0.066 -0.027,-0.084c-0.017,-0.018 -0.043,-0.027 -0.079,-0.027c-0.03,-0 -0.055,0.007 -0.078,0.023c-0.022,0.016 -0.039,0.036 -0.051,0.062l-0,0.376l-0.091,0l0,-0.528l0.086,-0Z" style="fill-rule:nonzero;"/></g><g transform="matrix(48,0,0,48,569.125,699.351)"><path d="M0.395,-0c-0.006,-0.01 -0.01,-0.029 -0.013,-0.056c-0.042,0.044 -0.092,0.066 -0.151,0.066c-0.052,-0 -0.094,-0.015 -0.128,-0.044c-0.033,-0.03 -0.05,-0.067 -0.05,-0.112c0,-0.055 0.021,-0.098 0.063,-0.129c0.042,-0.03 0.101,-0.045 0.176,-0.045l0.088,-0l0,-0.042c0,-0.031 -0.009,-0.057 -0.028,-0.075c-0.019,-0.019 -0.047,-0.028 -0.083,-0.028c-0.033,-0 -0.06,0.008 -0.081,0.024c-0.022,0.016 -0.033,0.036 -0.033,0.059l-0.091,0c-0,-0.026 0.009,-0.052 0.028,-0.076c0.019,-0.025 0.044,-0.044 0.076,-0.059c0.032,-0.014 0.068,-0.021 0.106,-0.021c0.061,-0 0.108,0.015 0.143,0.046c0.034,0.03 0.052,0.072 0.054,0.125l-0,0.243c-0,0.049 0.006,0.088 0.018,0.116l0,0.008l-0.094,0Zm-0.15,-0.069c0.028,0 0.055,-0.007 0.08,-0.022c0.026,-0.014 0.044,-0.034 0.055,-0.057l0,-0.108l-0.07,-0c-0.111,-0 -0.166,0.032 -0.166,0.097c-0,0.028 0.009,0.05 0.028,0.066c0.019,0.016 0.043,0.024 0.073,0.024Z" style="fill-rule:nonzero;"/></g><g transform="matrix(48,0,0,48,595.234,699.351)"><path d="M0.191,-0.656l-0,0.128l0.099,-0l-0,0.07l-0.099,-0l-0,0.327c-0,0.021 0.004,0.037 0.013,0.048c0.009,0.01 0.024,0.016 0.045,0.016c0.01,-0 0.025,-0.002 0.043,-0.006l-0,0.073c-0.024,0.007 -0.047,0.01 -0.069,0.01c-0.041,-0 -0.071,-0.012 -0.092,-0.037c-0.02,-0.024 -0.03,-0.059 -0.03,-0.104l-0,-0.327l-0.097,-0l0,-0.07l0.097,-0l-0,-0.128l0.09,-0Z" style="fill-rule:nonzero;"/></g><g transform="matrix(48,0,0,48,610.445,699.351)"><path d="M0.044,-0.269c0,-0.052 0.011,-0.098 0.031,-0.14c0.02,-0.041 0.049,-0.073 0.085,-0.095c0.036,-0.023 0.078,-0.034 0.124,-0.034c0.072,-0 0.13,0.025 0.175,0.075c0.044,0.049 0.066,0.116 0.066,0.198l0,0.007c0,0.051 -0.009,0.097 -0.029,0.138c-0.02,0.041 -0.048,0.073 -0.085,0.096c-0.036,0.022 -0.078,0.034 -0.126,0.034c-0.071,-0 -0.129,-0.025 -0.174,-0.075c-0.044,-0.05 -0.067,-0.116 -0.067,-0.198l0,-0.006Zm0.091,0.011c0,0.058 0.014,0.105 0.041,0.141c0.027,0.035 0.064,0.053 0.109,0.053c0.046,0 0.083,-0.018 0.11,-0.054c0.027,-0.036 0.04,-0.086 0.04,-0.151c0,-0.058 -0.014,-0.105 -0.041,-0.141c-0.028,-0.036 -0.064,-0.054 -0.11,-0.054c-0.044,0 -0.08,0.018 -0.108,0.053c-0.027,0.036 -0.041,0.087 -0.041,0.153Z" style="fill-rule:nonzero;"/></g><g transform="matrix(48,0,0,48,637.82,699.351)"><rect x="0.076" y="-0.75" width="0.09" height="0.75" style="fill-rule:nonzero;"/></g><g transform="matrix(48,0,0,48,649.469,699.351)"><path d="M0.167,-0l-0.091,-0l0,-0.528l0.091,-0l-0,0.528Zm-0.098,-0.668c-0,-0.015 0.004,-0.027 0.013,-0.038c0.009,-0.01 0.022,-0.015 0.04,-0.015c0.018,0 0.031,0.005 0.04,0.015c0.009,0.011 0.014,0.023 0.014,0.038c-0,0.014 -0.005,0.026 -0.014,0.036c-0.009,0.01 -0.022,0.015 -0.04,0.015c-0.018,-0 -0.031,-0.005 -0.04,-0.015c-0.009,-0.01 -0.013,-0.022 -0.013,-0.036Z" style="fill-rule:nonzero;"/></g><g transform="matrix(48,0,0,48,661.117,699.351)"><path d="M0.241,-0.132l0.123,-0.396l0.097,-0l-0.212,0.61c-0.033,0.087 -0.086,0.131 -0.157,0.131l-0.017,-0.001l-0.034,-0.006l0,-0.074l0.024,0.002c0.031,0 0.055,-0.006 0.072,-0.018c0.017,-0.013 0.031,-0.035 0.042,-0.068l0.02,-0.054l-0.188,-0.522l0.098,-0l0.132,0.396Z" style="fill-rule:nonzero;"/></g><g transform="matrix(48,0,0,48,835.68,699.351)"><path d="M0.083,-0l-0,-0.711l0.232,0c0.077,0 0.135,0.016 0.174,0.048c0.039,0.032 0.058,0.079 0.058,0.142c0,0.033 -0.009,0.062 -0.028,0.088c-0.019,0.025 -0.045,0.045 -0.077,0.059c0.038,0.011 0.069,0.031 0.091,0.061c0.022,0.03 0.033,0.066 0.033,0.108c0,0.064 -0.02,0.114 -0.062,0.15c-0.041,0.037 -0.099,0.055 -0.175,0.055l-0.246,-0Zm0.093,-0.333l0,0.256l0.155,0c0.044,0 0.078,-0.011 0.103,-0.034c0.026,-0.022 0.038,-0.053 0.038,-0.093c0,-0.086 -0.046,-0.129 -0.139,-0.129l-0.157,0Zm0,-0.075l0.142,0c0.041,0 0.074,-0.01 0.098,-0.03c0.025,-0.021 0.037,-0.049 0.037,-0.084c0,-0.039 -0.011,-0.067 -0.034,-0.085c-0.023,-0.018 -0.058,-0.027 -0.104,-0.027l-0.139,0l0,0.226Z" style="fill-rule:nonzero;"/></g><g transform="matrix(48,0,0,48,865.563,699.351)"><path d="M0.475,-0.314l-0.299,0l0,0.314l-0.093,-0l-0,-0.711l0.44,0l-0,0.077l-0.347,0l0,0.243l0.299,0l-0,0.077Z" style="fill-rule:nonzero;"/></g><g transform="matrix(48,0,0,48,892.094,699.351)"><path d="M0.629,-0l-0.094,-0l-0,-0.329l-0.359,0l0,0.329l-0.093,-0l-0,-0.711l0.093,0l0,0.306l0.359,-0l-0,-0.306l0.094,0l-0,0.711Z" style="fill-rule:nonzero;"/></g><g transform="matrix(48,0,0,48,115.68,771.351)"><path d="M0.505,-0.303c-0,0.106 -0.018,0.184 -0.054,0.236c-0.036,0.051 -0.093,0.077 -0.17,0.077c-0.076,-0 -0.132,-0.025 -0.168,-0.076c-0.037,-0.05 -0.056,-0.125 -0.057,-0.225l0,-0.121c0,-0.104 0.018,-0.182 0.054,-0.233c0.036,-0.05 0.093,-0.076 0.17,-0.076c0.077,0 0.133,0.025 0.169,0.074c0.036,0.049 0.055,0.124 0.056,0.227l-0,0.117Zm-0.09,-0.124c-0,-0.076 -0.011,-0.132 -0.033,-0.167c-0.021,-0.035 -0.055,-0.052 -0.102,-0.052c-0.046,-0 -0.08,0.017 -0.101,0.052c-0.021,0.035 -0.032,0.088 -0.033,0.16l0,0.145c0,0.077 0.012,0.133 0.034,0.17c0.022,0.037 0.056,0.055 0.101,0.055c0.045,0 0.078,-0.017 0.1,-0.052c0.021,-0.034 0.033,-0.089 0.034,-0.163l-0,-0.148Z" style="fill-rule:nonzero;"/></g><g transform="matrix(48,0,0,48,142.633,771.351)"><path d="M0.44,-0.239l0.099,0l0,0.074l-0.099,-0l0,0.165l-0.09,0l-0,-0.165l-0.324,-0l-0,-0.053l0.318,-0.493l0.096,0l0,0.472Zm-0.312,0l0.222,0l-0,-0.348l-0.011,0.019l-0.211,0.329Z" style="fill-rule:nonzero;"/></g><g transform="matrix(48,0,0,48,223.68,771.351)"><path d="M0.177,-0.077l0.337,0l-0,0.077l-0.431,-0l-0,-0.711l0.094,0l-0,0.634Z" style="fill-rule:nonzero;"/></g><g transform="matrix(48,0,0,48,248.477,771.351)"><path d="M0.395,-0.052c-0.036,0.041 -0.087,0.062 -0.155,0.062c-0.057,-0 -0.099,-0.017 -0.129,-0.049c-0.029,-0.033 -0.044,-0.081 -0.045,-0.146l0,-0.343l0.091,-0l-0,0.341c-0,0.08 0.032,0.12 0.097,0.12c0.069,0 0.115,-0.026 0.138,-0.077l0,-0.384l0.09,-0l0,0.528l-0.086,-0l-0.001,-0.052Z" style="fill-rule:nonzero;"/></g><g transform="matrix(48,0,0,48,274.938,771.351)"><path d="M0.047,-0.269c-0,-0.082 0.019,-0.147 0.057,-0.196c0.038,-0.049 0.089,-0.073 0.151,-0.073c0.065,-0 0.115,0.023 0.151,0.068l0.005,-0.058l0.082,-0l0,0.515c0,0.069 -0.02,0.123 -0.061,0.162c-0.04,0.039 -0.095,0.059 -0.163,0.059c-0.038,0 -0.075,-0.008 -0.112,-0.024c-0.036,-0.017 -0.064,-0.039 -0.083,-0.067l0.047,-0.054c0.038,0.047 0.086,0.071 0.142,0.071c0.044,0 0.078,-0.012 0.102,-0.037c0.025,-0.025 0.037,-0.059 0.037,-0.104l0,-0.046c-0.036,0.042 -0.085,0.063 -0.148,0.063c-0.061,-0 -0.112,-0.025 -0.15,-0.075c-0.038,-0.05 -0.057,-0.118 -0.057,-0.204Zm0.091,0.011c-0,0.059 0.012,0.106 0.036,0.14c0.025,0.034 0.059,0.051 0.103,0.051c0.057,0 0.099,-0.026 0.125,-0.078l0,-0.241c-0.027,-0.05 -0.069,-0.075 -0.124,-0.075c-0.044,-0 -0.078,0.017 -0.103,0.051c-0.025,0.034 -0.037,0.085 -0.037,0.152Z" style="fill-rule:nonzero;"/></g><g transform="matrix(48,0,0,48,301.867,771.351)"><path d="M0.047,-0.269c-0,-0.082 0.019,-0.147 0.057,-0.196c0.038,-0.049 0.089,-0.073 0.151,-0.073c0.065,-0 0.115,0.023 0.151,0.068l0.005,-0.058l0.082,-0l0,0.515c0,0.069 -0.02,0.123 -0.061,0.162c-0.04,0.039 -0.095,0.059 -0.163,0.059c-0.038,0 -0.075,-0.008 -0.112,-0.024c-0.036,-0.017 -0.064,-0.039 -0.083,-0.067l0.047,-0.054c0.038,0.047 0.086,0.071 0.142,0.071c0.044,0 0.078,-0.012 0.102,-0.037c0.025,-0.025 0.037,-0.059 0.037,-0.104l0,-0.046c-0.036,0.042 -0.085,0.063 -0.148,0.063c-0.061,-0 -0.112,-0.025 -0.15,-0.075c-0.038,-0.05 -0.057,-0.118 -0.057,-0.204Zm0.091,0.011c-0,0.059 0.012,0.106 0.036,0.14c0.025,0.034 0.059,0.051 0.103,0.051c0.057,0 0.099,-0.026 0.125,-0.078l0,-0.241c-0.027,-0.05 -0.069,-0.075 -0.124,-0.075c-0.044,-0 -0.078,0.017 -0.103,0.051c-0.025,0.034 -0.037,0.085 -0.037,0.152Z" style="fill-rule:nonzero;"/></g><g transform="matrix(48,0,0,48,328.797,771.351)"><path d="M0.288,0.01c-0.072,-0 -0.13,-0.024 -0.175,-0.071c-0.045,-0.047 -0.068,-0.11 -0.068,-0.189l0,-0.016c0,-0.053 0.01,-0.099 0.03,-0.14c0.02,-0.042 0.048,-0.074 0.084,-0.097c0.036,-0.023 0.075,-0.035 0.117,-0.035c0.069,-0 0.122,0.023 0.161,0.068c0.038,0.045 0.057,0.11 0.057,0.194l-0,0.038l-0.358,-0c0.001,0.052 0.016,0.094 0.045,0.126c0.03,0.032 0.067,0.048 0.111,0.048c0.032,0 0.059,-0.006 0.082,-0.019c0.022,-0.014 0.041,-0.031 0.058,-0.052l0.055,0.043c-0.044,0.068 -0.111,0.102 -0.199,0.102Zm-0.012,-0.474c-0.036,0 -0.067,0.013 -0.091,0.04c-0.025,0.026 -0.04,0.064 -0.046,0.112l0.264,-0l0,-0.007c-0.002,-0.046 -0.015,-0.082 -0.037,-0.107c-0.022,-0.025 -0.052,-0.038 -0.09,-0.038Z" style="fill-rule:nonzero;"/></g><g transform="matrix(48,0,0,48,354.227,771.351)"><path d="M0.154,-0.528l0.003,0.066c0.04,-0.051 0.093,-0.076 0.158,-0.076c0.112,-0 0.168,0.063 0.169,0.189l-0,0.349l-0.09,-0l-0,-0.35c-0.001,-0.038 -0.009,-0.066 -0.027,-0.084c-0.017,-0.018 -0.043,-0.027 -0.079,-0.027c-0.03,-0 -0.055,0.007 -0.078,0.023c-0.022,0.016 -0.039,0.036 -0.051,0.062l-0,0.376l-0.091,0l0,-0.528l0.086,-0Z" style="fill-rule:nonzero;"/></g><g transform="matrix(48,0,0,48,511.68,771.351)"><path d="M0.204,-0.711l0.232,0.58l0.232,-0.58l0.122,0l0,0.711l-0.094,-0l0,-0.277l0.009,-0.299l-0.233,0.576l-0.072,-0l-0.233,-0.574l0.009,0.297l0,0.277l-0.093,0l-0,-0.711l0.121,0Z" style="fill-rule:nonzero;"/></g><g transform="matrix(48,0,0,48,553.586,771.351)"><path d="M0.167,-0l-0.091,-0l0,-0.528l0.091,-0l-0,0.528Zm-0.098,-0.668c-0,-0.015 0.004,-0.027 0.013,-0.038c0.009,-0.01 0.022,-0.015 0.04,-0.015c0.018,0 0.031,0.005 0.04,0.015c0.009,0.011 0.014,0.023 0.014,0.038c-0,0.014 -0.005,0.026 -0.014,0.036c-0.009,0.01 -0.022,0.015 -0.04,0.015c-0.018,-0 -0.031,-0.005 -0.04,-0.015c-0.009,-0.01 -0.013,-0.022 -0.013,-0.036Z" style="fill-rule:nonzero;"/></g><g transform="matrix(48,0,0,48,565.234,771.351)"><path d="M0.28,-0.064c0.032,0 0.061,-0.01 0.085,-0.029c0.024,-0.02 0.037,-0.044 0.04,-0.074l0.085,0c-0.001,0.031 -0.012,0.06 -0.031,0.087c-0.019,0.027 -0.045,0.049 -0.077,0.065c-0.032,0.017 -0.066,0.025 -0.102,0.025c-0.072,-0 -0.129,-0.024 -0.171,-0.072c-0.043,-0.048 -0.064,-0.114 -0.064,-0.197l-0,-0.015c-0,-0.052 0.009,-0.098 0.028,-0.138c0.019,-0.04 0.046,-0.071 0.082,-0.093c0.035,-0.022 0.077,-0.033 0.125,-0.033c0.059,-0 0.108,0.018 0.147,0.053c0.04,0.036 0.061,0.082 0.063,0.138l-0.085,0c-0.003,-0.034 -0.016,-0.062 -0.039,-0.084c-0.023,-0.022 -0.052,-0.033 -0.086,-0.033c-0.046,0 -0.082,0.017 -0.107,0.05c-0.025,0.033 -0.038,0.081 -0.038,0.143l0,0.017c0,0.061 0.013,0.108 0.038,0.141c0.025,0.033 0.061,0.049 0.107,0.049Z" style="fill-rule:nonzero;"/></g><g transform="matrix(48,0,0,48,590.359,771.351)"><path d="M0.159,-0.464c0.04,-0.05 0.092,-0.074 0.156,-0.074c0.112,-0 0.168,0.063 0.169,0.189l-0,0.349l-0.09,-0l-0,-0.35c-0.001,-0.038 -0.009,-0.066 -0.027,-0.084c-0.017,-0.018 -0.043,-0.027 -0.079,-0.027c-0.03,-0 -0.055,0.007 -0.078,0.023c-0.022,0.016 -0.039,0.036 -0.051,0.062l-0,0.376l-0.091,0l0,-0.75l0.091,0l-0,0.286Z" style="fill-rule:nonzero;"/></g><g transform="matrix(48,0,0,48,616.797,771.351)"><path d="M0.395,-0c-0.006,-0.01 -0.01,-0.029 -0.013,-0.056c-0.042,0.044 -0.092,0.066 -0.151,0.066c-0.052,-0 -0.094,-0.015 -0.128,-0.044c-0.033,-0.03 -0.05,-0.067 -0.05,-0.112c0,-0.055 0.021,-0.098 0.063,-0.129c0.042,-0.03 0.101,-0.045 0.176,-0.045l0.088,-0l0,-0.042c0,-0.031 -0.009,-0.057 -0.028,-0.075c-0.019,-0.019 -0.047,-0.028 -0.083,-0.028c-0.033,-0 -0.06,0.008 -0.081,0.024c-0.022,0.016 -0.033,0.036 -0.033,0.059l-0.091,0c-0,-0.026 0.009,-0.052 0.028,-0.076c0.019,-0.025 0.044,-0.044 0.076,-0.059c0.032,-0.014 0.068,-0.021 0.106,-0.021c0.061,-0 0.108,0.015 0.143,0.046c0.034,0.03 0.052,0.072 0.054,0.125l-0,0.243c-0,0.049 0.006,0.088 0.018,0.116l0,0.008l-0.094,0Zm-0.15,-0.069c0.028,0 0.055,-0.007 0.08,-0.022c0.026,-0.014 0.044,-0.034 0.055,-0.057l0,-0.108l-0.07,-0c-0.111,-0 -0.166,0.032 -0.166,0.097c-0,0.028 0.009,0.05 0.028,0.066c0.019,0.016 0.043,0.024 0.073,0.024Z" style="fill-rule:nonzero;"/></g><g transform="matrix(48,0,0,48,642.906,771.351)"><path d="M0.288,0.01c-0.072,-0 -0.13,-0.024 -0.175,-0.071c-0.045,-0.047 -0.068,-0.11 -0.068,-0.189l0,-0.016c0,-0.053 0.01,-0.099 0.03,-0.14c0.02,-0.042 0.048,-0.074 0.084,-0.097c0.036,-0.023 0.075,-0.035 0.117,-0.035c0.069,-0 0.122,0.023 0.161,0.068c0.038,0.045 0.057,0.11 0.057,0.194l-0,0.038l-0.358,-0c0.001,0.052 0.016,0.094 0.045,0.126c0.03,0.032 0.067,0.048 0.111,0.048c0.032,0 0.059,-0.006 0.082,-0.019c0.022,-0.014 0.041,-0.031 0.058,-0.052l0.055,0.043c-0.044,0.068 -0.111,0.102 -0.199,0.102Zm-0.012,-0.474c-0.036,0 -0.067,0.013 -0.091,0.04c-0.025,0.026 -0.04,0.064 -0.046,0.112l0.264,-0l0,-0.007c-0.002,-0.046 -0.015,-0.082 -0.037,-0.107c-0.022,-0.025 -0.052,-0.038 -0.09,-0.038Z" style="fill-rule:nonzero;"/></g><g transform="matrix(48,0,0,48,668.336,771.351)"><rect x="0.076" y="-0.75" width="0.09" height="0.75" style="fill-rule:nonzero;"/></g><g transform="matrix(48,0,0,48,835.68,771.351)"><path d="M0.083,-0l-0,-0.711l0.232,0c0.077,0 0.135,0.016 0.174,0.048c0.039,0.032 0.058,0.079 0.058,0.142c0,0.033 -0.009,0.062 -0.028,0.088c-0.019,0.025 -0.045,0.045 -0.077,0.059c0.038,0.011 0.069,0.031 0.091,0.061c0.022,0.03 0.033,0.066 0.033,0.108c0,0.064 -0.02,0.114 -0.062,0.15c-0.041,0.037 -0.099,0.055 -0.175,0.055l-0.246,-0Zm0.093,-0.333l0,0.256l0.155,0c0.044,0 0.078,-0.011 0.103,-0.034c0.026,-0.022 0.038,-0.053 0.038,-0.093c0,-0.086 -0.046,-0.129 -0.139,-0.129l-0.157,0Zm0,-0.075l0.142,0c0.041,0 0.074,-0.01 0.098,-0.03c0.025,-0.021 0.037,-0.049 0.037,-0.084c0,-0.039 -0.011,-0.067 -0.034,-0.085c-0.023,-0.018 -0.058,-0.027 -0.104,-0.027l-0.139,0l0,0.226Z" style="fill-rule:nonzero;"/></g><g transform="matrix(48,0,0,48,865.563,771.351)"><path d="M0.475,-0.314l-0.299,0l0,0.314l-0.093,-0l-0,-0.711l0.44,0l-0,0.077l-0.347,0l0,0.243l0.299,0l-0,0.077Z" style="fill-rule:nonzero;"/></g><g transform="matrix(48,0,0,48,892.094,771.351)"><path d="M0.629,-0l-0.094,-0l-0,-0.329l-0.359,0l0,0.329l-0.093,-0l-0,-0.711l0.093,0l0,0.306l0.359,-0l-0,-0.306l0.094,0l-0,0.711Z" style="fill-rule:nonzero;"/></g></g></g></g></svg>