<?xml version="1.0" encoding="UTF-8" standalone="no"?>
<!DOCTYPE svg PUBLIC "-//W3C//DTD SVG 1.1//EN" "http://www.w3.org/Graphics/SVG/1.1/DTD/svg11.dtd">
<svg width="100%" height="100%" viewBox="0 0 1600 1200" version="1.1" xmlns="http://www.w3.org/2000/svg" xmlns:xlink="http://www.w3.org/1999/xlink" xml:space="preserve" xmlns:serif="http://www.serif.com/" style="fill-rule:evenodd;clip-rule:evenodd;stroke-linecap:round;stroke-linejoin:round;stroke-miterlimit:1.41421;">
    <g id="rdb2rdf-06" serif:id="rdb2rdf 06">
        <g>
            <g transform="matrix(1,0,0,1,-73.9332,71.6821)">
                <g transform="matrix(48,0,0,48,115.68,339.351)">
                    <path d="M0.284,-0.293L0.284,-0.135C0.284,-0.105 0.289,-0.084 0.299,-0.072C0.309,-0.06 0.331,-0.054 0.363,-0.054L0.378,-0.054L0.378,-0L0.02,-0L0.02,-0.054L0.031,-0.054C0.064,-0.054 0.086,-0.06 0.095,-0.073C0.105,-0.085 0.11,-0.106 0.11,-0.135L0.11,-0.527C0.11,-0.557 0.105,-0.578 0.095,-0.59C0.085,-0.602 0.063,-0.608 0.031,-0.608L0.015,-0.608L0.015,-0.662L0.284,-0.668C0.351,-0.668 0.403,-0.666 0.439,-0.663C0.476,-0.659 0.509,-0.649 0.54,-0.633C0.571,-0.617 0.594,-0.595 0.609,-0.568C0.625,-0.541 0.632,-0.512 0.632,-0.48C0.632,-0.437 0.619,-0.4 0.592,-0.369C0.565,-0.338 0.532,-0.318 0.491,-0.308C0.451,-0.298 0.398,-0.293 0.333,-0.293L0.284,-0.293ZM0.284,-0.352L0.316,-0.352C0.368,-0.352 0.402,-0.363 0.419,-0.385C0.437,-0.408 0.445,-0.438 0.445,-0.476C0.445,-0.51 0.439,-0.537 0.426,-0.558C0.414,-0.579 0.397,-0.593 0.378,-0.599C0.358,-0.606 0.327,-0.609 0.284,-0.609L0.284,-0.352Z" style="fill-rule:nonzero;"/>
                </g>
                <g transform="matrix(48,0,0,48,146.172,339.351)">
                    <path d="M0.213,-0.205C0.213,-0.152 0.222,-0.112 0.24,-0.085C0.259,-0.058 0.286,-0.045 0.322,-0.045C0.36,-0.045 0.396,-0.064 0.428,-0.104L0.473,-0.076C0.455,-0.049 0.428,-0.027 0.393,-0.01C0.359,0.007 0.32,0.016 0.278,0.016C0.214,0.016 0.159,-0.003 0.113,-0.043C0.067,-0.082 0.044,-0.135 0.044,-0.202C0.044,-0.268 0.066,-0.321 0.111,-0.359C0.155,-0.397 0.208,-0.416 0.271,-0.416C0.334,-0.416 0.385,-0.399 0.426,-0.364C0.466,-0.329 0.486,-0.276 0.486,-0.205L0.213,-0.205ZM0.213,-0.254L0.336,-0.254C0.334,-0.326 0.313,-0.362 0.273,-0.362C0.253,-0.362 0.238,-0.353 0.228,-0.335C0.218,-0.317 0.213,-0.29 0.213,-0.254Z" style="fill-rule:nonzero;"/>
                </g>
                <g transform="matrix(48,0,0,48,171.18,339.351)">
                    <path d="M0.242,-0.315C0.261,-0.349 0.283,-0.374 0.307,-0.391C0.331,-0.408 0.357,-0.416 0.386,-0.416C0.414,-0.416 0.435,-0.407 0.449,-0.39C0.464,-0.372 0.471,-0.354 0.471,-0.333C0.471,-0.314 0.465,-0.297 0.454,-0.284C0.442,-0.27 0.426,-0.263 0.406,-0.263C0.395,-0.263 0.386,-0.265 0.378,-0.27C0.371,-0.274 0.362,-0.283 0.35,-0.296C0.338,-0.309 0.326,-0.315 0.312,-0.315C0.291,-0.315 0.275,-0.302 0.264,-0.277C0.254,-0.251 0.249,-0.212 0.249,-0.16L0.249,-0.117C0.249,-0.093 0.252,-0.076 0.26,-0.066C0.267,-0.057 0.285,-0.052 0.312,-0.052L0.321,-0.052L0.321,-0L0.025,-0L0.025,-0.052C0.053,-0.052 0.071,-0.056 0.079,-0.066C0.086,-0.075 0.09,-0.092 0.09,-0.117L0.09,-0.256C0.09,-0.281 0.086,-0.298 0.078,-0.307C0.071,-0.317 0.053,-0.321 0.024,-0.321L0.024,-0.373L0.227,-0.416C0.236,-0.39 0.241,-0.356 0.242,-0.315Z" style="fill-rule:nonzero;"/>
                </g>
                <g transform="matrix(48,0,0,48,194.172,339.351)">
                    <path d="M0.049,0.016L0.046,-0.117L0.094,-0.117C0.119,-0.062 0.166,-0.034 0.233,-0.034C0.262,-0.034 0.285,-0.039 0.304,-0.049C0.322,-0.059 0.332,-0.07 0.332,-0.082C0.332,-0.093 0.326,-0.101 0.316,-0.107C0.306,-0.112 0.283,-0.119 0.247,-0.126C0.191,-0.138 0.149,-0.149 0.123,-0.159C0.096,-0.169 0.074,-0.185 0.058,-0.206C0.042,-0.228 0.034,-0.252 0.034,-0.279C0.034,-0.32 0.05,-0.353 0.083,-0.378C0.117,-0.403 0.161,-0.416 0.217,-0.416C0.26,-0.416 0.304,-0.408 0.348,-0.391C0.356,-0.398 0.362,-0.407 0.367,-0.416L0.407,-0.416L0.412,-0.295L0.373,-0.295C0.347,-0.345 0.298,-0.37 0.223,-0.37C0.198,-0.37 0.178,-0.366 0.163,-0.358C0.147,-0.35 0.139,-0.34 0.139,-0.327C0.139,-0.314 0.146,-0.305 0.158,-0.298C0.171,-0.292 0.201,-0.284 0.249,-0.275C0.299,-0.265 0.337,-0.255 0.362,-0.244C0.387,-0.234 0.407,-0.219 0.422,-0.198C0.436,-0.178 0.443,-0.155 0.443,-0.129C0.443,-0.086 0.424,-0.051 0.387,-0.024C0.349,0.003 0.302,0.016 0.247,0.016C0.204,0.016 0.159,0.007 0.113,-0.011C0.104,-0.005 0.097,0.004 0.093,0.016L0.049,0.016Z" style="fill-rule:nonzero;"/>
                </g>
                <g transform="matrix(48,0,0,48,217.164,339.351)">
                    <path d="M0.037,-0.201C0.037,-0.268 0.061,-0.321 0.108,-0.359C0.156,-0.397 0.213,-0.416 0.281,-0.416C0.347,-0.416 0.404,-0.398 0.453,-0.361C0.501,-0.324 0.526,-0.27 0.526,-0.201C0.526,-0.135 0.502,-0.082 0.454,-0.043C0.406,-0.003 0.348,0.016 0.28,0.016C0.214,0.016 0.157,-0.003 0.109,-0.04C0.061,-0.077 0.037,-0.131 0.037,-0.201ZM0.205,-0.206C0.205,-0.144 0.21,-0.1 0.222,-0.075C0.233,-0.05 0.254,-0.038 0.282,-0.038C0.305,-0.038 0.324,-0.048 0.338,-0.069C0.351,-0.09 0.358,-0.134 0.358,-0.202C0.358,-0.264 0.352,-0.306 0.34,-0.328C0.327,-0.35 0.308,-0.361 0.281,-0.361C0.26,-0.361 0.242,-0.351 0.227,-0.333C0.212,-0.314 0.205,-0.272 0.205,-0.206Z" style="fill-rule:nonzero;"/>
                </g>
                <g transform="matrix(48,0,0,48,244.164,339.351)">
                    <path d="M0.247,-0.274L0.247,-0.116C0.247,-0.093 0.25,-0.077 0.257,-0.067C0.264,-0.057 0.276,-0.052 0.294,-0.052L0.294,-0L0.021,-0L0.021,-0.052C0.049,-0.052 0.067,-0.056 0.075,-0.065C0.083,-0.074 0.086,-0.091 0.086,-0.116L0.086,-0.252C0.086,-0.277 0.083,-0.294 0.075,-0.303C0.067,-0.313 0.049,-0.317 0.021,-0.317L0.021,-0.369L0.237,-0.405C0.243,-0.392 0.246,-0.373 0.247,-0.346C0.269,-0.37 0.291,-0.387 0.315,-0.399C0.338,-0.41 0.363,-0.416 0.388,-0.416C0.434,-0.416 0.47,-0.403 0.496,-0.378C0.522,-0.353 0.535,-0.318 0.535,-0.274L0.535,-0.116C0.535,-0.091 0.539,-0.075 0.547,-0.065C0.555,-0.056 0.572,-0.052 0.599,-0.052L0.599,-0L0.327,-0L0.327,-0.052C0.34,-0.052 0.352,-0.056 0.361,-0.063C0.37,-0.071 0.375,-0.088 0.375,-0.116L0.375,-0.262C0.375,-0.289 0.371,-0.307 0.364,-0.317C0.357,-0.327 0.346,-0.332 0.333,-0.332C0.319,-0.332 0.305,-0.327 0.291,-0.317C0.276,-0.308 0.262,-0.294 0.247,-0.274Z" style="fill-rule:nonzero;"/>
                </g>
                <g transform="matrix(48,0,0,48,273.156,339.351)">
                    <path d="M0.026,-0.64L0.026,-0.662L0.329,-0.662L0.329,-0.64L0.314,-0.64C0.282,-0.64 0.261,-0.637 0.25,-0.632C0.24,-0.626 0.234,-0.616 0.23,-0.602C0.227,-0.587 0.225,-0.552 0.225,-0.497L0.225,-0.172C0.225,-0.12 0.226,-0.086 0.229,-0.07C0.231,-0.054 0.238,-0.042 0.248,-0.034C0.259,-0.026 0.279,-0.022 0.309,-0.022L0.329,-0.022L0.329,-0L0.026,-0L0.026,-0.022L0.045,-0.022C0.074,-0.022 0.093,-0.026 0.104,-0.033C0.115,-0.04 0.122,-0.052 0.125,-0.067C0.128,-0.082 0.129,-0.117 0.129,-0.172L0.129,-0.497C0.129,-0.55 0.128,-0.584 0.125,-0.599C0.122,-0.614 0.116,-0.625 0.105,-0.631C0.095,-0.637 0.074,-0.64 0.04,-0.64L0.026,-0.64Z" style="fill-rule:nonzero;"/>
                </g>
                <g transform="matrix(48,0,0,48,290.149,339.351)">
                    <path d="M0.023,-0.657L0.132,-0.662C0.223,-0.667 0.284,-0.669 0.316,-0.669C0.414,-0.669 0.491,-0.654 0.546,-0.624C0.601,-0.594 0.642,-0.553 0.669,-0.502C0.696,-0.451 0.709,-0.392 0.709,-0.325C0.709,-0.276 0.702,-0.232 0.687,-0.192C0.672,-0.151 0.652,-0.118 0.627,-0.092C0.601,-0.065 0.572,-0.045 0.538,-0.031C0.504,-0.017 0.472,-0.009 0.442,-0.005C0.412,-0.002 0.369,-0 0.314,-0L0.021,-0L0.021,-0.022L0.048,-0.022C0.076,-0.022 0.096,-0.026 0.107,-0.033C0.118,-0.04 0.125,-0.052 0.128,-0.067C0.131,-0.082 0.132,-0.117 0.132,-0.172L0.132,-0.492C0.132,-0.544 0.131,-0.579 0.128,-0.594C0.125,-0.609 0.118,-0.62 0.108,-0.626C0.098,-0.631 0.076,-0.634 0.043,-0.634L0.023,-0.634L0.023,-0.657ZM0.228,-0.643L0.228,-0.201C0.228,-0.135 0.229,-0.093 0.231,-0.074C0.234,-0.055 0.241,-0.042 0.253,-0.034C0.265,-0.027 0.291,-0.023 0.331,-0.023C0.388,-0.023 0.436,-0.031 0.473,-0.047C0.51,-0.062 0.541,-0.094 0.566,-0.14C0.591,-0.186 0.603,-0.245 0.603,-0.317C0.603,-0.373 0.596,-0.423 0.581,-0.467C0.567,-0.511 0.546,-0.547 0.519,-0.574C0.492,-0.602 0.462,-0.621 0.429,-0.631C0.396,-0.641 0.354,-0.646 0.303,-0.646C0.278,-0.646 0.253,-0.645 0.228,-0.643Z" style="fill-rule:nonzero;"/>
                </g>
                <rect x="273.156" y="344.156" width="53.484" height="2.391"/>
            </g>
            <g transform="matrix(1,0,0,1,-7,-1)">
                <ellipse cx="161.624" cy="398.597" rx="138.615" ry="64.793" style="fill:none;stroke:black;stroke-width:5.5px;"/>
            </g>
            <g transform="matrix(1,0,0,1,79.5477,-65.4344)">
                <g transform="matrix(48,0,0,48,271.867,530.469)">
                    <path d="M0.48,0.016L0.458,0.016L0.339,-0.302L0.217,0.016L0.196,0.016L0.074,-0.302C0.06,-0.338 0.049,-0.36 0.042,-0.367C0.036,-0.374 0.022,-0.377 0.001,-0.377L0.001,-0.4L0.184,-0.4L0.184,-0.377C0.164,-0.377 0.15,-0.376 0.142,-0.372C0.135,-0.368 0.131,-0.362 0.131,-0.353C0.131,-0.346 0.137,-0.327 0.15,-0.295L0.231,-0.081L0.355,-0.4L0.374,-0.4L0.494,-0.081L0.582,-0.308C0.591,-0.332 0.596,-0.347 0.596,-0.352C0.596,-0.368 0.58,-0.376 0.547,-0.377L0.547,-0.4L0.677,-0.4L0.677,-0.377C0.661,-0.377 0.649,-0.374 0.64,-0.368C0.631,-0.363 0.623,-0.35 0.615,-0.33L0.604,-0.302L0.48,0.016Z" style="fill-rule:nonzero;"/>
                </g>
                <g transform="matrix(48,0,0,48,303.906,530.469)">
                    <path d="M0.037,-0.201C0.037,-0.262 0.058,-0.313 0.099,-0.354C0.14,-0.395 0.19,-0.416 0.25,-0.416C0.31,-0.416 0.361,-0.395 0.402,-0.354C0.443,-0.313 0.463,-0.262 0.463,-0.201C0.463,-0.133 0.443,-0.08 0.401,-0.042C0.359,-0.003 0.309,0.016 0.25,0.016C0.191,0.016 0.141,-0.003 0.099,-0.043C0.058,-0.082 0.037,-0.135 0.037,-0.201ZM0.118,-0.198C0.118,-0.127 0.13,-0.078 0.153,-0.049C0.176,-0.021 0.208,-0.006 0.25,-0.006C0.293,-0.006 0.325,-0.021 0.348,-0.049C0.371,-0.078 0.382,-0.127 0.382,-0.198C0.382,-0.269 0.371,-0.319 0.348,-0.349C0.326,-0.379 0.293,-0.394 0.25,-0.394C0.207,-0.394 0.175,-0.379 0.152,-0.349C0.129,-0.319 0.118,-0.269 0.118,-0.198Z" style="fill-rule:nonzero;"/>
                </g>
                <g transform="matrix(48,0,0,48,327.906,530.469)">
                    <path d="M0.167,-0.314C0.178,-0.343 0.196,-0.367 0.22,-0.387C0.245,-0.406 0.27,-0.416 0.293,-0.416C0.315,-0.416 0.332,-0.409 0.344,-0.396C0.357,-0.383 0.363,-0.369 0.363,-0.355C0.363,-0.346 0.36,-0.337 0.353,-0.331C0.347,-0.324 0.339,-0.32 0.33,-0.32C0.314,-0.32 0.301,-0.332 0.293,-0.356C0.287,-0.373 0.278,-0.381 0.267,-0.381C0.253,-0.381 0.236,-0.371 0.216,-0.352C0.197,-0.333 0.184,-0.313 0.179,-0.293C0.173,-0.272 0.17,-0.244 0.17,-0.208L0.17,-0.137C0.17,-0.095 0.171,-0.068 0.172,-0.057C0.173,-0.046 0.178,-0.037 0.186,-0.031C0.194,-0.025 0.209,-0.022 0.229,-0.022L0.243,-0.022L0.243,-0L0.031,-0L0.031,-0.022L0.041,-0.022C0.061,-0.022 0.074,-0.025 0.083,-0.031C0.091,-0.036 0.096,-0.043 0.098,-0.053C0.099,-0.063 0.1,-0.091 0.1,-0.137L0.1,-0.25C0.1,-0.293 0.1,-0.32 0.098,-0.331C0.097,-0.342 0.093,-0.35 0.084,-0.356C0.076,-0.362 0.062,-0.365 0.041,-0.365L0.031,-0.365L0.031,-0.387C0.061,-0.391 0.101,-0.4 0.151,-0.416C0.16,-0.39 0.166,-0.356 0.167,-0.314Z" style="fill-rule:nonzero;"/>
                </g>
                <g transform="matrix(48,0,0,48,344.499,530.469)">
                    <path d="M0.264,-0.4L0.425,-0.4L0.425,-0.377C0.396,-0.377 0.356,-0.355 0.306,-0.311C0.29,-0.297 0.265,-0.277 0.232,-0.251L0.375,-0.084C0.396,-0.059 0.413,-0.043 0.425,-0.035C0.438,-0.027 0.45,-0.023 0.463,-0.022L0.463,-0L0.264,-0L0.264,-0.022C0.297,-0.023 0.314,-0.03 0.314,-0.044C0.314,-0.05 0.303,-0.066 0.281,-0.091L0.179,-0.21L0.158,-0.195L0.158,-0.137C0.158,-0.095 0.158,-0.068 0.159,-0.057C0.161,-0.046 0.165,-0.038 0.173,-0.031C0.181,-0.025 0.196,-0.022 0.216,-0.022L0.216,-0L0.013,-0L0.013,-0.022L0.028,-0.022C0.052,-0.022 0.067,-0.026 0.074,-0.032C0.081,-0.039 0.085,-0.047 0.086,-0.056C0.087,-0.066 0.087,-0.093 0.087,-0.137L0.087,-0.538C0.087,-0.577 0.084,-0.602 0.076,-0.612C0.069,-0.623 0.051,-0.628 0.023,-0.628L0.023,-0.651C0.043,-0.651 0.066,-0.653 0.093,-0.658C0.119,-0.662 0.138,-0.667 0.147,-0.671L0.158,-0.671L0.158,-0.222L0.2,-0.251C0.268,-0.299 0.302,-0.334 0.302,-0.355C0.302,-0.369 0.289,-0.377 0.264,-0.377L0.264,-0.4Z" style="fill-rule:nonzero;"/>
                </g>
                <g transform="matrix(48,0,0,48,366.507,530.469)">
                    <path d="M0.041,0.013L0.041,-0.119L0.06,-0.119C0.082,-0.043 0.121,-0.005 0.178,-0.005C0.203,-0.005 0.221,-0.012 0.234,-0.027C0.246,-0.042 0.252,-0.059 0.252,-0.077C0.252,-0.097 0.245,-0.115 0.232,-0.128C0.219,-0.141 0.193,-0.157 0.155,-0.176C0.114,-0.196 0.085,-0.216 0.068,-0.235C0.05,-0.254 0.042,-0.277 0.042,-0.305C0.042,-0.331 0.051,-0.356 0.07,-0.38C0.089,-0.404 0.115,-0.416 0.149,-0.416C0.184,-0.416 0.213,-0.402 0.236,-0.374C0.241,-0.378 0.247,-0.39 0.255,-0.409L0.273,-0.409L0.273,-0.286L0.255,-0.286C0.248,-0.315 0.236,-0.341 0.217,-0.362C0.198,-0.383 0.176,-0.394 0.151,-0.394C0.131,-0.394 0.116,-0.388 0.104,-0.376C0.091,-0.364 0.085,-0.35 0.085,-0.334C0.085,-0.316 0.092,-0.301 0.105,-0.289C0.118,-0.276 0.143,-0.261 0.18,-0.244C0.236,-0.219 0.269,-0.195 0.282,-0.171C0.294,-0.147 0.3,-0.124 0.3,-0.102C0.3,-0.067 0.289,-0.038 0.266,-0.017C0.243,0.005 0.214,0.016 0.179,0.016C0.142,0.016 0.11,0.001 0.081,-0.029C0.072,-0.02 0.065,-0.006 0.06,0.013L0.041,0.013Z" style="fill-rule:nonzero;"/>
                </g>
                <g transform="matrix(48,0,0,48,382.515,530.469)">
                    <path d="M0.542,-0.662L0.548,-0.497L0.525,-0.497C0.52,-0.533 0.51,-0.563 0.494,-0.587C0.479,-0.61 0.462,-0.625 0.445,-0.631C0.428,-0.637 0.398,-0.64 0.357,-0.64L0.228,-0.64L0.228,-0.359L0.29,-0.359C0.33,-0.359 0.357,-0.366 0.37,-0.379C0.383,-0.393 0.39,-0.42 0.39,-0.46L0.414,-0.46L0.414,-0.227L0.39,-0.227C0.39,-0.255 0.387,-0.278 0.381,-0.294C0.375,-0.311 0.367,-0.322 0.356,-0.328C0.344,-0.334 0.323,-0.337 0.29,-0.337L0.228,-0.337L0.228,-0.172C0.228,-0.12 0.229,-0.086 0.232,-0.07C0.235,-0.054 0.241,-0.042 0.252,-0.034C0.262,-0.026 0.283,-0.022 0.313,-0.022L0.335,-0.022L0.335,-0L0.028,-0L0.028,-0.022L0.048,-0.022C0.077,-0.022 0.096,-0.026 0.107,-0.033C0.118,-0.04 0.125,-0.052 0.128,-0.067C0.131,-0.082 0.133,-0.117 0.133,-0.172L0.133,-0.497C0.133,-0.55 0.131,-0.584 0.128,-0.599C0.125,-0.614 0.119,-0.625 0.109,-0.631C0.099,-0.637 0.077,-0.64 0.043,-0.64L0.032,-0.64L0.032,-0.662L0.542,-0.662Z" style="fill-rule:nonzero;"/>
                </g>
                <g transform="matrix(48,0,0,48,404.57,530.469)">
                    <path d="M0.037,-0.201C0.037,-0.262 0.058,-0.313 0.099,-0.354C0.14,-0.395 0.19,-0.416 0.25,-0.416C0.31,-0.416 0.361,-0.395 0.402,-0.354C0.443,-0.313 0.463,-0.262 0.463,-0.201C0.463,-0.133 0.443,-0.08 0.401,-0.042C0.359,-0.003 0.309,0.016 0.25,0.016C0.191,0.016 0.141,-0.003 0.099,-0.043C0.058,-0.082 0.037,-0.135 0.037,-0.201ZM0.118,-0.198C0.118,-0.127 0.13,-0.078 0.153,-0.049C0.176,-0.021 0.208,-0.006 0.25,-0.006C0.293,-0.006 0.325,-0.021 0.348,-0.049C0.371,-0.078 0.382,-0.127 0.382,-0.198C0.382,-0.269 0.371,-0.319 0.348,-0.349C0.326,-0.379 0.293,-0.394 0.25,-0.394C0.207,-0.394 0.175,-0.379 0.152,-0.349C0.129,-0.319 0.118,-0.269 0.118,-0.198Z" style="fill-rule:nonzero;"/>
                </g>
                <g transform="matrix(48,0,0,48,428.57,530.469)">
                    <path d="M0.167,-0.314C0.178,-0.343 0.196,-0.367 0.22,-0.387C0.245,-0.406 0.27,-0.416 0.293,-0.416C0.315,-0.416 0.332,-0.409 0.344,-0.396C0.357,-0.383 0.363,-0.369 0.363,-0.355C0.363,-0.346 0.36,-0.337 0.353,-0.331C0.347,-0.324 0.339,-0.32 0.33,-0.32C0.314,-0.32 0.301,-0.332 0.293,-0.356C0.287,-0.373 0.278,-0.381 0.267,-0.381C0.253,-0.381 0.236,-0.371 0.216,-0.352C0.197,-0.333 0.184,-0.313 0.179,-0.293C0.173,-0.272 0.17,-0.244 0.17,-0.208L0.17,-0.137C0.17,-0.095 0.171,-0.068 0.172,-0.057C0.173,-0.046 0.178,-0.037 0.186,-0.031C0.194,-0.025 0.209,-0.022 0.229,-0.022L0.243,-0.022L0.243,-0L0.031,-0L0.031,-0.022L0.041,-0.022C0.061,-0.022 0.074,-0.025 0.083,-0.031C0.091,-0.036 0.096,-0.043 0.098,-0.053C0.099,-0.063 0.1,-0.091 0.1,-0.137L0.1,-0.25C0.1,-0.293 0.1,-0.32 0.098,-0.331C0.097,-0.342 0.093,-0.35 0.084,-0.356C0.076,-0.362 0.062,-0.365 0.041,-0.365L0.031,-0.365L0.031,-0.387C0.061,-0.391 0.101,-0.4 0.151,-0.416C0.16,-0.39 0.166,-0.356 0.167,-0.314Z" style="fill-rule:nonzero;"/>
                </g>
            </g>
            <g transform="matrix(1,0,0,1,-78.2647,-57.7362)">
                <g transform="matrix(48,0,0,48,428.341,371.564)">
                    <path d="M0.343,-0.365C0.37,-0.396 0.398,-0.412 0.427,-0.412C0.442,-0.412 0.455,-0.407 0.463,-0.399C0.472,-0.39 0.476,-0.381 0.476,-0.371C0.476,-0.35 0.466,-0.339 0.447,-0.339C0.436,-0.339 0.427,-0.346 0.419,-0.359C0.412,-0.371 0.404,-0.377 0.396,-0.377C0.384,-0.377 0.37,-0.369 0.355,-0.352C0.372,-0.325 0.381,-0.297 0.381,-0.267C0.381,-0.228 0.367,-0.194 0.339,-0.164C0.311,-0.133 0.264,-0.117 0.197,-0.115C0.128,-0.112 0.094,-0.098 0.094,-0.073C0.094,-0.061 0.102,-0.052 0.117,-0.047C0.132,-0.042 0.165,-0.038 0.214,-0.036C0.268,-0.033 0.309,-0.028 0.338,-0.021C0.367,-0.013 0.39,0.001 0.407,0.023C0.424,0.046 0.433,0.072 0.433,0.103C0.433,0.146 0.416,0.18 0.38,0.207C0.345,0.233 0.295,0.246 0.229,0.246C0.168,0.246 0.119,0.234 0.083,0.211C0.047,0.188 0.028,0.158 0.028,0.122C0.028,0.102 0.034,0.086 0.044,0.073C0.054,0.061 0.069,0.054 0.088,0.054C0.094,0.054 0.098,0.055 0.103,0.057C0.082,0.079 0.072,0.102 0.072,0.127C0.072,0.156 0.086,0.179 0.113,0.198C0.139,0.217 0.18,0.226 0.233,0.226C0.28,0.226 0.317,0.217 0.344,0.198C0.371,0.178 0.384,0.154 0.384,0.125C0.384,0.092 0.372,0.069 0.348,0.056C0.324,0.043 0.282,0.035 0.221,0.032C0.151,0.029 0.106,0.021 0.085,0.006C0.064,-0.008 0.054,-0.026 0.054,-0.048C0.054,-0.09 0.083,-0.117 0.143,-0.128C0.112,-0.147 0.089,-0.167 0.073,-0.191C0.058,-0.214 0.05,-0.241 0.05,-0.27C0.05,-0.31 0.066,-0.345 0.098,-0.373C0.13,-0.402 0.168,-0.416 0.212,-0.416C0.266,-0.416 0.31,-0.399 0.343,-0.365ZM0.123,-0.258C0.123,-0.216 0.132,-0.186 0.149,-0.166C0.166,-0.146 0.188,-0.137 0.215,-0.137C0.24,-0.137 0.261,-0.146 0.279,-0.166C0.296,-0.185 0.305,-0.219 0.305,-0.267C0.305,-0.315 0.296,-0.348 0.277,-0.366C0.258,-0.384 0.237,-0.394 0.213,-0.394C0.183,-0.394 0.16,-0.382 0.146,-0.36C0.131,-0.337 0.123,-0.304 0.123,-0.258Z" style="fill-rule:nonzero;"/>
                </g>
                <g transform="matrix(48,0,0,48,450.841,371.564)">
                    <path d="M0.067,-0.62C0.067,-0.634 0.072,-0.646 0.082,-0.656C0.092,-0.666 0.104,-0.671 0.118,-0.671C0.132,-0.671 0.144,-0.666 0.153,-0.656C0.163,-0.646 0.168,-0.634 0.168,-0.62C0.168,-0.606 0.163,-0.594 0.153,-0.583C0.144,-0.573 0.132,-0.568 0.118,-0.568C0.104,-0.568 0.092,-0.573 0.082,-0.583C0.072,-0.594 0.067,-0.606 0.067,-0.62ZM0.161,-0.416L0.161,-0.137C0.161,-0.095 0.162,-0.068 0.163,-0.057C0.164,-0.046 0.169,-0.037 0.177,-0.031C0.185,-0.025 0.2,-0.022 0.221,-0.022L0.231,-0.022L0.231,-0L0.016,-0L0.016,-0.022L0.032,-0.022C0.055,-0.022 0.07,-0.026 0.077,-0.032C0.084,-0.039 0.088,-0.047 0.09,-0.056C0.091,-0.066 0.091,-0.093 0.091,-0.137L0.091,-0.258C0.091,-0.305 0.089,-0.334 0.085,-0.344C0.08,-0.355 0.074,-0.361 0.067,-0.364C0.06,-0.366 0.047,-0.368 0.029,-0.368L0.016,-0.368L0.016,-0.39C0.074,-0.396 0.118,-0.405 0.15,-0.416L0.161,-0.416Z" style="fill-rule:nonzero;"/>
                </g>
                <g transform="matrix(48,0,0,48,462.841,371.564)">
                    <path d="M0.243,0.016L0.214,0.016L0.072,-0.305C0.058,-0.336 0.047,-0.355 0.039,-0.364C0.031,-0.372 0.018,-0.377 -0.001,-0.377L-0.001,-0.4L0.18,-0.4L0.18,-0.377C0.16,-0.377 0.146,-0.376 0.139,-0.373C0.132,-0.369 0.128,-0.363 0.128,-0.354C0.128,-0.347 0.134,-0.329 0.147,-0.302L0.255,-0.059L0.353,-0.275C0.368,-0.31 0.375,-0.332 0.375,-0.343C0.375,-0.365 0.359,-0.376 0.327,-0.377L0.327,-0.4L0.461,-0.4L0.461,-0.377C0.445,-0.376 0.431,-0.37 0.42,-0.357C0.408,-0.344 0.393,-0.315 0.373,-0.27L0.243,0.016Z" style="fill-rule:nonzero;"/>
                </g>
                <g transform="matrix(48,0,0,48,483.935,371.564)">
                    <path d="M0.399,-0.265L0.121,-0.265C0.119,-0.245 0.119,-0.231 0.119,-0.222C0.119,-0.151 0.13,-0.099 0.152,-0.063C0.174,-0.028 0.206,-0.01 0.25,-0.01C0.309,-0.01 0.351,-0.037 0.376,-0.09L0.399,-0.09C0.389,-0.057 0.368,-0.031 0.337,-0.012C0.306,0.007 0.273,0.016 0.236,0.016C0.202,0.016 0.17,0.008 0.14,-0.01C0.11,-0.027 0.086,-0.051 0.066,-0.082C0.047,-0.113 0.038,-0.151 0.038,-0.196C0.038,-0.259 0.056,-0.311 0.093,-0.353C0.13,-0.395 0.177,-0.416 0.232,-0.416C0.285,-0.416 0.325,-0.4 0.354,-0.368C0.383,-0.336 0.398,-0.302 0.399,-0.265ZM0.314,-0.284C0.315,-0.292 0.315,-0.298 0.315,-0.304C0.315,-0.333 0.307,-0.355 0.29,-0.371C0.274,-0.387 0.253,-0.395 0.229,-0.395C0.169,-0.395 0.134,-0.358 0.123,-0.284L0.314,-0.284Z" style="fill-rule:nonzero;"/>
                </g>
                <g transform="matrix(48,0,0,48,504.935,371.564)">
                    <path d="M0.138,-0.416L0.151,-0.416C0.158,-0.396 0.163,-0.368 0.164,-0.333C0.187,-0.361 0.212,-0.382 0.237,-0.396C0.263,-0.409 0.29,-0.416 0.318,-0.416C0.35,-0.416 0.376,-0.409 0.396,-0.396C0.417,-0.383 0.43,-0.366 0.436,-0.347C0.441,-0.328 0.444,-0.299 0.444,-0.262L0.444,-0.137C0.444,-0.091 0.445,-0.063 0.447,-0.053C0.448,-0.043 0.454,-0.035 0.462,-0.03C0.471,-0.025 0.487,-0.022 0.51,-0.022L0.51,-0L0.305,-0L0.305,-0.022L0.314,-0.022C0.338,-0.022 0.353,-0.026 0.36,-0.033C0.368,-0.04 0.372,-0.048 0.373,-0.057C0.374,-0.066 0.374,-0.093 0.374,-0.137L0.374,-0.266C0.374,-0.298 0.372,-0.32 0.369,-0.334C0.366,-0.347 0.358,-0.359 0.344,-0.37C0.331,-0.38 0.314,-0.385 0.293,-0.385C0.269,-0.385 0.247,-0.378 0.225,-0.364C0.203,-0.35 0.183,-0.329 0.164,-0.3L0.164,-0.137C0.164,-0.091 0.164,-0.063 0.166,-0.053C0.168,-0.043 0.173,-0.035 0.182,-0.03C0.191,-0.025 0.207,-0.022 0.23,-0.022L0.23,-0L0.028,-0L0.028,-0.022C0.05,-0.022 0.066,-0.025 0.075,-0.029C0.083,-0.034 0.089,-0.041 0.091,-0.05C0.093,-0.059 0.094,-0.088 0.094,-0.137L0.094,-0.256C0.094,-0.303 0.093,-0.331 0.092,-0.341C0.09,-0.351 0.085,-0.358 0.076,-0.364C0.067,-0.369 0.051,-0.371 0.028,-0.371L0.028,-0.394C0.064,-0.397 0.1,-0.405 0.138,-0.416Z" style="fill-rule:nonzero;"/>
                </g>
                <g transform="matrix(48,0,0,48,530.435,371.564)">
                    <path d="M0.616,0.015L0.147,-0.605L0.147,-0.146C0.147,-0.108 0.149,-0.083 0.153,-0.071C0.157,-0.059 0.167,-0.048 0.185,-0.038C0.203,-0.028 0.229,-0.022 0.264,-0.022L0.264,-0L0.017,-0L0.017,-0.022C0.049,-0.025 0.073,-0.031 0.089,-0.04C0.106,-0.049 0.116,-0.059 0.119,-0.07C0.122,-0.081 0.124,-0.106 0.124,-0.146L0.124,-0.497C0.124,-0.548 0.121,-0.582 0.116,-0.599C0.112,-0.616 0.104,-0.627 0.094,-0.632C0.084,-0.637 0.061,-0.64 0.025,-0.64L0.025,-0.662L0.221,-0.662L0.613,-0.144L0.613,-0.54C0.613,-0.569 0.61,-0.59 0.604,-0.602C0.598,-0.613 0.585,-0.623 0.567,-0.629C0.548,-0.636 0.526,-0.64 0.5,-0.64L0.5,-0.662L0.74,-0.662L0.74,-0.64C0.712,-0.637 0.69,-0.632 0.674,-0.624C0.658,-0.615 0.648,-0.605 0.643,-0.593C0.639,-0.581 0.637,-0.561 0.637,-0.533L0.637,0.015L0.616,0.015Z" style="fill-rule:nonzero;"/>
                </g>
                <g transform="matrix(48,0,0,48,566.435,371.564)">
                    <path d="M0.44,-0.073L0.458,-0.073C0.456,-0.018 0.428,0.01 0.376,0.01C0.354,0.01 0.337,0.004 0.324,-0.007C0.311,-0.019 0.303,-0.036 0.299,-0.06C0.266,-0.036 0.237,-0.019 0.21,-0.007C0.183,0.004 0.159,0.01 0.138,0.01C0.111,0.01 0.087,0.002 0.068,-0.013C0.048,-0.029 0.039,-0.049 0.039,-0.075C0.039,-0.109 0.055,-0.138 0.088,-0.163C0.12,-0.188 0.166,-0.213 0.223,-0.236L0.299,-0.267L0.299,-0.287C0.299,-0.314 0.297,-0.334 0.293,-0.347C0.29,-0.359 0.281,-0.37 0.266,-0.38C0.251,-0.39 0.231,-0.395 0.207,-0.395C0.158,-0.395 0.131,-0.378 0.125,-0.346C0.12,-0.313 0.106,-0.296 0.084,-0.296C0.064,-0.296 0.054,-0.305 0.054,-0.324C0.054,-0.343 0.067,-0.363 0.094,-0.384C0.12,-0.405 0.161,-0.416 0.217,-0.416C0.258,-0.416 0.29,-0.41 0.313,-0.396C0.336,-0.383 0.351,-0.369 0.358,-0.352C0.365,-0.335 0.369,-0.31 0.369,-0.276L0.369,-0.114C0.369,-0.076 0.371,-0.052 0.375,-0.042C0.379,-0.031 0.387,-0.025 0.4,-0.025C0.422,-0.025 0.435,-0.041 0.44,-0.073ZM0.299,-0.244L0.246,-0.223C0.162,-0.188 0.12,-0.146 0.12,-0.094C0.12,-0.073 0.125,-0.057 0.136,-0.044C0.146,-0.032 0.16,-0.025 0.178,-0.025C0.193,-0.025 0.211,-0.03 0.231,-0.041C0.251,-0.051 0.274,-0.066 0.299,-0.086L0.299,-0.244Z" style="fill-rule:nonzero;"/>
                </g>
                <g transform="matrix(48,0,0,48,588.935,371.564)">
                    <path d="M0.14,-0.416L0.145,-0.416C0.154,-0.394 0.159,-0.366 0.159,-0.332C0.181,-0.36 0.205,-0.381 0.23,-0.395C0.255,-0.409 0.282,-0.416 0.311,-0.416C0.344,-0.416 0.371,-0.409 0.391,-0.394C0.412,-0.379 0.426,-0.356 0.434,-0.326C0.459,-0.356 0.484,-0.379 0.51,-0.394C0.536,-0.409 0.563,-0.416 0.59,-0.416C0.621,-0.416 0.647,-0.409 0.668,-0.395C0.69,-0.38 0.703,-0.364 0.708,-0.346C0.712,-0.327 0.714,-0.298 0.714,-0.257L0.714,-0.137C0.714,-0.091 0.715,-0.062 0.717,-0.052C0.719,-0.042 0.724,-0.035 0.733,-0.03C0.741,-0.025 0.757,-0.022 0.781,-0.022L0.781,-0L0.581,-0L0.581,-0.022C0.602,-0.022 0.617,-0.025 0.626,-0.03C0.634,-0.034 0.64,-0.041 0.642,-0.051C0.644,-0.061 0.645,-0.089 0.645,-0.137L0.645,-0.271C0.645,-0.298 0.643,-0.318 0.64,-0.332C0.637,-0.345 0.629,-0.357 0.616,-0.367C0.603,-0.376 0.586,-0.381 0.565,-0.381C0.544,-0.381 0.523,-0.374 0.501,-0.36C0.48,-0.346 0.458,-0.324 0.437,-0.295L0.437,-0.137C0.437,-0.095 0.438,-0.068 0.439,-0.057C0.44,-0.046 0.444,-0.038 0.452,-0.031C0.46,-0.025 0.475,-0.022 0.495,-0.022L0.495,-0L0.302,-0L0.302,-0.022C0.324,-0.022 0.339,-0.025 0.347,-0.029C0.356,-0.034 0.361,-0.041 0.364,-0.05C0.366,-0.06 0.367,-0.089 0.367,-0.137L0.367,-0.248C0.367,-0.283 0.365,-0.309 0.363,-0.324C0.36,-0.34 0.351,-0.354 0.337,-0.365C0.323,-0.376 0.306,-0.382 0.285,-0.382C0.265,-0.382 0.244,-0.375 0.223,-0.362C0.202,-0.349 0.181,-0.33 0.159,-0.304L0.159,-0.137C0.159,-0.093 0.16,-0.066 0.161,-0.055C0.162,-0.044 0.167,-0.036 0.176,-0.031C0.184,-0.025 0.199,-0.022 0.221,-0.022L0.221,-0L0.025,-0L0.025,-0.022C0.047,-0.022 0.062,-0.025 0.071,-0.03C0.079,-0.034 0.084,-0.041 0.086,-0.051C0.088,-0.06 0.089,-0.089 0.089,-0.137L0.089,-0.257C0.089,-0.302 0.089,-0.33 0.087,-0.341C0.086,-0.351 0.081,-0.359 0.072,-0.364C0.063,-0.369 0.048,-0.372 0.025,-0.372L0.025,-0.394C0.072,-0.399 0.11,-0.406 0.14,-0.416Z" style="fill-rule:nonzero;"/>
                </g>
                <g transform="matrix(48,0,0,48,627.442,371.564)">
                    <path d="M0.399,-0.265L0.121,-0.265C0.119,-0.245 0.119,-0.231 0.119,-0.222C0.119,-0.151 0.13,-0.099 0.152,-0.063C0.174,-0.028 0.206,-0.01 0.25,-0.01C0.309,-0.01 0.351,-0.037 0.376,-0.09L0.399,-0.09C0.389,-0.057 0.368,-0.031 0.337,-0.012C0.306,0.007 0.273,0.016 0.236,0.016C0.202,0.016 0.17,0.008 0.14,-0.01C0.11,-0.027 0.086,-0.051 0.066,-0.082C0.047,-0.113 0.038,-0.151 0.038,-0.196C0.038,-0.259 0.056,-0.311 0.093,-0.353C0.13,-0.395 0.177,-0.416 0.232,-0.416C0.285,-0.416 0.325,-0.4 0.354,-0.368C0.383,-0.336 0.398,-0.302 0.399,-0.265ZM0.314,-0.284C0.315,-0.292 0.315,-0.298 0.315,-0.304C0.315,-0.333 0.307,-0.355 0.29,-0.371C0.274,-0.387 0.253,-0.395 0.229,-0.395C0.169,-0.395 0.134,-0.358 0.123,-0.284L0.314,-0.284Z" style="fill-rule:nonzero;"/>
                </g>
            </g>
        </g>
        <g transform="matrix(1,0,0,1,828,-3)">
            <g transform="matrix(1,0,0,1,-76.3295,-117.715)">
                <g transform="matrix(48,0,0,48,115.68,339.351)">
                    <path d="M0.274,-0.377L0.154,-0.377L0.154,-0.136C0.154,-0.099 0.155,-0.074 0.159,-0.061C0.162,-0.048 0.169,-0.038 0.179,-0.03C0.19,-0.022 0.201,-0.018 0.213,-0.018C0.237,-0.018 0.257,-0.031 0.274,-0.058L0.29,-0.049C0.28,-0.027 0.265,-0.011 0.245,-0C0.226,0.011 0.206,0.016 0.186,0.016C0.162,0.016 0.142,0.009 0.124,-0.005C0.106,-0.018 0.095,-0.035 0.091,-0.053C0.086,-0.072 0.084,-0.104 0.084,-0.151L0.084,-0.377L0.026,-0.377L0.026,-0.4C0.053,-0.401 0.076,-0.412 0.098,-0.434C0.119,-0.455 0.132,-0.486 0.138,-0.525L0.154,-0.525L0.154,-0.4L0.274,-0.4L0.274,-0.377Z" style="fill-rule:nonzero;"/>
                </g>
                <g transform="matrix(48,0,0,48,129.672,339.351)">
                    <path d="M0.399,-0.265L0.121,-0.265C0.119,-0.245 0.119,-0.231 0.119,-0.222C0.119,-0.151 0.13,-0.099 0.152,-0.063C0.174,-0.028 0.206,-0.01 0.25,-0.01C0.309,-0.01 0.351,-0.037 0.376,-0.09L0.399,-0.09C0.389,-0.057 0.368,-0.031 0.337,-0.012C0.306,0.007 0.273,0.016 0.236,0.016C0.202,0.016 0.17,0.008 0.14,-0.01C0.11,-0.027 0.086,-0.051 0.066,-0.082C0.047,-0.113 0.038,-0.151 0.038,-0.196C0.038,-0.259 0.056,-0.311 0.093,-0.353C0.13,-0.395 0.177,-0.416 0.232,-0.416C0.285,-0.416 0.325,-0.4 0.354,-0.368C0.383,-0.336 0.398,-0.302 0.399,-0.265ZM0.314,-0.284C0.315,-0.292 0.315,-0.298 0.315,-0.304C0.315,-0.333 0.307,-0.355 0.29,-0.371C0.274,-0.387 0.253,-0.395 0.229,-0.395C0.169,-0.395 0.134,-0.358 0.123,-0.284L0.314,-0.284Z" style="fill-rule:nonzero;"/>
                </g>
                <g transform="matrix(48,0,0,48,150.203,339.351)">
                    <path d="M0.268,-0.227L0.38,-0.086C0.4,-0.062 0.416,-0.045 0.429,-0.036C0.442,-0.028 0.457,-0.023 0.475,-0.022L0.475,-0L0.275,-0L0.275,-0.022C0.308,-0.022 0.325,-0.029 0.325,-0.042C0.325,-0.047 0.317,-0.058 0.302,-0.075L0.223,-0.173L0.15,-0.086C0.132,-0.066 0.123,-0.053 0.123,-0.047C0.123,-0.031 0.141,-0.023 0.177,-0.022L0.177,-0L0.013,-0L0.013,-0.022C0.027,-0.022 0.043,-0.026 0.06,-0.034C0.077,-0.041 0.1,-0.061 0.127,-0.093L0.209,-0.191L0.121,-0.303C0.096,-0.335 0.077,-0.355 0.064,-0.364C0.051,-0.373 0.036,-0.377 0.018,-0.377L0.018,-0.4L0.207,-0.4L0.207,-0.377C0.18,-0.377 0.166,-0.371 0.166,-0.359C0.166,-0.354 0.172,-0.344 0.184,-0.33L0.254,-0.243L0.319,-0.319C0.334,-0.336 0.341,-0.347 0.341,-0.352C0.341,-0.369 0.323,-0.377 0.288,-0.377L0.288,-0.4L0.446,-0.4L0.446,-0.377C0.414,-0.376 0.381,-0.356 0.347,-0.317L0.268,-0.227Z" style="fill-rule:nonzero;"/>
                </g>
                <g transform="matrix(48,0,0,48,173.195,339.351)">
                    <path d="M0.274,-0.377L0.154,-0.377L0.154,-0.136C0.154,-0.099 0.155,-0.074 0.159,-0.061C0.162,-0.048 0.169,-0.038 0.179,-0.03C0.19,-0.022 0.201,-0.018 0.213,-0.018C0.237,-0.018 0.257,-0.031 0.274,-0.058L0.29,-0.049C0.28,-0.027 0.265,-0.011 0.245,-0C0.226,0.011 0.206,0.016 0.186,0.016C0.162,0.016 0.142,0.009 0.124,-0.005C0.106,-0.018 0.095,-0.035 0.091,-0.053C0.086,-0.072 0.084,-0.104 0.084,-0.151L0.084,-0.377L0.026,-0.377L0.026,-0.4C0.053,-0.401 0.076,-0.412 0.098,-0.434C0.119,-0.455 0.132,-0.486 0.138,-0.525L0.154,-0.525L0.154,-0.4L0.274,-0.4L0.274,-0.377Z" style="fill-rule:nonzero;"/>
                </g>
                <rect x="115.68" y="344.156" width="71.508" height="2.391"/>
            </g>
            <g transform="matrix(1,0,0,1,-76.3295,84.7757)">
                <g transform="matrix(48,0,0,48,115.68,411.351)">
                    <path d="M0.274,-0.377L0.154,-0.377L0.154,-0.136C0.154,-0.099 0.155,-0.074 0.159,-0.061C0.162,-0.048 0.169,-0.038 0.179,-0.03C0.19,-0.022 0.201,-0.018 0.213,-0.018C0.237,-0.018 0.257,-0.031 0.274,-0.058L0.29,-0.049C0.28,-0.027 0.265,-0.011 0.245,-0C0.226,0.011 0.206,0.016 0.186,0.016C0.162,0.016 0.142,0.009 0.124,-0.005C0.106,-0.018 0.095,-0.035 0.091,-0.053C0.086,-0.072 0.084,-0.104 0.084,-0.151L0.084,-0.377L0.026,-0.377L0.026,-0.4C0.053,-0.401 0.076,-0.412 0.098,-0.434C0.119,-0.455 0.132,-0.486 0.138,-0.525L0.154,-0.525L0.154,-0.4L0.274,-0.4L0.274,-0.377Z" style="fill-rule:nonzero;"/>
                </g>
                <g transform="matrix(48,0,0,48,129.672,411.351)">
                    <path d="M0.399,-0.265L0.121,-0.265C0.119,-0.245 0.119,-0.231 0.119,-0.222C0.119,-0.151 0.13,-0.099 0.152,-0.063C0.174,-0.028 0.206,-0.01 0.25,-0.01C0.309,-0.01 0.351,-0.037 0.376,-0.09L0.399,-0.09C0.389,-0.057 0.368,-0.031 0.337,-0.012C0.306,0.007 0.273,0.016 0.236,0.016C0.202,0.016 0.17,0.008 0.14,-0.01C0.11,-0.027 0.086,-0.051 0.066,-0.082C0.047,-0.113 0.038,-0.151 0.038,-0.196C0.038,-0.259 0.056,-0.311 0.093,-0.353C0.13,-0.395 0.177,-0.416 0.232,-0.416C0.285,-0.416 0.325,-0.4 0.354,-0.368C0.383,-0.336 0.398,-0.302 0.399,-0.265ZM0.314,-0.284C0.315,-0.292 0.315,-0.298 0.315,-0.304C0.315,-0.333 0.307,-0.355 0.29,-0.371C0.274,-0.387 0.253,-0.395 0.229,-0.395C0.169,-0.395 0.134,-0.358 0.123,-0.284L0.314,-0.284Z" style="fill-rule:nonzero;"/>
                </g>
                <g transform="matrix(48,0,0,48,150.203,411.351)">
                    <path d="M0.268,-0.227L0.38,-0.086C0.4,-0.062 0.416,-0.045 0.429,-0.036C0.442,-0.028 0.457,-0.023 0.475,-0.022L0.475,-0L0.275,-0L0.275,-0.022C0.308,-0.022 0.325,-0.029 0.325,-0.042C0.325,-0.047 0.317,-0.058 0.302,-0.075L0.223,-0.173L0.15,-0.086C0.132,-0.066 0.123,-0.053 0.123,-0.047C0.123,-0.031 0.141,-0.023 0.177,-0.022L0.177,-0L0.013,-0L0.013,-0.022C0.027,-0.022 0.043,-0.026 0.06,-0.034C0.077,-0.041 0.1,-0.061 0.127,-0.093L0.209,-0.191L0.121,-0.303C0.096,-0.335 0.077,-0.355 0.064,-0.364C0.051,-0.373 0.036,-0.377 0.018,-0.377L0.018,-0.4L0.207,-0.4L0.207,-0.377C0.18,-0.377 0.166,-0.371 0.166,-0.359C0.166,-0.354 0.172,-0.344 0.184,-0.33L0.254,-0.243L0.319,-0.319C0.334,-0.336 0.341,-0.347 0.341,-0.352C0.341,-0.369 0.323,-0.377 0.288,-0.377L0.288,-0.4L0.446,-0.4L0.446,-0.377C0.414,-0.376 0.381,-0.356 0.347,-0.317L0.268,-0.227Z" style="fill-rule:nonzero;"/>
                </g>
                <g transform="matrix(48,0,0,48,173.195,411.351)">
                    <path d="M0.274,-0.377L0.154,-0.377L0.154,-0.136C0.154,-0.099 0.155,-0.074 0.159,-0.061C0.162,-0.048 0.169,-0.038 0.179,-0.03C0.19,-0.022 0.201,-0.018 0.213,-0.018C0.237,-0.018 0.257,-0.031 0.274,-0.058L0.29,-0.049C0.28,-0.027 0.265,-0.011 0.245,-0C0.226,0.011 0.206,0.016 0.186,0.016C0.162,0.016 0.142,0.009 0.124,-0.005C0.106,-0.018 0.095,-0.035 0.091,-0.053C0.086,-0.072 0.084,-0.104 0.084,-0.151L0.084,-0.377L0.026,-0.377L0.026,-0.4C0.053,-0.401 0.076,-0.412 0.098,-0.434C0.119,-0.455 0.132,-0.486 0.138,-0.525L0.154,-0.525L0.154,-0.4L0.274,-0.4L0.274,-0.377Z" style="fill-rule:nonzero;"/>
                </g>
                <rect x="115.68" y="416.156" width="71.508" height="2.391"/>
            </g>
        </g>
        <g transform="matrix(1,0,0,1,-70.0841,508.336)">
            <g transform="matrix(48,0,0,48,115.68,339.351)">
                <path d="M0.046,-0.333C0.046,-0.393 0.063,-0.451 0.096,-0.507C0.129,-0.564 0.174,-0.606 0.231,-0.633C0.288,-0.66 0.349,-0.674 0.414,-0.674C0.53,-0.674 0.622,-0.64 0.688,-0.573C0.754,-0.506 0.787,-0.423 0.787,-0.326C0.787,-0.233 0.754,-0.153 0.688,-0.086C0.622,-0.02 0.532,0.014 0.418,0.014C0.341,0.014 0.272,-0.003 0.212,-0.036C0.152,-0.069 0.11,-0.113 0.084,-0.168C0.059,-0.224 0.046,-0.279 0.046,-0.333ZM0.25,-0.338C0.25,-0.236 0.264,-0.163 0.292,-0.118C0.319,-0.073 0.36,-0.05 0.414,-0.05C0.47,-0.05 0.512,-0.071 0.541,-0.112C0.57,-0.153 0.584,-0.225 0.584,-0.329C0.584,-0.423 0.571,-0.493 0.544,-0.54C0.517,-0.587 0.474,-0.61 0.416,-0.61C0.36,-0.61 0.319,-0.588 0.292,-0.545C0.264,-0.502 0.25,-0.433 0.25,-0.338Z" style="fill-rule:nonzero;"/>
            </g>
            <g transform="matrix(48,0,0,48,155.688,339.351)">
                <path d="M0.242,-0.315C0.261,-0.349 0.283,-0.374 0.307,-0.391C0.331,-0.408 0.357,-0.416 0.386,-0.416C0.414,-0.416 0.435,-0.407 0.449,-0.39C0.464,-0.372 0.471,-0.354 0.471,-0.333C0.471,-0.314 0.465,-0.297 0.454,-0.284C0.442,-0.27 0.426,-0.263 0.406,-0.263C0.395,-0.263 0.386,-0.265 0.378,-0.27C0.371,-0.274 0.362,-0.283 0.35,-0.296C0.338,-0.309 0.326,-0.315 0.312,-0.315C0.291,-0.315 0.275,-0.302 0.264,-0.277C0.254,-0.251 0.249,-0.212 0.249,-0.16L0.249,-0.117C0.249,-0.093 0.252,-0.076 0.26,-0.066C0.267,-0.057 0.285,-0.052 0.312,-0.052L0.321,-0.052L0.321,-0L0.025,-0L0.025,-0.052C0.053,-0.052 0.071,-0.056 0.079,-0.066C0.086,-0.075 0.09,-0.092 0.09,-0.117L0.09,-0.256C0.09,-0.281 0.086,-0.298 0.078,-0.307C0.071,-0.317 0.053,-0.321 0.024,-0.321L0.024,-0.373L0.227,-0.416C0.236,-0.39 0.241,-0.356 0.242,-0.315Z" style="fill-rule:nonzero;"/>
            </g>
            <g transform="matrix(48,0,0,48,178.68,339.351)">
                <path d="M0.157,-0.143C0.121,-0.152 0.094,-0.169 0.074,-0.194C0.054,-0.219 0.044,-0.246 0.044,-0.274C0.044,-0.32 0.064,-0.355 0.104,-0.379C0.144,-0.403 0.195,-0.415 0.257,-0.415C0.292,-0.415 0.322,-0.412 0.348,-0.405C0.374,-0.398 0.395,-0.387 0.413,-0.373C0.447,-0.402 0.475,-0.416 0.499,-0.416C0.531,-0.416 0.547,-0.4 0.547,-0.369C0.547,-0.342 0.536,-0.329 0.514,-0.329C0.506,-0.329 0.494,-0.335 0.48,-0.347C0.474,-0.351 0.469,-0.354 0.464,-0.354C0.458,-0.354 0.45,-0.35 0.442,-0.342C0.454,-0.322 0.46,-0.299 0.46,-0.274C0.46,-0.235 0.445,-0.201 0.414,-0.174C0.382,-0.146 0.326,-0.13 0.245,-0.127C0.211,-0.126 0.188,-0.122 0.175,-0.116C0.162,-0.11 0.155,-0.101 0.155,-0.089C0.155,-0.072 0.176,-0.063 0.219,-0.063C0.228,-0.063 0.249,-0.064 0.282,-0.065C0.293,-0.065 0.305,-0.065 0.316,-0.065C0.387,-0.065 0.439,-0.054 0.47,-0.032C0.502,-0.01 0.518,0.026 0.518,0.075C0.518,0.126 0.496,0.167 0.452,0.199C0.408,0.232 0.341,0.248 0.252,0.248C0.167,0.248 0.11,0.237 0.079,0.215C0.048,0.194 0.032,0.17 0.032,0.143C0.032,0.126 0.038,0.112 0.049,0.101C0.06,0.09 0.073,0.085 0.088,0.085C0.1,0.085 0.113,0.089 0.129,0.096C0.127,0.102 0.125,0.108 0.124,0.113C0.123,0.118 0.122,0.123 0.122,0.128C0.122,0.151 0.133,0.168 0.156,0.179C0.179,0.191 0.213,0.196 0.259,0.196C0.315,0.196 0.358,0.188 0.386,0.172C0.414,0.156 0.428,0.137 0.428,0.114C0.428,0.092 0.419,0.078 0.399,0.072C0.38,0.066 0.336,0.063 0.267,0.063C0.192,0.063 0.137,0.056 0.105,0.04C0.072,0.024 0.056,-0.003 0.056,-0.041C0.056,-0.067 0.064,-0.089 0.081,-0.106C0.098,-0.123 0.123,-0.135 0.157,-0.143ZM0.196,-0.278C0.196,-0.247 0.201,-0.224 0.211,-0.208C0.221,-0.192 0.236,-0.184 0.255,-0.184C0.274,-0.184 0.288,-0.192 0.298,-0.208C0.307,-0.225 0.312,-0.249 0.312,-0.282C0.312,-0.31 0.306,-0.331 0.295,-0.343C0.284,-0.356 0.27,-0.362 0.254,-0.362C0.235,-0.362 0.22,-0.355 0.211,-0.341C0.201,-0.327 0.196,-0.306 0.196,-0.278Z" style="fill-rule:nonzero;"/>
            </g>
            <g transform="matrix(48,0,0,48,204.672,339.351)">
                <path d="M0.316,-0.042C0.293,-0.025 0.268,-0.012 0.242,-0.004C0.216,0.005 0.189,0.009 0.161,0.009C0.123,0.009 0.095,0.001 0.076,-0.016C0.058,-0.033 0.048,-0.054 0.048,-0.079C0.048,-0.115 0.067,-0.146 0.104,-0.173C0.142,-0.201 0.21,-0.231 0.308,-0.264L0.308,-0.3C0.308,-0.326 0.301,-0.343 0.289,-0.35C0.277,-0.357 0.262,-0.361 0.245,-0.361C0.204,-0.361 0.181,-0.346 0.177,-0.316C0.174,-0.295 0.167,-0.281 0.157,-0.271C0.147,-0.262 0.132,-0.257 0.112,-0.257C0.093,-0.257 0.079,-0.262 0.068,-0.272C0.057,-0.282 0.051,-0.294 0.051,-0.307C0.051,-0.337 0.071,-0.363 0.111,-0.384C0.151,-0.405 0.205,-0.416 0.272,-0.416C0.309,-0.416 0.341,-0.414 0.366,-0.409C0.391,-0.405 0.412,-0.396 0.427,-0.384C0.442,-0.371 0.453,-0.358 0.458,-0.345C0.463,-0.331 0.465,-0.313 0.465,-0.289L0.465,-0.104C0.465,-0.076 0.474,-0.062 0.491,-0.062C0.505,-0.062 0.515,-0.071 0.519,-0.089L0.559,-0.089C0.558,-0.055 0.546,-0.031 0.522,-0.015C0.499,0.001 0.47,0.009 0.438,0.009C0.378,0.009 0.337,-0.008 0.316,-0.042ZM0.308,-0.095L0.308,-0.209C0.262,-0.191 0.233,-0.174 0.219,-0.158C0.205,-0.143 0.198,-0.127 0.198,-0.111C0.198,-0.098 0.202,-0.087 0.21,-0.077C0.219,-0.067 0.229,-0.063 0.243,-0.063C0.254,-0.063 0.266,-0.065 0.276,-0.071C0.287,-0.076 0.298,-0.084 0.308,-0.095Z" style="fill-rule:nonzero;"/>
            </g>
            <g transform="matrix(48,0,0,48,231.672,339.351)">
                <path d="M0.247,-0.274L0.247,-0.116C0.247,-0.093 0.25,-0.077 0.257,-0.067C0.264,-0.057 0.276,-0.052 0.294,-0.052L0.294,-0L0.021,-0L0.021,-0.052C0.049,-0.052 0.067,-0.056 0.075,-0.065C0.083,-0.074 0.086,-0.091 0.086,-0.116L0.086,-0.252C0.086,-0.277 0.083,-0.294 0.075,-0.303C0.067,-0.313 0.049,-0.317 0.021,-0.317L0.021,-0.369L0.237,-0.405C0.243,-0.392 0.246,-0.373 0.247,-0.346C0.269,-0.37 0.291,-0.387 0.315,-0.399C0.338,-0.41 0.363,-0.416 0.388,-0.416C0.434,-0.416 0.47,-0.403 0.496,-0.378C0.522,-0.353 0.535,-0.318 0.535,-0.274L0.535,-0.116C0.535,-0.091 0.539,-0.075 0.547,-0.065C0.555,-0.056 0.572,-0.052 0.599,-0.052L0.599,-0L0.327,-0L0.327,-0.052C0.34,-0.052 0.352,-0.056 0.361,-0.063C0.37,-0.071 0.375,-0.088 0.375,-0.116L0.375,-0.262C0.375,-0.289 0.371,-0.307 0.364,-0.317C0.357,-0.327 0.346,-0.332 0.333,-0.332C0.319,-0.332 0.305,-0.327 0.291,-0.317C0.276,-0.308 0.262,-0.294 0.247,-0.274Z" style="fill-rule:nonzero;"/>
            </g>
            <g transform="matrix(48,0,0,48,260.664,339.351)">
                <path d="M0.085,-0.585C0.085,-0.61 0.094,-0.63 0.111,-0.648C0.129,-0.665 0.149,-0.674 0.173,-0.674C0.198,-0.674 0.218,-0.665 0.235,-0.648C0.252,-0.631 0.261,-0.61 0.261,-0.585C0.261,-0.561 0.252,-0.54 0.235,-0.523C0.218,-0.506 0.197,-0.497 0.173,-0.497C0.148,-0.497 0.127,-0.506 0.111,-0.524C0.094,-0.541 0.085,-0.562 0.085,-0.585ZM0.25,-0.416L0.25,-0.117C0.25,-0.092 0.254,-0.075 0.262,-0.066C0.27,-0.056 0.288,-0.052 0.316,-0.052L0.316,-0L0.018,-0L0.018,-0.052L0.029,-0.052C0.056,-0.052 0.074,-0.057 0.081,-0.066C0.089,-0.076 0.092,-0.093 0.092,-0.117L0.092,-0.262C0.092,-0.286 0.089,-0.303 0.081,-0.313C0.074,-0.322 0.056,-0.327 0.029,-0.327L0.018,-0.327L0.018,-0.379L0.25,-0.416Z" style="fill-rule:nonzero;"/>
            </g>
            <g transform="matrix(48,0,0,48,276.672,339.351)">
                <path d="M0.034,-0L0.034,-0.042L0.259,-0.347L0.167,-0.347C0.152,-0.347 0.142,-0.344 0.135,-0.337C0.128,-0.331 0.117,-0.311 0.102,-0.276L0.049,-0.276L0.058,-0.4L0.458,-0.4L0.458,-0.354L0.236,-0.053L0.325,-0.053C0.347,-0.053 0.364,-0.059 0.375,-0.071C0.387,-0.082 0.399,-0.104 0.413,-0.137L0.465,-0.137L0.453,-0L0.034,-0Z" style="fill-rule:nonzero;"/>
            </g>
            <g transform="matrix(48,0,0,48,300.18,339.351)">
                <path d="M0.316,-0.042C0.293,-0.025 0.268,-0.012 0.242,-0.004C0.216,0.005 0.189,0.009 0.161,0.009C0.123,0.009 0.095,0.001 0.076,-0.016C0.058,-0.033 0.048,-0.054 0.048,-0.079C0.048,-0.115 0.067,-0.146 0.104,-0.173C0.142,-0.201 0.21,-0.231 0.308,-0.264L0.308,-0.3C0.308,-0.326 0.301,-0.343 0.289,-0.35C0.277,-0.357 0.262,-0.361 0.245,-0.361C0.204,-0.361 0.181,-0.346 0.177,-0.316C0.174,-0.295 0.167,-0.281 0.157,-0.271C0.147,-0.262 0.132,-0.257 0.112,-0.257C0.093,-0.257 0.079,-0.262 0.068,-0.272C0.057,-0.282 0.051,-0.294 0.051,-0.307C0.051,-0.337 0.071,-0.363 0.111,-0.384C0.151,-0.405 0.205,-0.416 0.272,-0.416C0.309,-0.416 0.341,-0.414 0.366,-0.409C0.391,-0.405 0.412,-0.396 0.427,-0.384C0.442,-0.371 0.453,-0.358 0.458,-0.345C0.463,-0.331 0.465,-0.313 0.465,-0.289L0.465,-0.104C0.465,-0.076 0.474,-0.062 0.491,-0.062C0.505,-0.062 0.515,-0.071 0.519,-0.089L0.559,-0.089C0.558,-0.055 0.546,-0.031 0.522,-0.015C0.499,0.001 0.47,0.009 0.438,0.009C0.378,0.009 0.337,-0.008 0.316,-0.042ZM0.308,-0.095L0.308,-0.209C0.262,-0.191 0.233,-0.174 0.219,-0.158C0.205,-0.143 0.198,-0.127 0.198,-0.111C0.198,-0.098 0.202,-0.087 0.21,-0.077C0.219,-0.067 0.229,-0.063 0.243,-0.063C0.254,-0.063 0.266,-0.065 0.276,-0.071C0.287,-0.076 0.298,-0.084 0.308,-0.095Z" style="fill-rule:nonzero;"/>
            </g>
            <g transform="matrix(48,0,0,48,327.18,339.351)">
                <path d="M0.236,-0.347L0.236,-0.139C0.236,-0.104 0.238,-0.081 0.243,-0.07C0.247,-0.058 0.257,-0.053 0.271,-0.053C0.292,-0.053 0.31,-0.066 0.323,-0.093L0.371,-0.077C0.346,-0.015 0.293,0.016 0.212,0.016C0.167,0.016 0.134,0.005 0.111,-0.016C0.089,-0.038 0.078,-0.07 0.078,-0.114L0.078,-0.347L0.02,-0.347L0.02,-0.4L0.032,-0.399C0.071,-0.399 0.105,-0.412 0.133,-0.437C0.161,-0.462 0.178,-0.494 0.184,-0.533L0.236,-0.533L0.236,-0.4L0.356,-0.4L0.356,-0.347L0.236,-0.347Z" style="fill-rule:nonzero;"/>
            </g>
            <g transform="matrix(48,0,0,48,344.688,339.351)">
                <path d="M0.085,-0.585C0.085,-0.61 0.094,-0.63 0.111,-0.648C0.129,-0.665 0.149,-0.674 0.173,-0.674C0.198,-0.674 0.218,-0.665 0.235,-0.648C0.252,-0.631 0.261,-0.61 0.261,-0.585C0.261,-0.561 0.252,-0.54 0.235,-0.523C0.218,-0.506 0.197,-0.497 0.173,-0.497C0.148,-0.497 0.127,-0.506 0.111,-0.524C0.094,-0.541 0.085,-0.562 0.085,-0.585ZM0.25,-0.416L0.25,-0.117C0.25,-0.092 0.254,-0.075 0.262,-0.066C0.27,-0.056 0.288,-0.052 0.316,-0.052L0.316,-0L0.018,-0L0.018,-0.052L0.029,-0.052C0.056,-0.052 0.074,-0.057 0.081,-0.066C0.089,-0.076 0.092,-0.093 0.092,-0.117L0.092,-0.262C0.092,-0.286 0.089,-0.303 0.081,-0.313C0.074,-0.322 0.056,-0.327 0.029,-0.327L0.018,-0.327L0.018,-0.379L0.25,-0.416Z" style="fill-rule:nonzero;"/>
            </g>
            <g transform="matrix(48,0,0,48,360.695,339.351)">
                <path d="M0.037,-0.201C0.037,-0.268 0.061,-0.321 0.108,-0.359C0.156,-0.397 0.213,-0.416 0.281,-0.416C0.347,-0.416 0.404,-0.398 0.453,-0.361C0.501,-0.324 0.526,-0.27 0.526,-0.201C0.526,-0.135 0.502,-0.082 0.454,-0.043C0.406,-0.003 0.348,0.016 0.28,0.016C0.214,0.016 0.157,-0.003 0.109,-0.04C0.061,-0.077 0.037,-0.131 0.037,-0.201ZM0.205,-0.206C0.205,-0.144 0.21,-0.1 0.222,-0.075C0.233,-0.05 0.254,-0.038 0.282,-0.038C0.305,-0.038 0.324,-0.048 0.338,-0.069C0.351,-0.09 0.358,-0.134 0.358,-0.202C0.358,-0.264 0.352,-0.306 0.34,-0.328C0.327,-0.35 0.308,-0.361 0.281,-0.361C0.26,-0.361 0.242,-0.351 0.227,-0.333C0.212,-0.314 0.205,-0.272 0.205,-0.206Z" style="fill-rule:nonzero;"/>
            </g>
            <g transform="matrix(48,0,0,48,387.695,339.351)">
                <path d="M0.247,-0.274L0.247,-0.116C0.247,-0.093 0.25,-0.077 0.257,-0.067C0.264,-0.057 0.276,-0.052 0.294,-0.052L0.294,-0L0.021,-0L0.021,-0.052C0.049,-0.052 0.067,-0.056 0.075,-0.065C0.083,-0.074 0.086,-0.091 0.086,-0.116L0.086,-0.252C0.086,-0.277 0.083,-0.294 0.075,-0.303C0.067,-0.313 0.049,-0.317 0.021,-0.317L0.021,-0.369L0.237,-0.405C0.243,-0.392 0.246,-0.373 0.247,-0.346C0.269,-0.37 0.291,-0.387 0.315,-0.399C0.338,-0.41 0.363,-0.416 0.388,-0.416C0.434,-0.416 0.47,-0.403 0.496,-0.378C0.522,-0.353 0.535,-0.318 0.535,-0.274L0.535,-0.116C0.535,-0.091 0.539,-0.075 0.547,-0.065C0.555,-0.056 0.572,-0.052 0.599,-0.052L0.599,-0L0.327,-0L0.327,-0.052C0.34,-0.052 0.352,-0.056 0.361,-0.063C0.37,-0.071 0.375,-0.088 0.375,-0.116L0.375,-0.262C0.375,-0.289 0.371,-0.307 0.364,-0.317C0.357,-0.327 0.346,-0.332 0.333,-0.332C0.319,-0.332 0.305,-0.327 0.291,-0.317C0.276,-0.308 0.262,-0.294 0.247,-0.274Z" style="fill-rule:nonzero;"/>
            </g>
            <g transform="matrix(48,0,0,48,115.68,459.351)">
                <path d="M0.026,-0.64L0.026,-0.662L0.329,-0.662L0.329,-0.64L0.314,-0.64C0.282,-0.64 0.261,-0.637 0.25,-0.632C0.24,-0.626 0.234,-0.616 0.23,-0.602C0.227,-0.587 0.225,-0.552 0.225,-0.497L0.225,-0.172C0.225,-0.12 0.226,-0.086 0.229,-0.07C0.231,-0.054 0.238,-0.042 0.248,-0.034C0.259,-0.026 0.279,-0.022 0.309,-0.022L0.329,-0.022L0.329,-0L0.026,-0L0.026,-0.022L0.045,-0.022C0.074,-0.022 0.093,-0.026 0.104,-0.033C0.115,-0.04 0.122,-0.052 0.125,-0.067C0.128,-0.082 0.129,-0.117 0.129,-0.172L0.129,-0.497C0.129,-0.55 0.128,-0.584 0.125,-0.599C0.122,-0.614 0.116,-0.625 0.105,-0.631C0.095,-0.637 0.074,-0.64 0.04,-0.64L0.026,-0.64Z" style="fill-rule:nonzero;"/>
            </g>
            <g transform="matrix(48,0,0,48,132.672,459.351)">
                <path d="M0.023,-0.657L0.132,-0.662C0.223,-0.667 0.284,-0.669 0.316,-0.669C0.414,-0.669 0.491,-0.654 0.546,-0.624C0.601,-0.594 0.642,-0.553 0.669,-0.502C0.696,-0.451 0.709,-0.392 0.709,-0.325C0.709,-0.276 0.702,-0.232 0.687,-0.192C0.672,-0.151 0.652,-0.118 0.627,-0.092C0.601,-0.065 0.572,-0.045 0.538,-0.031C0.504,-0.017 0.472,-0.009 0.442,-0.005C0.412,-0.002 0.369,-0 0.314,-0L0.021,-0L0.021,-0.022L0.048,-0.022C0.076,-0.022 0.096,-0.026 0.107,-0.033C0.118,-0.04 0.125,-0.052 0.128,-0.067C0.131,-0.082 0.132,-0.117 0.132,-0.172L0.132,-0.492C0.132,-0.544 0.131,-0.579 0.128,-0.594C0.125,-0.609 0.118,-0.62 0.108,-0.626C0.098,-0.631 0.076,-0.634 0.043,-0.634L0.023,-0.634L0.023,-0.657ZM0.228,-0.643L0.228,-0.201C0.228,-0.135 0.229,-0.093 0.231,-0.074C0.234,-0.055 0.241,-0.042 0.253,-0.034C0.265,-0.027 0.291,-0.023 0.331,-0.023C0.388,-0.023 0.436,-0.031 0.473,-0.047C0.51,-0.062 0.541,-0.094 0.566,-0.14C0.591,-0.186 0.603,-0.245 0.603,-0.317C0.603,-0.373 0.596,-0.423 0.581,-0.467C0.567,-0.511 0.546,-0.547 0.519,-0.574C0.492,-0.602 0.462,-0.621 0.429,-0.631C0.396,-0.641 0.354,-0.646 0.303,-0.646C0.278,-0.646 0.253,-0.645 0.228,-0.643Z" style="fill-rule:nonzero;"/>
            </g>
            <rect x="115.68" y="464.156" width="53.484" height="2.391"/>
            <g transform="matrix(48,0,0,48,115.68,531.351)">
                <path d="M0.153,-0.671L0.153,-0.137C0.153,-0.095 0.154,-0.068 0.155,-0.057C0.156,-0.046 0.161,-0.037 0.169,-0.031C0.177,-0.025 0.192,-0.022 0.212,-0.022L0.224,-0.022L0.224,-0L0.01,-0L0.01,-0.022L0.024,-0.022C0.043,-0.022 0.057,-0.025 0.066,-0.031C0.074,-0.036 0.079,-0.043 0.081,-0.053C0.082,-0.063 0.083,-0.091 0.083,-0.137L0.083,-0.533C0.083,-0.575 0.079,-0.601 0.072,-0.612C0.064,-0.623 0.046,-0.628 0.017,-0.628L0.017,-0.651C0.037,-0.651 0.06,-0.653 0.087,-0.658C0.114,-0.662 0.132,-0.667 0.143,-0.671L0.153,-0.671Z" style="fill-rule:nonzero;"/>
            </g>
            <g transform="matrix(48,0,0,48,127.188,531.351)">
                <path d="M0.399,-0.265L0.121,-0.265C0.119,-0.245 0.119,-0.231 0.119,-0.222C0.119,-0.151 0.13,-0.099 0.152,-0.063C0.174,-0.028 0.206,-0.01 0.25,-0.01C0.309,-0.01 0.351,-0.037 0.376,-0.09L0.399,-0.09C0.389,-0.057 0.368,-0.031 0.337,-0.012C0.306,0.007 0.273,0.016 0.236,0.016C0.202,0.016 0.17,0.008 0.14,-0.01C0.11,-0.027 0.086,-0.051 0.066,-0.082C0.047,-0.113 0.038,-0.151 0.038,-0.196C0.038,-0.259 0.056,-0.311 0.093,-0.353C0.13,-0.395 0.177,-0.416 0.232,-0.416C0.285,-0.416 0.325,-0.4 0.354,-0.368C0.383,-0.336 0.398,-0.302 0.399,-0.265ZM0.314,-0.284C0.315,-0.292 0.315,-0.298 0.315,-0.304C0.315,-0.333 0.307,-0.355 0.29,-0.371C0.274,-0.387 0.253,-0.395 0.229,-0.395C0.169,-0.395 0.134,-0.358 0.123,-0.284L0.314,-0.284Z" style="fill-rule:nonzero;"/>
            </g>
            <g transform="matrix(48,0,0,48,148.188,531.351)">
                <path d="M0.343,-0.365C0.37,-0.396 0.398,-0.412 0.427,-0.412C0.442,-0.412 0.455,-0.407 0.463,-0.399C0.472,-0.39 0.476,-0.381 0.476,-0.371C0.476,-0.35 0.466,-0.339 0.447,-0.339C0.436,-0.339 0.427,-0.346 0.419,-0.359C0.412,-0.371 0.404,-0.377 0.396,-0.377C0.384,-0.377 0.37,-0.369 0.355,-0.352C0.372,-0.325 0.381,-0.297 0.381,-0.267C0.381,-0.228 0.367,-0.194 0.339,-0.164C0.311,-0.133 0.264,-0.117 0.197,-0.115C0.128,-0.112 0.094,-0.098 0.094,-0.073C0.094,-0.061 0.102,-0.052 0.117,-0.047C0.132,-0.042 0.165,-0.038 0.214,-0.036C0.268,-0.033 0.309,-0.028 0.338,-0.021C0.367,-0.013 0.39,0.001 0.407,0.023C0.424,0.046 0.433,0.072 0.433,0.103C0.433,0.146 0.416,0.18 0.38,0.207C0.345,0.233 0.295,0.246 0.229,0.246C0.168,0.246 0.119,0.234 0.083,0.211C0.047,0.188 0.028,0.158 0.028,0.122C0.028,0.102 0.034,0.086 0.044,0.073C0.054,0.061 0.069,0.054 0.088,0.054C0.094,0.054 0.098,0.055 0.103,0.057C0.082,0.079 0.072,0.102 0.072,0.127C0.072,0.156 0.086,0.179 0.113,0.198C0.139,0.217 0.18,0.226 0.233,0.226C0.28,0.226 0.317,0.217 0.344,0.198C0.371,0.178 0.384,0.154 0.384,0.125C0.384,0.092 0.372,0.069 0.348,0.056C0.324,0.043 0.282,0.035 0.221,0.032C0.151,0.029 0.106,0.021 0.085,0.006C0.064,-0.008 0.054,-0.026 0.054,-0.048C0.054,-0.09 0.083,-0.117 0.143,-0.128C0.112,-0.147 0.089,-0.167 0.073,-0.191C0.058,-0.214 0.05,-0.241 0.05,-0.27C0.05,-0.31 0.066,-0.345 0.098,-0.373C0.13,-0.402 0.168,-0.416 0.212,-0.416C0.266,-0.416 0.31,-0.399 0.343,-0.365ZM0.123,-0.258C0.123,-0.216 0.132,-0.186 0.149,-0.166C0.166,-0.146 0.188,-0.137 0.215,-0.137C0.24,-0.137 0.261,-0.146 0.279,-0.166C0.296,-0.185 0.305,-0.219 0.305,-0.267C0.305,-0.315 0.296,-0.348 0.277,-0.366C0.258,-0.384 0.237,-0.394 0.213,-0.394C0.183,-0.394 0.16,-0.382 0.146,-0.36C0.131,-0.337 0.123,-0.304 0.123,-0.258Z" style="fill-rule:nonzero;"/>
            </g>
            <g transform="matrix(48,0,0,48,171.156,531.351)">
                <path d="M0.44,-0.073L0.458,-0.073C0.456,-0.018 0.428,0.01 0.376,0.01C0.354,0.01 0.337,0.004 0.324,-0.007C0.311,-0.019 0.303,-0.036 0.299,-0.06C0.266,-0.036 0.237,-0.019 0.21,-0.007C0.183,0.004 0.159,0.01 0.138,0.01C0.111,0.01 0.087,0.002 0.068,-0.013C0.048,-0.029 0.039,-0.049 0.039,-0.075C0.039,-0.109 0.055,-0.138 0.088,-0.163C0.12,-0.188 0.166,-0.213 0.223,-0.236L0.299,-0.267L0.299,-0.287C0.299,-0.314 0.297,-0.334 0.293,-0.347C0.29,-0.359 0.281,-0.37 0.266,-0.38C0.251,-0.39 0.231,-0.395 0.207,-0.395C0.158,-0.395 0.131,-0.378 0.125,-0.346C0.12,-0.313 0.106,-0.296 0.084,-0.296C0.064,-0.296 0.054,-0.305 0.054,-0.324C0.054,-0.343 0.067,-0.363 0.094,-0.384C0.12,-0.405 0.161,-0.416 0.217,-0.416C0.258,-0.416 0.29,-0.41 0.313,-0.396C0.336,-0.383 0.351,-0.369 0.358,-0.352C0.365,-0.335 0.369,-0.31 0.369,-0.276L0.369,-0.114C0.369,-0.076 0.371,-0.052 0.375,-0.042C0.379,-0.031 0.387,-0.025 0.4,-0.025C0.422,-0.025 0.435,-0.041 0.44,-0.073ZM0.299,-0.244L0.246,-0.223C0.162,-0.188 0.12,-0.146 0.12,-0.094C0.12,-0.073 0.125,-0.057 0.136,-0.044C0.146,-0.032 0.16,-0.025 0.178,-0.025C0.193,-0.025 0.211,-0.03 0.231,-0.041C0.251,-0.051 0.274,-0.066 0.299,-0.086L0.299,-0.244Z" style="fill-rule:nonzero;"/>
            </g>
            <g transform="matrix(48,0,0,48,193.656,531.351)">
                <path d="M0.153,-0.671L0.153,-0.137C0.153,-0.095 0.154,-0.068 0.155,-0.057C0.156,-0.046 0.161,-0.037 0.169,-0.031C0.177,-0.025 0.192,-0.022 0.212,-0.022L0.224,-0.022L0.224,-0L0.01,-0L0.01,-0.022L0.024,-0.022C0.043,-0.022 0.057,-0.025 0.066,-0.031C0.074,-0.036 0.079,-0.043 0.081,-0.053C0.082,-0.063 0.083,-0.091 0.083,-0.137L0.083,-0.533C0.083,-0.575 0.079,-0.601 0.072,-0.612C0.064,-0.623 0.046,-0.628 0.017,-0.628L0.017,-0.651C0.037,-0.651 0.06,-0.653 0.087,-0.658C0.114,-0.662 0.132,-0.667 0.143,-0.671L0.153,-0.671Z" style="fill-rule:nonzero;"/>
            </g>
            <g transform="matrix(48,0,0,48,205.164,531.351)">
                <path d="M0.616,0.015L0.147,-0.605L0.147,-0.146C0.147,-0.108 0.149,-0.083 0.153,-0.071C0.157,-0.059 0.167,-0.048 0.185,-0.038C0.203,-0.028 0.229,-0.022 0.264,-0.022L0.264,-0L0.017,-0L0.017,-0.022C0.049,-0.025 0.073,-0.031 0.089,-0.04C0.106,-0.049 0.116,-0.059 0.119,-0.07C0.122,-0.081 0.124,-0.106 0.124,-0.146L0.124,-0.497C0.124,-0.548 0.121,-0.582 0.116,-0.599C0.112,-0.616 0.104,-0.627 0.094,-0.632C0.084,-0.637 0.061,-0.64 0.025,-0.64L0.025,-0.662L0.221,-0.662L0.613,-0.144L0.613,-0.54C0.613,-0.569 0.61,-0.59 0.604,-0.602C0.598,-0.613 0.585,-0.623 0.567,-0.629C0.548,-0.636 0.526,-0.64 0.5,-0.64L0.5,-0.662L0.74,-0.662L0.74,-0.64C0.712,-0.637 0.69,-0.632 0.674,-0.624C0.658,-0.615 0.648,-0.605 0.643,-0.593C0.639,-0.581 0.637,-0.561 0.637,-0.533L0.637,0.015L0.616,0.015Z" style="fill-rule:nonzero;"/>
            </g>
            <g transform="matrix(48,0,0,48,241.164,531.351)">
                <path d="M0.44,-0.073L0.458,-0.073C0.456,-0.018 0.428,0.01 0.376,0.01C0.354,0.01 0.337,0.004 0.324,-0.007C0.311,-0.019 0.303,-0.036 0.299,-0.06C0.266,-0.036 0.237,-0.019 0.21,-0.007C0.183,0.004 0.159,0.01 0.138,0.01C0.111,0.01 0.087,0.002 0.068,-0.013C0.048,-0.029 0.039,-0.049 0.039,-0.075C0.039,-0.109 0.055,-0.138 0.088,-0.163C0.12,-0.188 0.166,-0.213 0.223,-0.236L0.299,-0.267L0.299,-0.287C0.299,-0.314 0.297,-0.334 0.293,-0.347C0.29,-0.359 0.281,-0.37 0.266,-0.38C0.251,-0.39 0.231,-0.395 0.207,-0.395C0.158,-0.395 0.131,-0.378 0.125,-0.346C0.12,-0.313 0.106,-0.296 0.084,-0.296C0.064,-0.296 0.054,-0.305 0.054,-0.324C0.054,-0.343 0.067,-0.363 0.094,-0.384C0.12,-0.405 0.161,-0.416 0.217,-0.416C0.258,-0.416 0.29,-0.41 0.313,-0.396C0.336,-0.383 0.351,-0.369 0.358,-0.352C0.365,-0.335 0.369,-0.31 0.369,-0.276L0.369,-0.114C0.369,-0.076 0.371,-0.052 0.375,-0.042C0.379,-0.031 0.387,-0.025 0.4,-0.025C0.422,-0.025 0.435,-0.041 0.44,-0.073ZM0.299,-0.244L0.246,-0.223C0.162,-0.188 0.12,-0.146 0.12,-0.094C0.12,-0.073 0.125,-0.057 0.136,-0.044C0.146,-0.032 0.16,-0.025 0.178,-0.025C0.193,-0.025 0.211,-0.03 0.231,-0.041C0.251,-0.051 0.274,-0.066 0.299,-0.086L0.299,-0.244Z" style="fill-rule:nonzero;"/>
            </g>
            <g transform="matrix(48,0,0,48,263.664,531.351)">
                <path d="M0.14,-0.416L0.145,-0.416C0.154,-0.394 0.159,-0.366 0.159,-0.332C0.181,-0.36 0.205,-0.381 0.23,-0.395C0.255,-0.409 0.282,-0.416 0.311,-0.416C0.344,-0.416 0.371,-0.409 0.391,-0.394C0.412,-0.379 0.426,-0.356 0.434,-0.326C0.459,-0.356 0.484,-0.379 0.51,-0.394C0.536,-0.409 0.563,-0.416 0.59,-0.416C0.621,-0.416 0.647,-0.409 0.668,-0.395C0.69,-0.38 0.703,-0.364 0.708,-0.346C0.712,-0.327 0.714,-0.298 0.714,-0.257L0.714,-0.137C0.714,-0.091 0.715,-0.062 0.717,-0.052C0.719,-0.042 0.724,-0.035 0.733,-0.03C0.741,-0.025 0.757,-0.022 0.781,-0.022L0.781,-0L0.581,-0L0.581,-0.022C0.602,-0.022 0.617,-0.025 0.626,-0.03C0.634,-0.034 0.64,-0.041 0.642,-0.051C0.644,-0.061 0.645,-0.089 0.645,-0.137L0.645,-0.271C0.645,-0.298 0.643,-0.318 0.64,-0.332C0.637,-0.345 0.629,-0.357 0.616,-0.367C0.603,-0.376 0.586,-0.381 0.565,-0.381C0.544,-0.381 0.523,-0.374 0.501,-0.36C0.48,-0.346 0.458,-0.324 0.437,-0.295L0.437,-0.137C0.437,-0.095 0.438,-0.068 0.439,-0.057C0.44,-0.046 0.444,-0.038 0.452,-0.031C0.46,-0.025 0.475,-0.022 0.495,-0.022L0.495,-0L0.302,-0L0.302,-0.022C0.324,-0.022 0.339,-0.025 0.347,-0.029C0.356,-0.034 0.361,-0.041 0.364,-0.05C0.366,-0.06 0.367,-0.089 0.367,-0.137L0.367,-0.248C0.367,-0.283 0.365,-0.309 0.363,-0.324C0.36,-0.34 0.351,-0.354 0.337,-0.365C0.323,-0.376 0.306,-0.382 0.285,-0.382C0.265,-0.382 0.244,-0.375 0.223,-0.362C0.202,-0.349 0.181,-0.33 0.159,-0.304L0.159,-0.137C0.159,-0.093 0.16,-0.066 0.161,-0.055C0.162,-0.044 0.167,-0.036 0.176,-0.031C0.184,-0.025 0.199,-0.022 0.221,-0.022L0.221,-0L0.025,-0L0.025,-0.022C0.047,-0.022 0.062,-0.025 0.071,-0.03C0.079,-0.034 0.084,-0.041 0.086,-0.051C0.088,-0.06 0.089,-0.089 0.089,-0.137L0.089,-0.257C0.089,-0.302 0.089,-0.33 0.087,-0.341C0.086,-0.351 0.081,-0.359 0.072,-0.364C0.063,-0.369 0.048,-0.372 0.025,-0.372L0.025,-0.394C0.072,-0.399 0.11,-0.406 0.14,-0.416Z" style="fill-rule:nonzero;"/>
            </g>
            <g transform="matrix(48,0,0,48,302.172,531.351)">
                <path d="M0.399,-0.265L0.121,-0.265C0.119,-0.245 0.119,-0.231 0.119,-0.222C0.119,-0.151 0.13,-0.099 0.152,-0.063C0.174,-0.028 0.206,-0.01 0.25,-0.01C0.309,-0.01 0.351,-0.037 0.376,-0.09L0.399,-0.09C0.389,-0.057 0.368,-0.031 0.337,-0.012C0.306,0.007 0.273,0.016 0.236,0.016C0.202,0.016 0.17,0.008 0.14,-0.01C0.11,-0.027 0.086,-0.051 0.066,-0.082C0.047,-0.113 0.038,-0.151 0.038,-0.196C0.038,-0.259 0.056,-0.311 0.093,-0.353C0.13,-0.395 0.177,-0.416 0.232,-0.416C0.285,-0.416 0.325,-0.4 0.354,-0.368C0.383,-0.336 0.398,-0.302 0.399,-0.265ZM0.314,-0.284C0.315,-0.292 0.315,-0.298 0.315,-0.304C0.315,-0.333 0.307,-0.355 0.29,-0.371C0.274,-0.387 0.253,-0.395 0.229,-0.395C0.169,-0.395 0.134,-0.358 0.123,-0.284L0.314,-0.284Z" style="fill-rule:nonzero;"/>
            </g>
            <rect x="115.68" y="536.156" width="207.492" height="2.391"/>
            <g transform="matrix(48,0,0,48,115.68,603.351)">
                <path d="M0.48,0.016L0.458,0.016L0.339,-0.302L0.217,0.016L0.196,0.016L0.074,-0.302C0.06,-0.338 0.049,-0.36 0.042,-0.367C0.036,-0.374 0.022,-0.377 0.001,-0.377L0.001,-0.4L0.184,-0.4L0.184,-0.377C0.164,-0.377 0.15,-0.376 0.142,-0.372C0.135,-0.368 0.131,-0.362 0.131,-0.353C0.131,-0.346 0.137,-0.327 0.15,-0.295L0.231,-0.081L0.355,-0.4L0.374,-0.4L0.494,-0.081L0.582,-0.308C0.591,-0.332 0.596,-0.347 0.596,-0.352C0.596,-0.368 0.58,-0.376 0.547,-0.377L0.547,-0.4L0.677,-0.4L0.677,-0.377C0.661,-0.377 0.649,-0.374 0.64,-0.368C0.631,-0.363 0.623,-0.35 0.615,-0.33L0.604,-0.302L0.48,0.016Z" style="fill-rule:nonzero;"/>
            </g>
            <g transform="matrix(48,0,0,48,147.719,603.351)">
                <path d="M0.399,-0.265L0.121,-0.265C0.119,-0.245 0.119,-0.231 0.119,-0.222C0.119,-0.151 0.13,-0.099 0.152,-0.063C0.174,-0.028 0.206,-0.01 0.25,-0.01C0.309,-0.01 0.351,-0.037 0.376,-0.09L0.399,-0.09C0.389,-0.057 0.368,-0.031 0.337,-0.012C0.306,0.007 0.273,0.016 0.236,0.016C0.202,0.016 0.17,0.008 0.14,-0.01C0.11,-0.027 0.086,-0.051 0.066,-0.082C0.047,-0.113 0.038,-0.151 0.038,-0.196C0.038,-0.259 0.056,-0.311 0.093,-0.353C0.13,-0.395 0.177,-0.416 0.232,-0.416C0.285,-0.416 0.325,-0.4 0.354,-0.368C0.383,-0.336 0.398,-0.302 0.399,-0.265ZM0.314,-0.284C0.315,-0.292 0.315,-0.298 0.315,-0.304C0.315,-0.333 0.307,-0.355 0.29,-0.371C0.274,-0.387 0.253,-0.395 0.229,-0.395C0.169,-0.395 0.134,-0.358 0.123,-0.284L0.314,-0.284Z" style="fill-rule:nonzero;"/>
            </g>
            <g transform="matrix(48,0,0,48,168.719,603.351)">
                <path d="M0.096,0.016L0.077,0.016L0.077,-0.519C0.077,-0.558 0.076,-0.583 0.074,-0.595C0.072,-0.606 0.066,-0.615 0.058,-0.62C0.049,-0.626 0.034,-0.628 0.013,-0.628L0.013,-0.651C0.032,-0.651 0.055,-0.653 0.082,-0.658C0.109,-0.662 0.127,-0.667 0.137,-0.671L0.147,-0.671L0.147,-0.355C0.17,-0.375 0.193,-0.391 0.217,-0.401C0.24,-0.411 0.264,-0.416 0.288,-0.416C0.346,-0.416 0.393,-0.396 0.43,-0.356C0.466,-0.316 0.485,-0.265 0.485,-0.203C0.485,-0.14 0.466,-0.088 0.428,-0.046C0.39,-0.005 0.341,0.016 0.281,0.016C0.252,0.016 0.226,0.01 0.203,-0.002C0.181,-0.015 0.162,-0.033 0.147,-0.058C0.126,-0.036 0.109,-0.012 0.096,0.016ZM0.147,-0.326L0.147,-0.169C0.147,-0.129 0.15,-0.1 0.156,-0.082C0.161,-0.065 0.174,-0.048 0.194,-0.031C0.215,-0.015 0.239,-0.007 0.266,-0.007C0.308,-0.007 0.342,-0.024 0.366,-0.059C0.391,-0.093 0.404,-0.143 0.404,-0.208C0.404,-0.267 0.392,-0.312 0.369,-0.344C0.346,-0.375 0.315,-0.39 0.276,-0.39C0.254,-0.39 0.232,-0.385 0.211,-0.374C0.189,-0.364 0.168,-0.348 0.147,-0.326Z" style="fill-rule:nonzero;"/>
            </g>
            <g transform="matrix(48,0,0,48,193.727,603.351)">
                <path d="M0.041,0.013L0.041,-0.119L0.06,-0.119C0.082,-0.043 0.121,-0.005 0.178,-0.005C0.203,-0.005 0.221,-0.012 0.234,-0.027C0.246,-0.042 0.252,-0.059 0.252,-0.077C0.252,-0.097 0.245,-0.115 0.232,-0.128C0.219,-0.141 0.193,-0.157 0.155,-0.176C0.114,-0.196 0.085,-0.216 0.068,-0.235C0.05,-0.254 0.042,-0.277 0.042,-0.305C0.042,-0.331 0.051,-0.356 0.07,-0.38C0.089,-0.404 0.115,-0.416 0.149,-0.416C0.184,-0.416 0.213,-0.402 0.236,-0.374C0.241,-0.378 0.247,-0.39 0.255,-0.409L0.273,-0.409L0.273,-0.286L0.255,-0.286C0.248,-0.315 0.236,-0.341 0.217,-0.362C0.198,-0.383 0.176,-0.394 0.151,-0.394C0.131,-0.394 0.116,-0.388 0.104,-0.376C0.091,-0.364 0.085,-0.35 0.085,-0.334C0.085,-0.316 0.092,-0.301 0.105,-0.289C0.118,-0.276 0.143,-0.261 0.18,-0.244C0.236,-0.219 0.269,-0.195 0.282,-0.171C0.294,-0.147 0.3,-0.124 0.3,-0.102C0.3,-0.067 0.289,-0.038 0.266,-0.017C0.243,0.005 0.214,0.016 0.179,0.016C0.142,0.016 0.11,0.001 0.081,-0.029C0.072,-0.02 0.065,-0.006 0.06,0.013L0.041,0.013Z" style="fill-rule:nonzero;"/>
            </g>
            <g transform="matrix(48,0,0,48,209.734,603.351)">
                <path d="M0.067,-0.62C0.067,-0.634 0.072,-0.646 0.082,-0.656C0.092,-0.666 0.104,-0.671 0.118,-0.671C0.132,-0.671 0.144,-0.666 0.153,-0.656C0.163,-0.646 0.168,-0.634 0.168,-0.62C0.168,-0.606 0.163,-0.594 0.153,-0.583C0.144,-0.573 0.132,-0.568 0.118,-0.568C0.104,-0.568 0.092,-0.573 0.082,-0.583C0.072,-0.594 0.067,-0.606 0.067,-0.62ZM0.161,-0.416L0.161,-0.137C0.161,-0.095 0.162,-0.068 0.163,-0.057C0.164,-0.046 0.169,-0.037 0.177,-0.031C0.185,-0.025 0.2,-0.022 0.221,-0.022L0.231,-0.022L0.231,-0L0.016,-0L0.016,-0.022L0.032,-0.022C0.055,-0.022 0.07,-0.026 0.077,-0.032C0.084,-0.039 0.088,-0.047 0.09,-0.056C0.091,-0.066 0.091,-0.093 0.091,-0.137L0.091,-0.258C0.091,-0.305 0.089,-0.334 0.085,-0.344C0.08,-0.355 0.074,-0.361 0.067,-0.364C0.06,-0.366 0.047,-0.368 0.029,-0.368L0.016,-0.368L0.016,-0.39C0.074,-0.396 0.118,-0.405 0.15,-0.416L0.161,-0.416Z" style="fill-rule:nonzero;"/>
            </g>
            <g transform="matrix(48,0,0,48,221.734,603.351)">
                <path d="M0.274,-0.377L0.154,-0.377L0.154,-0.136C0.154,-0.099 0.155,-0.074 0.159,-0.061C0.162,-0.048 0.169,-0.038 0.179,-0.03C0.19,-0.022 0.201,-0.018 0.213,-0.018C0.237,-0.018 0.257,-0.031 0.274,-0.058L0.29,-0.049C0.28,-0.027 0.265,-0.011 0.245,-0C0.226,0.011 0.206,0.016 0.186,0.016C0.162,0.016 0.142,0.009 0.124,-0.005C0.106,-0.018 0.095,-0.035 0.091,-0.053C0.086,-0.072 0.084,-0.104 0.084,-0.151L0.084,-0.377L0.026,-0.377L0.026,-0.4C0.053,-0.401 0.076,-0.412 0.098,-0.434C0.119,-0.455 0.132,-0.486 0.138,-0.525L0.154,-0.525L0.154,-0.4L0.274,-0.4L0.274,-0.377Z" style="fill-rule:nonzero;"/>
            </g>
            <g transform="matrix(48,0,0,48,235.727,603.351)">
                <path d="M0.399,-0.265L0.121,-0.265C0.119,-0.245 0.119,-0.231 0.119,-0.222C0.119,-0.151 0.13,-0.099 0.152,-0.063C0.174,-0.028 0.206,-0.01 0.25,-0.01C0.309,-0.01 0.351,-0.037 0.376,-0.09L0.399,-0.09C0.389,-0.057 0.368,-0.031 0.337,-0.012C0.306,0.007 0.273,0.016 0.236,0.016C0.202,0.016 0.17,0.008 0.14,-0.01C0.11,-0.027 0.086,-0.051 0.066,-0.082C0.047,-0.113 0.038,-0.151 0.038,-0.196C0.038,-0.259 0.056,-0.311 0.093,-0.353C0.13,-0.395 0.177,-0.416 0.232,-0.416C0.285,-0.416 0.325,-0.4 0.354,-0.368C0.383,-0.336 0.398,-0.302 0.399,-0.265ZM0.314,-0.284C0.315,-0.292 0.315,-0.298 0.315,-0.304C0.315,-0.333 0.307,-0.355 0.29,-0.371C0.274,-0.387 0.253,-0.395 0.229,-0.395C0.169,-0.395 0.134,-0.358 0.123,-0.284L0.314,-0.284Z" style="fill-rule:nonzero;"/>
            </g>
            <rect x="115.68" y="608.156" width="141.047" height="2.391"/>
        </g>
        <path d="M231.518,455.019L255.182,478.684L540.014,478.684L540.014,957.932L134.578,957.932" style="fill:none;stroke:black;stroke-width:5.5px;"/>
        <path d="M271.939,360.565L301.371,331.133L582.169,331.133L582.169,215.661L850.322,215.661" style="fill:none;stroke:black;stroke-width:5.5px;"/>
        <path d="M296.104,406.832L645.198,406.832L645.198,483.673L847.916,483.673" style="fill:none;stroke:black;stroke-width:5.5px;"/>
        <g transform="matrix(1,0,0,1,396.62,359.894)">
            <g transform="matrix(48,0,0,48,0,32.2266)">
                <path d="M0.243,-0.4L0.243,-0.377L0.16,-0.377L0.16,-0.137C0.16,-0.095 0.16,-0.068 0.161,-0.057C0.163,-0.046 0.167,-0.037 0.175,-0.031C0.183,-0.025 0.198,-0.022 0.219,-0.022L0.24,-0.022L0.24,-0L0.023,-0L0.023,-0.022C0.046,-0.022 0.061,-0.025 0.07,-0.029C0.079,-0.034 0.084,-0.041 0.086,-0.05C0.088,-0.059 0.089,-0.088 0.089,-0.137L0.089,-0.377L0.015,-0.377L0.015,-0.4L0.089,-0.4L0.089,-0.436C0.089,-0.476 0.091,-0.508 0.094,-0.53C0.097,-0.552 0.107,-0.575 0.122,-0.598C0.137,-0.622 0.156,-0.64 0.179,-0.653C0.202,-0.666 0.229,-0.672 0.261,-0.672C0.299,-0.672 0.33,-0.664 0.353,-0.648C0.376,-0.632 0.388,-0.616 0.388,-0.599C0.388,-0.59 0.384,-0.582 0.378,-0.576C0.371,-0.569 0.364,-0.566 0.355,-0.566C0.338,-0.566 0.322,-0.58 0.308,-0.606C0.292,-0.636 0.271,-0.65 0.246,-0.65C0.225,-0.65 0.207,-0.643 0.192,-0.628C0.176,-0.613 0.167,-0.595 0.164,-0.573C0.161,-0.551 0.16,-0.503 0.16,-0.43L0.16,-0.4L0.243,-0.4Z" style="fill-rule:nonzero;"/>
            </g>
            <g transform="matrix(48,0,0,48,13.0078,32.2266)">
                <path d="M0.44,-0.073L0.458,-0.073C0.456,-0.018 0.428,0.01 0.376,0.01C0.354,0.01 0.337,0.004 0.324,-0.007C0.311,-0.019 0.303,-0.036 0.299,-0.06C0.266,-0.036 0.237,-0.019 0.21,-0.007C0.183,0.004 0.159,0.01 0.138,0.01C0.111,0.01 0.087,0.002 0.068,-0.013C0.048,-0.029 0.039,-0.049 0.039,-0.075C0.039,-0.109 0.055,-0.138 0.088,-0.163C0.12,-0.188 0.166,-0.213 0.223,-0.236L0.299,-0.267L0.299,-0.287C0.299,-0.314 0.297,-0.334 0.293,-0.347C0.29,-0.359 0.281,-0.37 0.266,-0.38C0.251,-0.39 0.231,-0.395 0.207,-0.395C0.158,-0.395 0.131,-0.378 0.125,-0.346C0.12,-0.313 0.106,-0.296 0.084,-0.296C0.064,-0.296 0.054,-0.305 0.054,-0.324C0.054,-0.343 0.067,-0.363 0.094,-0.384C0.12,-0.405 0.161,-0.416 0.217,-0.416C0.258,-0.416 0.29,-0.41 0.313,-0.396C0.336,-0.383 0.351,-0.369 0.358,-0.352C0.365,-0.335 0.369,-0.31 0.369,-0.276L0.369,-0.114C0.369,-0.076 0.371,-0.052 0.375,-0.042C0.379,-0.031 0.387,-0.025 0.4,-0.025C0.422,-0.025 0.435,-0.041 0.44,-0.073ZM0.299,-0.244L0.246,-0.223C0.162,-0.188 0.12,-0.146 0.12,-0.094C0.12,-0.073 0.125,-0.057 0.136,-0.044C0.146,-0.032 0.16,-0.025 0.178,-0.025C0.193,-0.025 0.211,-0.03 0.231,-0.041C0.251,-0.051 0.274,-0.066 0.299,-0.086L0.299,-0.244Z" style="fill-rule:nonzero;"/>
            </g>
            <g transform="matrix(48,0,0,48,35.5078,32.2266)">
                <path d="M0.14,-0.416L0.145,-0.416C0.154,-0.394 0.159,-0.366 0.159,-0.332C0.181,-0.36 0.205,-0.381 0.23,-0.395C0.255,-0.409 0.282,-0.416 0.311,-0.416C0.344,-0.416 0.371,-0.409 0.391,-0.394C0.412,-0.379 0.426,-0.356 0.434,-0.326C0.459,-0.356 0.484,-0.379 0.51,-0.394C0.536,-0.409 0.563,-0.416 0.59,-0.416C0.621,-0.416 0.647,-0.409 0.668,-0.395C0.69,-0.38 0.703,-0.364 0.708,-0.346C0.712,-0.327 0.714,-0.298 0.714,-0.257L0.714,-0.137C0.714,-0.091 0.715,-0.062 0.717,-0.052C0.719,-0.042 0.724,-0.035 0.733,-0.03C0.741,-0.025 0.757,-0.022 0.781,-0.022L0.781,-0L0.581,-0L0.581,-0.022C0.602,-0.022 0.617,-0.025 0.626,-0.03C0.634,-0.034 0.64,-0.041 0.642,-0.051C0.644,-0.061 0.645,-0.089 0.645,-0.137L0.645,-0.271C0.645,-0.298 0.643,-0.318 0.64,-0.332C0.637,-0.345 0.629,-0.357 0.616,-0.367C0.603,-0.376 0.586,-0.381 0.565,-0.381C0.544,-0.381 0.523,-0.374 0.501,-0.36C0.48,-0.346 0.458,-0.324 0.437,-0.295L0.437,-0.137C0.437,-0.095 0.438,-0.068 0.439,-0.057C0.44,-0.046 0.444,-0.038 0.452,-0.031C0.46,-0.025 0.475,-0.022 0.495,-0.022L0.495,-0L0.302,-0L0.302,-0.022C0.324,-0.022 0.339,-0.025 0.347,-0.029C0.356,-0.034 0.361,-0.041 0.364,-0.05C0.366,-0.06 0.367,-0.089 0.367,-0.137L0.367,-0.248C0.367,-0.283 0.365,-0.309 0.363,-0.324C0.36,-0.34 0.351,-0.354 0.337,-0.365C0.323,-0.376 0.306,-0.382 0.285,-0.382C0.265,-0.382 0.244,-0.375 0.223,-0.362C0.202,-0.349 0.181,-0.33 0.159,-0.304L0.159,-0.137C0.159,-0.093 0.16,-0.066 0.161,-0.055C0.162,-0.044 0.167,-0.036 0.176,-0.031C0.184,-0.025 0.199,-0.022 0.221,-0.022L0.221,-0L0.025,-0L0.025,-0.022C0.047,-0.022 0.062,-0.025 0.071,-0.03C0.079,-0.034 0.084,-0.041 0.086,-0.051C0.088,-0.06 0.089,-0.089 0.089,-0.137L0.089,-0.257C0.089,-0.302 0.089,-0.33 0.087,-0.341C0.086,-0.351 0.081,-0.359 0.072,-0.364C0.063,-0.369 0.048,-0.372 0.025,-0.372L0.025,-0.394C0.072,-0.399 0.11,-0.406 0.14,-0.416Z" style="fill-rule:nonzero;"/>
            </g>
            <g transform="matrix(48,0,0,48,74.0156,32.2266)">
                <path d="M0.067,-0.62C0.067,-0.634 0.072,-0.646 0.082,-0.656C0.092,-0.666 0.104,-0.671 0.118,-0.671C0.132,-0.671 0.144,-0.666 0.153,-0.656C0.163,-0.646 0.168,-0.634 0.168,-0.62C0.168,-0.606 0.163,-0.594 0.153,-0.583C0.144,-0.573 0.132,-0.568 0.118,-0.568C0.104,-0.568 0.092,-0.573 0.082,-0.583C0.072,-0.594 0.067,-0.606 0.067,-0.62ZM0.161,-0.416L0.161,-0.137C0.161,-0.095 0.162,-0.068 0.163,-0.057C0.164,-0.046 0.169,-0.037 0.177,-0.031C0.185,-0.025 0.2,-0.022 0.221,-0.022L0.231,-0.022L0.231,-0L0.016,-0L0.016,-0.022L0.032,-0.022C0.055,-0.022 0.07,-0.026 0.077,-0.032C0.084,-0.039 0.088,-0.047 0.09,-0.056C0.091,-0.066 0.091,-0.093 0.091,-0.137L0.091,-0.258C0.091,-0.305 0.089,-0.334 0.085,-0.344C0.08,-0.355 0.074,-0.361 0.067,-0.364C0.06,-0.366 0.047,-0.368 0.029,-0.368L0.016,-0.368L0.016,-0.39C0.074,-0.396 0.118,-0.405 0.15,-0.416L0.161,-0.416Z" style="fill-rule:nonzero;"/>
            </g>
            <g transform="matrix(48,0,0,48,86.0156,32.2266)">
                <path d="M0.153,-0.671L0.153,-0.137C0.153,-0.095 0.154,-0.068 0.155,-0.057C0.156,-0.046 0.161,-0.037 0.169,-0.031C0.177,-0.025 0.192,-0.022 0.212,-0.022L0.224,-0.022L0.224,-0L0.01,-0L0.01,-0.022L0.024,-0.022C0.043,-0.022 0.057,-0.025 0.066,-0.031C0.074,-0.036 0.079,-0.043 0.081,-0.053C0.082,-0.063 0.083,-0.091 0.083,-0.137L0.083,-0.533C0.083,-0.575 0.079,-0.601 0.072,-0.612C0.064,-0.623 0.046,-0.628 0.017,-0.628L0.017,-0.651C0.037,-0.651 0.06,-0.653 0.087,-0.658C0.114,-0.662 0.132,-0.667 0.143,-0.671L0.153,-0.671Z" style="fill-rule:nonzero;"/>
            </g>
            <g transform="matrix(48,0,0,48,97.5234,32.2266)">
                <path d="M0.259,-0.076L0.352,-0.298C0.365,-0.33 0.372,-0.348 0.372,-0.352C0.372,-0.368 0.354,-0.377 0.318,-0.377L0.318,-0.4L0.458,-0.4L0.458,-0.377C0.437,-0.376 0.421,-0.371 0.411,-0.36C0.401,-0.35 0.388,-0.326 0.373,-0.29L0.195,0.14C0.178,0.181 0.163,0.209 0.15,0.224C0.137,0.239 0.123,0.246 0.107,0.246C0.086,0.246 0.075,0.236 0.075,0.217C0.075,0.195 0.092,0.176 0.126,0.161C0.146,0.152 0.159,0.145 0.166,0.139C0.172,0.132 0.179,0.121 0.186,0.105L0.224,0.01L0.073,-0.313C0.06,-0.341 0.049,-0.359 0.04,-0.366C0.031,-0.374 0.016,-0.377 -0.005,-0.377L-0.005,-0.4L0.179,-0.4L0.179,-0.377C0.146,-0.376 0.13,-0.37 0.13,-0.357C0.13,-0.353 0.137,-0.337 0.149,-0.31L0.259,-0.076Z" style="fill-rule:nonzero;"/>
            </g>
            <g transform="matrix(48,0,0,48,119.531,32.2266)">
                <path d="M0.616,0.015L0.147,-0.605L0.147,-0.146C0.147,-0.108 0.149,-0.083 0.153,-0.071C0.157,-0.059 0.167,-0.048 0.185,-0.038C0.203,-0.028 0.229,-0.022 0.264,-0.022L0.264,-0L0.017,-0L0.017,-0.022C0.049,-0.025 0.073,-0.031 0.089,-0.04C0.106,-0.049 0.116,-0.059 0.119,-0.07C0.122,-0.081 0.124,-0.106 0.124,-0.146L0.124,-0.497C0.124,-0.548 0.121,-0.582 0.116,-0.599C0.112,-0.616 0.104,-0.627 0.094,-0.632C0.084,-0.637 0.061,-0.64 0.025,-0.64L0.025,-0.662L0.221,-0.662L0.613,-0.144L0.613,-0.54C0.613,-0.569 0.61,-0.59 0.604,-0.602C0.598,-0.613 0.585,-0.623 0.567,-0.629C0.548,-0.636 0.526,-0.64 0.5,-0.64L0.5,-0.662L0.74,-0.662L0.74,-0.64C0.712,-0.637 0.69,-0.632 0.674,-0.624C0.658,-0.615 0.648,-0.605 0.643,-0.593C0.639,-0.581 0.637,-0.561 0.637,-0.533L0.637,0.015L0.616,0.015Z" style="fill-rule:nonzero;"/>
            </g>
            <g transform="matrix(48,0,0,48,155.531,32.2266)">
                <path d="M0.44,-0.073L0.458,-0.073C0.456,-0.018 0.428,0.01 0.376,0.01C0.354,0.01 0.337,0.004 0.324,-0.007C0.311,-0.019 0.303,-0.036 0.299,-0.06C0.266,-0.036 0.237,-0.019 0.21,-0.007C0.183,0.004 0.159,0.01 0.138,0.01C0.111,0.01 0.087,0.002 0.068,-0.013C0.048,-0.029 0.039,-0.049 0.039,-0.075C0.039,-0.109 0.055,-0.138 0.088,-0.163C0.12,-0.188 0.166,-0.213 0.223,-0.236L0.299,-0.267L0.299,-0.287C0.299,-0.314 0.297,-0.334 0.293,-0.347C0.29,-0.359 0.281,-0.37 0.266,-0.38C0.251,-0.39 0.231,-0.395 0.207,-0.395C0.158,-0.395 0.131,-0.378 0.125,-0.346C0.12,-0.313 0.106,-0.296 0.084,-0.296C0.064,-0.296 0.054,-0.305 0.054,-0.324C0.054,-0.343 0.067,-0.363 0.094,-0.384C0.12,-0.405 0.161,-0.416 0.217,-0.416C0.258,-0.416 0.29,-0.41 0.313,-0.396C0.336,-0.383 0.351,-0.369 0.358,-0.352C0.365,-0.335 0.369,-0.31 0.369,-0.276L0.369,-0.114C0.369,-0.076 0.371,-0.052 0.375,-0.042C0.379,-0.031 0.387,-0.025 0.4,-0.025C0.422,-0.025 0.435,-0.041 0.44,-0.073ZM0.299,-0.244L0.246,-0.223C0.162,-0.188 0.12,-0.146 0.12,-0.094C0.12,-0.073 0.125,-0.057 0.136,-0.044C0.146,-0.032 0.16,-0.025 0.178,-0.025C0.193,-0.025 0.211,-0.03 0.231,-0.041C0.251,-0.051 0.274,-0.066 0.299,-0.086L0.299,-0.244Z" style="fill-rule:nonzero;"/>
            </g>
            <g transform="matrix(48,0,0,48,178.031,32.2266)">
                <path d="M0.14,-0.416L0.145,-0.416C0.154,-0.394 0.159,-0.366 0.159,-0.332C0.181,-0.36 0.205,-0.381 0.23,-0.395C0.255,-0.409 0.282,-0.416 0.311,-0.416C0.344,-0.416 0.371,-0.409 0.391,-0.394C0.412,-0.379 0.426,-0.356 0.434,-0.326C0.459,-0.356 0.484,-0.379 0.51,-0.394C0.536,-0.409 0.563,-0.416 0.59,-0.416C0.621,-0.416 0.647,-0.409 0.668,-0.395C0.69,-0.38 0.703,-0.364 0.708,-0.346C0.712,-0.327 0.714,-0.298 0.714,-0.257L0.714,-0.137C0.714,-0.091 0.715,-0.062 0.717,-0.052C0.719,-0.042 0.724,-0.035 0.733,-0.03C0.741,-0.025 0.757,-0.022 0.781,-0.022L0.781,-0L0.581,-0L0.581,-0.022C0.602,-0.022 0.617,-0.025 0.626,-0.03C0.634,-0.034 0.64,-0.041 0.642,-0.051C0.644,-0.061 0.645,-0.089 0.645,-0.137L0.645,-0.271C0.645,-0.298 0.643,-0.318 0.64,-0.332C0.637,-0.345 0.629,-0.357 0.616,-0.367C0.603,-0.376 0.586,-0.381 0.565,-0.381C0.544,-0.381 0.523,-0.374 0.501,-0.36C0.48,-0.346 0.458,-0.324 0.437,-0.295L0.437,-0.137C0.437,-0.095 0.438,-0.068 0.439,-0.057C0.44,-0.046 0.444,-0.038 0.452,-0.031C0.46,-0.025 0.475,-0.022 0.495,-0.022L0.495,-0L0.302,-0L0.302,-0.022C0.324,-0.022 0.339,-0.025 0.347,-0.029C0.356,-0.034 0.361,-0.041 0.364,-0.05C0.366,-0.06 0.367,-0.089 0.367,-0.137L0.367,-0.248C0.367,-0.283 0.365,-0.309 0.363,-0.324C0.36,-0.34 0.351,-0.354 0.337,-0.365C0.323,-0.376 0.306,-0.382 0.285,-0.382C0.265,-0.382 0.244,-0.375 0.223,-0.362C0.202,-0.349 0.181,-0.33 0.159,-0.304L0.159,-0.137C0.159,-0.093 0.16,-0.066 0.161,-0.055C0.162,-0.044 0.167,-0.036 0.176,-0.031C0.184,-0.025 0.199,-0.022 0.221,-0.022L0.221,-0L0.025,-0L0.025,-0.022C0.047,-0.022 0.062,-0.025 0.071,-0.03C0.079,-0.034 0.084,-0.041 0.086,-0.051C0.088,-0.06 0.089,-0.089 0.089,-0.137L0.089,-0.257C0.089,-0.302 0.089,-0.33 0.087,-0.341C0.086,-0.351 0.081,-0.359 0.072,-0.364C0.063,-0.369 0.048,-0.372 0.025,-0.372L0.025,-0.394C0.072,-0.399 0.11,-0.406 0.14,-0.416Z" style="fill-rule:nonzero;"/>
            </g>
            <g transform="matrix(48,0,0,48,216.539,32.2266)">
                <path d="M0.399,-0.265L0.121,-0.265C0.119,-0.245 0.119,-0.231 0.119,-0.222C0.119,-0.151 0.13,-0.099 0.152,-0.063C0.174,-0.028 0.206,-0.01 0.25,-0.01C0.309,-0.01 0.351,-0.037 0.376,-0.09L0.399,-0.09C0.389,-0.057 0.368,-0.031 0.337,-0.012C0.306,0.007 0.273,0.016 0.236,0.016C0.202,0.016 0.17,0.008 0.14,-0.01C0.11,-0.027 0.086,-0.051 0.066,-0.082C0.047,-0.113 0.038,-0.151 0.038,-0.196C0.038,-0.259 0.056,-0.311 0.093,-0.353C0.13,-0.395 0.177,-0.416 0.232,-0.416C0.285,-0.416 0.325,-0.4 0.354,-0.368C0.383,-0.336 0.398,-0.302 0.399,-0.265ZM0.314,-0.284C0.315,-0.292 0.315,-0.298 0.315,-0.304C0.315,-0.333 0.307,-0.355 0.29,-0.371C0.274,-0.387 0.253,-0.395 0.229,-0.395C0.169,-0.395 0.134,-0.358 0.123,-0.284L0.314,-0.284Z" style="fill-rule:nonzero;"/>
            </g>
        </g>
    </g>
</svg>
